<svg width="1836" height="372" viewBox="0 0 1836 372" fill="none" xmlns="http://www.w3.org/2000/svg">
<g clip-path="url(#clip0_2891_595445)">
<path d="M175.599 70.339L0.00292969 0.100586C61.4897 39.1129 102.3 107.79 102.3 185.999C102.3 264.208 61.4898 332.886 0.0031212 371.898L175.599 301.66C160.843 266.028 152.7 226.965 152.7 185.999C152.7 145.034 160.843 105.97 175.599 70.339Z" fill="url(#paint0_linear_2891_595445)"/>
<path d="M222.405 89.0621L175.599 70.3398C160.843 105.971 152.7 145.035 152.7 186C152.7 226.966 160.843 266.029 175.599 301.661L222.405 282.938C209.72 253.168 202.7 220.404 202.7 186C202.7 151.597 209.72 118.833 222.405 89.0621Z" fill="url(#paint1_linear_2891_595445)"/>
<path d="M312.7 186C312.7 166.035 316.955 147.063 324.608 129.943L273.5 109.5C263.335 132.948 257.7 158.816 257.7 186C257.7 195.186 258.344 204.222 259.588 213.065C259.724 214.035 259.868 215.003 260.019 215.969C262.563 232.245 267.147 247.845 273.5 262.5L464.75 186L396 158.5L312.819 191.772C312.74 189.858 312.7 187.934 312.7 186Z" fill="#FAFCFF"/>
<path fill-rule="evenodd" clip-rule="evenodd" d="M747.25 146.965C725.919 166.01 698.853 177.401 669.401 177.401C639.741 177.401 612.5 165.849 591.1 146.559V33.9005H544.815L544.751 33.9004L544.75 338.101H591.1V217.101H747.25V338.101H794.05L794.051 38.4005V33.9004H793.987L747.25 33.9005V146.965ZM794.05 37.9039C794.051 38.0694 794.051 38.2349 794.051 38.4005C794.051 38.5661 794.051 38.7316 794.05 38.897V37.9039Z" fill="#FAFCFF"/>
<path d="M829.05 67.2002C829.05 51.4502 841.2 40.2002 856.95 40.2002C872.7 40.2002 884.85 51.4502 884.85 67.2002C884.85 82.9502 872.7 94.2002 856.95 94.2002C841.2 94.2002 829.05 82.9502 829.05 67.2002ZM834.45 122.6H879.45V338.1H834.45V122.6Z" fill="#FAFCFF"/>
<path d="M919.85 259.35V73.5H964.85V122.6H1030.55V165.3H964.85V253.95C964.85 283.2 979.25 295.8 1005.35 295.8H1037.3L1024.25 338.1H998.6C946.85 338.1 919.85 307.95 919.85 259.35Z" fill="#FAFCFF"/>
<path d="M1182.55 33.9004H1140.25C1094.8 33.9004 1072.3 63.6004 1072.3 104.55V338.1H1117.3V106.35C1117.3 82.9504 1129.45 73.9004 1147 73.9004H1182.55V33.9004Z" fill="#FAFCFF"/>
<path d="M1198.05 143.951C1198.05 128.201 1185.9 116.951 1170.15 116.951C1154.4 116.951 1142.25 128.201 1142.25 143.951C1142.25 159.701 1154.4 170.951 1170.15 170.951C1185.9 170.951 1198.05 159.701 1198.05 143.951Z" fill="#2E8FFF"/>
<path d="M1267.95 122.601H1222.95V338.101H1267.95V122.601Z" fill="#FAFCFF"/>
<path d="M1404.2 117.601C1461.35 117.601 1500.05 156.301 1500.05 217.501V338.101H1455.05V217.501C1455.05 182.401 1434.8 160.801 1404.2 160.801C1373.6 160.801 1353.35 182.401 1353.35 217.501V338.101H1308.35V217.501C1308.35 156.301 1347.05 117.601 1404.2 117.601Z" fill="#FAFCFF"/>
<path d="M1535.05 226.951C1535.05 162.151 1583.2 117.601 1645.75 117.601C1708.3 117.601 1756 160.801 1756 231.001V338.101H1711V232.351C1711 186.001 1682.65 160.801 1645.3 160.801C1607.95 160.801 1580.5 187.351 1580.5 226.501C1580.5 265.651 1606.15 295.801 1655.2 295.801H1683.1L1669.6 338.101H1652.05C1580.95 338.101 1535.05 289.501 1535.05 226.951Z" fill="#FAFCFF"/>
<path d="M1791 33.9004H1836V338.1H1791V33.9004Z" fill="#FAFCFF"/>
</g>
<defs>
<linearGradient id="paint0_linear_2891_595445" x1="87.8009" y1="0.100586" x2="87.8009" y2="371.898" gradientUnits="userSpaceOnUse">
<stop stop-color="#2E8FFF"/>
<stop offset="0.5" stop-color="#2E8FFF"/>
<stop offset="1" stop-color="#0075F4"/>
</linearGradient>
<linearGradient id="paint1_linear_2891_595445" x1="187.552" y1="70.3398" x2="187.552" y2="301.661" gradientUnits="userSpaceOnUse">
<stop stop-color="#0059C2"/>
<stop offset="0.5" stop-color="#0059C2"/>
<stop offset="1" stop-color="#0075F4"/>
</linearGradient>
<clipPath id="clip0_2891_595445">
<rect width="1836" height="372" fill="white"/>
</clipPath>
</defs>
</svg>
