<svg width="1292" height="306" viewBox="0 0 1292 306" fill="none" xmlns="http://www.w3.org/2000/svg">
<g clip-path="url(#clip0_2937_583091)">
<path fill-rule="evenodd" clip-rule="evenodd" d="M202.875 113.964C181.544 133.01 154.478 144.4 125.026 144.4C95.3656 144.4 68.1249 132.848 46.7246 113.559V0.900036H0.439872L0.375786 0.899914L0.375 305.1H46.725V184.1H202.875V305.1H249.675L249.676 5.40005V0.899914H249.612L202.875 0.900036V113.964ZM249.675 4.90342C249.676 5.0689 249.676 5.23444 249.676 5.40005C249.676 5.5656 249.676 5.73109 249.675 5.8965V4.90342Z" fill="white"/>
<path d="M284.675 34.2002C284.675 18.4502 296.825 7.2002 312.575 7.2002C328.325 7.2002 340.475 18.4502 340.475 34.2002C340.475 49.9502 328.325 61.2002 312.575 61.2002C296.825 61.2002 284.675 49.9502 284.675 34.2002ZM290.075 89.6001H335.075V305.1H290.075V89.6001Z" fill="white"/>
<path d="M375.475 226.35V40.5H420.475V89.5999H486.175V132.3H420.475V220.95C420.475 250.2 434.875 262.8 460.975 262.8H492.925L479.875 305.1H454.225C402.475 305.1 375.475 274.95 375.475 226.35Z" fill="white"/>
<path d="M638.176 0.899902H595.876C550.426 0.899902 527.926 30.5999 527.926 71.5499V305.1H572.926V73.3499C572.926 49.9499 585.076 40.8999 602.626 40.8999H638.176V0.899902Z" fill="white"/>
<path d="M653.675 110.95C653.675 95.2002 641.525 83.9502 625.775 83.9502C610.025 83.9502 597.875 95.2002 597.875 110.95C597.875 126.7 610.025 137.95 625.775 137.95C641.525 137.95 653.675 126.7 653.675 110.95Z" fill="#2E8FFF"/>
<path d="M723.575 89.5996H678.575V305.1H723.575V89.5996Z" fill="white"/>
<path d="M859.825 84.5996C916.975 84.5996 955.675 123.3 955.675 184.5V305.1H910.675V184.5C910.675 149.4 890.425 127.8 859.825 127.8C829.225 127.8 808.975 149.4 808.975 184.5V305.1H763.975V184.5C763.975 123.3 802.675 84.5996 859.825 84.5996Z" fill="white"/>
<path d="M990.675 193.95C990.675 129.15 1038.82 84.5996 1101.37 84.5996C1163.92 84.5996 1211.62 127.8 1211.62 198V305.1H1166.62V199.35C1166.62 153 1138.27 127.8 1100.92 127.8C1063.57 127.8 1036.12 154.35 1036.12 193.5C1036.12 232.65 1061.77 262.8 1110.82 262.8H1138.72L1125.22 305.1H1107.67C1036.57 305.1 990.675 256.5 990.675 193.95Z" fill="white"/>
<path d="M1246.62 0.899902H1291.62V305.1H1246.62V0.899902Z" fill="white"/>
</g>
<defs>
<clipPath id="clip0_2937_583091">
<rect width="1291.25" height="304.2" fill="white" transform="translate(0.375 0.899902)"/>
</clipPath>
</defs>
</svg>
