<svg width="466" height="540" viewBox="0 0 466 540" fill="none" xmlns="http://www.w3.org/2000/svg">
<g clip-path="url(#clip0_2937_583328)">
<path d="M176.224 71.1398L0.62793 0.901367C62.1147 39.9137 102.925 108.591 102.925 186.8C102.925 265.009 62.1148 333.686 0.628121 372.699L176.224 302.46C161.468 266.829 153.325 227.766 153.325 186.8C153.325 145.835 161.468 106.771 176.224 71.1398Z" fill="#7B7D8A"/>
<path d="M223.03 89.8629L176.224 71.1406C161.468 106.772 153.325 145.836 153.325 186.801C153.325 227.767 161.468 266.83 176.224 302.461L223.03 283.739C210.345 253.969 203.325 221.205 203.325 186.801C203.325 152.397 210.345 119.633 223.03 89.8629Z" fill="#7B7D8A"/>
<path d="M313.325 186.801C313.325 166.835 317.58 147.864 325.233 130.744L274.125 110.301C263.96 133.749 258.325 159.617 258.325 186.801C258.325 195.987 258.969 205.023 260.213 213.866C260.349 214.836 260.493 215.804 260.644 216.769C263.188 233.046 267.772 248.646 274.125 263.301L465.375 186.801L396.625 159.301L313.444 192.573C313.365 190.659 313.325 188.734 313.325 186.801Z" fill="#7B7D8A"/>
<path fill-rule="evenodd" clip-rule="evenodd" d="M91.125 475.388C84.0146 481.737 74.9925 485.534 65.1753 485.534C55.2885 485.534 46.2083 481.683 39.0749 475.253V437.7H23.6466L23.6253 437.7L23.625 539.1H39.075V498.767H91.125V539.1H106.725L106.725 439.2V437.7H106.704L91.125 437.7V475.388ZM106.725 439.035C106.725 439.09 106.725 439.145 106.725 439.2C106.725 439.255 106.725 439.311 106.725 439.366V439.035Z" fill="#7B7D8A"/>
<path d="M116.725 448.8C116.725 443.55 120.775 439.8 126.025 439.8C131.275 439.8 135.325 443.55 135.325 448.8C135.325 454.05 131.275 457.8 126.025 457.8C120.775 457.8 116.725 454.05 116.725 448.8ZM118.525 467.266H133.525V539.1H118.525V467.266Z" fill="#7B7D8A"/>
<path d="M145.325 512.85V450.9H160.325V467.267H182.225V481.5H160.325V511.05C160.325 520.8 165.125 525 173.825 525H184.475L180.125 539.1H171.575C154.325 539.1 145.325 529.05 145.325 512.85Z" fill="#7B7D8A"/>
<path d="M231.225 437.7H217.125C201.975 437.7 194.475 447.6 194.475 461.25V539.1H209.475V461.85C209.475 454.05 213.525 451.034 219.375 451.034H231.225V437.7Z" fill="#7B7D8A"/>
<path d="M235.558 474.384C235.558 469.134 231.508 465.384 226.258 465.384C221.008 465.384 216.958 469.134 216.958 474.384C216.958 479.634 221.008 483.384 226.258 483.384C231.508 483.384 235.558 479.634 235.558 474.384Z" fill="#7B7D8A"/>
<path d="M258.025 467.267H243.025V539.1H258.025V467.267Z" fill="#7B7D8A"/>
<path d="M301.775 465.601C320.825 465.601 333.725 478.501 333.725 498.901V539.101H318.725V498.901C318.725 487.201 311.975 480.001 301.775 480.001C291.575 480.001 284.825 487.201 284.825 498.901V539.101H269.825V498.901C269.825 478.501 282.725 465.601 301.775 465.601Z" fill="#7B7D8A"/>
<path d="M343.725 502.051C343.725 480.451 359.775 465.601 380.625 465.601C401.475 465.601 417.375 480.001 417.375 503.401V539.101H402.375V503.851C402.375 488.401 392.925 480.001 380.475 480.001C368.025 480.001 358.875 488.851 358.875 501.901C358.875 514.951 367.425 525.001 383.775 525.001H393.075L388.575 539.101H382.725C359.025 539.101 343.725 522.901 343.725 502.051Z" fill="#7B7D8A"/>
<path d="M427.375 437.7H442.375V539.1H427.375V437.7Z" fill="#7B7D8A"/>
</g>
<defs>
<clipPath id="clip0_2937_583328">
<rect width="464.75" height="538.2" fill="white" transform="translate(0.625 0.900391)"/>
</clipPath>
</defs>
</svg>
