<svg width="466" height="372" viewBox="0 0 466 372" fill="none" xmlns="http://www.w3.org/2000/svg">
<g clip-path="url(#clip0_2937_583100)">
<path d="M176.224 70.3397L0.62793 0.101318C62.1147 39.1137 102.925 107.791 102.925 186C102.925 264.209 62.1148 332.886 0.628121 371.899L176.224 301.66C161.468 266.029 153.325 226.966 153.325 186C153.325 145.035 161.468 105.971 176.224 70.3397Z" fill="url(#paint0_linear_2937_583100)"/>
<path d="M223.03 89.0621L176.224 70.3398C161.468 105.971 153.325 145.035 153.325 186C153.325 226.966 161.468 266.029 176.224 301.661L223.03 282.938C210.345 253.168 203.325 220.404 203.325 186C203.325 151.597 210.345 118.833 223.03 89.0621Z" fill="url(#paint1_linear_2937_583100)"/>
<path d="M313.325 186C313.325 166.035 317.58 147.064 325.233 129.944L274.125 109.5C263.96 132.948 258.325 158.816 258.325 186C258.325 195.186 258.969 204.222 260.213 213.065C260.349 214.035 260.493 215.003 260.644 215.969C263.188 232.245 267.772 247.845 274.125 262.5L465.375 186L396.625 158.5L313.444 191.773C313.365 189.858 313.325 187.934 313.325 186Z" fill="#001933"/>
</g>
<defs>
<linearGradient id="paint0_linear_2937_583100" x1="88.4259" y1="0.101318" x2="88.4259" y2="371.899" gradientUnits="userSpaceOnUse">
<stop stop-color="#0075F4"/>
<stop offset="0.5" stop-color="#0075F4"/>
<stop offset="1" stop-color="#0059C2"/>
</linearGradient>
<linearGradient id="paint1_linear_2937_583100" x1="188.177" y1="70.3398" x2="188.177" y2="301.661" gradientUnits="userSpaceOnUse">
<stop stop-color="#0051A8"/>
<stop offset="0.5" stop-color="#0051A8"/>
<stop offset="1" stop-color="#0059C2"/>
</linearGradient>
<clipPath id="clip0_2937_583100">
<rect width="464.75" height="371.8" fill="white" transform="translate(0.625 0.100098)"/>
</clipPath>
</defs>
</svg>
