<svg width="1292" height="306" viewBox="0 0 1292 306" fill="none" xmlns="http://www.w3.org/2000/svg">
<g clip-path="url(#clip0_2937_583093)">
<path fill-rule="evenodd" clip-rule="evenodd" d="M202.875 113.965C181.544 133.01 154.478 144.401 125.026 144.401C95.3656 144.401 68.1249 132.849 46.7246 113.559V0.900524H0.439872L0.375786 0.900402L0.375 305.101H46.725V184.101H202.875V305.101H249.675L249.676 5.40054V0.900402H249.612L202.875 0.900524V113.965ZM249.675 4.90391C249.676 5.06939 249.676 5.23493 249.676 5.40054C249.676 5.56609 249.676 5.73158 249.675 5.89699V4.90391Z" fill="#FAFCFF"/>
<path d="M284.675 34.2002C284.675 18.4502 296.825 7.2002 312.575 7.2002C328.325 7.2002 340.475 18.4502 340.475 34.2002C340.475 49.9502 328.325 61.2002 312.575 61.2002C296.825 61.2002 284.675 49.9502 284.675 34.2002ZM290.075 89.6001H335.075V305.1H290.075V89.6001Z" fill="#FAFCFF"/>
<path d="M375.475 226.35V40.5H420.475V89.5999H486.175V132.3H420.475V220.95C420.475 250.2 434.875 262.8 460.975 262.8H492.925L479.875 305.1H454.225C402.475 305.1 375.475 274.95 375.475 226.35Z" fill="#FAFCFF"/>
<path d="M638.176 0.900391H595.876C550.426 0.900391 527.926 30.6004 527.926 71.5504V305.1H572.926V73.3504C572.926 49.9504 585.076 40.9004 602.626 40.9004H638.176V0.900391Z" fill="#FAFCFF"/>
<path d="M653.675 110.951C653.675 95.2012 641.525 83.9512 625.775 83.9512C610.025 83.9512 597.875 95.2012 597.875 110.951C597.875 126.701 610.025 137.951 625.775 137.951C641.525 137.951 653.675 126.701 653.675 110.951Z" fill="#2E8FFF"/>
<path d="M723.575 89.6006H678.575V305.101H723.575V89.6006Z" fill="#FAFCFF"/>
<path d="M859.825 84.6006C916.975 84.6006 955.675 123.301 955.675 184.501V305.101H910.675V184.501C910.675 149.401 890.425 127.801 859.825 127.801C829.225 127.801 808.975 149.401 808.975 184.501V305.101H763.975V184.501C763.975 123.301 802.675 84.6006 859.825 84.6006Z" fill="#FAFCFF"/>
<path d="M990.675 193.951C990.675 129.151 1038.82 84.6006 1101.37 84.6006C1163.92 84.6006 1211.62 127.801 1211.62 198.001V305.101H1166.62V199.351C1166.62 153.001 1138.27 127.801 1100.92 127.801C1063.57 127.801 1036.12 154.351 1036.12 193.501C1036.12 232.651 1061.77 262.801 1110.82 262.801H1138.72L1125.22 305.101H1107.67C1036.57 305.101 990.675 256.501 990.675 193.951Z" fill="#FAFCFF"/>
<path d="M1246.62 0.900391H1291.62V305.1H1246.62V0.900391Z" fill="#FAFCFF"/>
</g>
<defs>
<clipPath id="clip0_2937_583093">
<rect width="1291.25" height="304.2" fill="white" transform="translate(0.375 0.900391)"/>
</clipPath>
</defs>
</svg>
