<svg width="1836" height="372" viewBox="0 0 1836 372" fill="none" xmlns="http://www.w3.org/2000/svg">
<path d="M175.599 70.3397L0.00292969 0.101318C61.4897 39.1137 102.3 107.791 102.3 186C102.3 264.209 61.4898 332.886 0.0031212 371.899L175.599 301.66C160.843 266.029 152.7 226.966 152.7 186C152.7 145.035 160.843 105.971 175.599 70.3397Z" fill="#0075F4"/>
<path d="M222.405 89.0621L175.599 70.3398C160.843 105.971 152.7 145.035 152.7 186C152.7 226.966 160.843 266.029 175.599 301.661L222.405 282.938C209.72 253.168 202.7 220.404 202.7 186C202.7 151.597 209.72 118.833 222.405 89.0621Z" fill="#0051A8"/>
<path d="M312.7 186C312.7 166.035 316.955 147.064 324.608 129.944L273.5 109.5C263.335 132.948 257.7 158.816 257.7 186C257.7 195.186 258.344 204.222 259.588 213.065C259.724 214.035 259.868 215.003 260.019 215.969C262.563 232.245 267.147 247.845 273.5 262.5L464.75 186L396 158.5L312.819 191.773C312.74 189.858 312.7 187.934 312.7 186Z" fill="black"/>
<path fill-rule="evenodd" clip-rule="evenodd" d="M747.25 146.964C725.919 166.01 698.853 177.4 669.401 177.4C639.741 177.4 612.5 165.848 591.1 146.559V33.9H544.815L544.751 33.8999L544.75 338.1H591.1V217.1H747.25V338.1H794.05L794.051 38.4001V33.8999H793.987L747.25 33.9V146.964ZM794.05 37.9034C794.051 38.0689 794.051 38.2344 794.051 38.4001C794.051 38.5656 794.051 38.7311 794.05 38.8965V37.9034Z" fill="black"/>
<path d="M829.05 67.2C829.05 51.45 841.2 40.2 856.95 40.2C872.7 40.2 884.85 51.45 884.85 67.2C884.85 82.95 872.7 94.2 856.95 94.2C841.2 94.2 829.05 82.95 829.05 67.2ZM834.45 122.6H879.45V338.1H834.45V122.6Z" fill="black"/>
<path d="M919.85 259.35V73.5H964.85V122.6H1030.55V165.3H964.85V253.95C964.85 283.2 979.25 295.8 1005.35 295.8H1037.3L1024.25 338.1H998.6C946.85 338.1 919.85 307.95 919.85 259.35Z" fill="black"/>
<path d="M1182.55 33.8999H1140.25C1094.8 33.8999 1072.3 63.5999 1072.3 104.55V338.1H1117.3V106.35C1117.3 82.9499 1129.45 73.8999 1147 73.8999H1182.55V33.8999Z" fill="black"/>
<path d="M1198.05 143.95C1198.05 128.2 1185.9 116.95 1170.15 116.95C1154.4 116.95 1142.25 128.2 1142.25 143.95C1142.25 159.7 1154.4 170.95 1170.15 170.95C1185.9 170.95 1198.05 159.7 1198.05 143.95Z" fill="#0075F4"/>
<path d="M1267.95 122.6H1222.95V338.1H1267.95V122.6Z" fill="black"/>
<path d="M1404.2 117.6C1461.35 117.6 1500.05 156.3 1500.05 217.5V338.1H1455.05V217.5C1455.05 182.4 1434.8 160.8 1404.2 160.8C1373.6 160.8 1353.35 182.4 1353.35 217.5V338.1H1308.35V217.5C1308.35 156.3 1347.05 117.6 1404.2 117.6Z" fill="black"/>
<path d="M1535.05 226.95C1535.05 162.15 1583.2 117.6 1645.75 117.6C1708.3 117.6 1756 160.8 1756 231V338.1H1711V232.35C1711 186 1682.65 160.8 1645.3 160.8C1607.95 160.8 1580.5 187.35 1580.5 226.5C1580.5 265.65 1606.15 295.8 1655.2 295.8H1683.1L1669.6 338.1H1652.05C1580.95 338.1 1535.05 289.5 1535.05 226.95Z" fill="black"/>
<path d="M1791 33.8999H1836V338.1H1791V33.8999Z" fill="black"/>
</svg>
