<svg width="466" height="540" viewBox="0 0 466 540" fill="none" xmlns="http://www.w3.org/2000/svg">
<g clip-path="url(#clip0_2937_583330)">
<path d="M176.224 71.1395L0.62793 0.901123C62.1147 39.9135 102.925 108.591 102.925 186.8C102.925 265.009 62.1148 333.686 0.628121 372.698L176.224 302.46C161.468 266.829 153.325 227.765 153.325 186.8C153.325 145.834 161.468 106.771 176.224 71.1395Z" fill="url(#paint0_linear_2937_583330)"/>
<path d="M223.03 89.8619L176.224 71.1396C161.468 106.771 153.325 145.835 153.325 186.8C153.325 227.766 161.468 266.829 176.224 302.46L223.03 283.738C210.345 253.968 203.325 221.204 203.325 186.8C203.325 152.396 210.345 119.632 223.03 89.8619Z" fill="url(#paint1_linear_2937_583330)"/>
<path d="M313.325 186.8C313.325 166.835 317.58 147.863 325.233 130.743L274.125 110.3C263.96 133.748 258.325 159.616 258.325 186.8C258.325 195.986 258.969 205.022 260.213 213.865C260.349 214.835 260.493 215.803 260.644 216.769C263.188 233.045 267.772 248.645 274.125 263.3L465.375 186.8L396.625 159.3L313.444 192.572C313.365 190.658 313.325 188.734 313.325 186.8Z" fill="#001933"/>
<path fill-rule="evenodd" clip-rule="evenodd" d="M91.125 475.388C84.0146 481.737 74.9925 485.533 65.1753 485.533C55.2885 485.533 46.2083 481.683 39.0749 475.253V437.7H23.6466L23.6253 437.7L23.625 539.1H39.075V498.767H91.125V539.1H106.725L106.725 439.2V437.7H106.704L91.125 437.7V475.388ZM106.725 439.034C106.725 439.09 106.725 439.145 106.725 439.2C106.725 439.255 106.725 439.31 106.725 439.365V439.034Z" fill="#001933"/>
<path d="M116.725 448.8C116.725 443.55 120.775 439.8 126.025 439.8C131.275 439.8 135.325 443.55 135.325 448.8C135.325 454.05 131.275 457.8 126.025 457.8C120.775 457.8 116.725 454.05 116.725 448.8ZM118.525 467.267H133.525V539.1H118.525V467.267Z" fill="#001933"/>
<path d="M145.325 512.85V450.9H160.325V467.267H182.225V481.5H160.325V511.05C160.325 520.8 165.125 525 173.825 525H184.475L180.125 539.1H171.575C154.325 539.1 145.325 529.05 145.325 512.85Z" fill="#001933"/>
<path d="M231.225 437.7H217.125C201.975 437.7 194.475 447.6 194.475 461.25V539.1H209.475V461.85C209.475 454.05 213.525 451.033 219.375 451.033H231.225V437.7Z" fill="#001933"/>
<path d="M235.558 474.383C235.558 469.133 231.508 465.383 226.258 465.383C221.008 465.383 216.958 469.133 216.958 474.383C216.958 479.633 221.008 483.383 226.258 483.383C231.508 483.383 235.558 479.633 235.558 474.383Z" fill="#0075F4"/>
<path d="M258.025 467.267H243.025V539.1H258.025V467.267Z" fill="#001933"/>
<path d="M301.775 465.6C320.825 465.6 333.725 478.5 333.725 498.9V539.1H318.725V498.9C318.725 487.2 311.975 480 301.775 480C291.575 480 284.825 487.2 284.825 498.9V539.1H269.825V498.9C269.825 478.5 282.725 465.6 301.775 465.6Z" fill="#001933"/>
<path d="M343.725 502.05C343.725 480.45 359.775 465.6 380.625 465.6C401.475 465.6 417.375 480 417.375 503.4V539.1H402.375V503.85C402.375 488.4 392.925 480 380.475 480C368.025 480 358.875 488.85 358.875 501.9C358.875 514.95 367.425 525 383.775 525H393.075L388.575 539.1H382.725C359.025 539.1 343.725 522.9 343.725 502.05Z" fill="#001933"/>
<path d="M427.375 437.7H442.375V539.1H427.375V437.7Z" fill="#001933"/>
</g>
<defs>
<linearGradient id="paint0_linear_2937_583330" x1="88.4259" y1="0.901123" x2="88.4259" y2="372.698" gradientUnits="userSpaceOnUse">
<stop stop-color="#0075F4"/>
<stop offset="0.5" stop-color="#0075F4"/>
<stop offset="1" stop-color="#0059C2"/>
</linearGradient>
<linearGradient id="paint1_linear_2937_583330" x1="188.177" y1="71.1396" x2="188.177" y2="302.46" gradientUnits="userSpaceOnUse">
<stop stop-color="#0051A8"/>
<stop offset="0.5" stop-color="#0051A8"/>
<stop offset="1" stop-color="#0059C2"/>
</linearGradient>
<clipPath id="clip0_2937_583330">
<rect width="464.75" height="538.2" fill="white" transform="translate(0.625 0.899902)"/>
</clipPath>
</defs>
</svg>
