<svg width="10" height="15" viewBox="0 0 10 15" fill="none" xmlns="http://www.w3.org/2000/svg">
<g id="page=table, match=next">
<path d="M0 5C0 2.23858 2.23858 0 5 0C7.76142 0 10 2.23858 10 5V10C10 12.7614 7.76142 15 5 15C2.23858 15 0 12.7614 0 10V5Z" fill="#E0E2E6"/>
<path id="Icon" d="M2.57083 5.00182C2.76675 4.44487 3.15346 3.97524 3.66246 3.6761C4.17146 3.37695 4.76991 3.2676 5.35181 3.36741C5.93371 3.46722 6.46151 3.76975 6.84173 4.22142C7.22195 4.67309 7.43004 5.24475 7.42916 5.83515C7.42916 7.50182 4.92916 8.33515 4.92916 8.33515M4.99583 11.6685H5.00416" stroke="#2B2E39" stroke-width="2" stroke-linecap="round" stroke-linejoin="round"/>
</g>
</svg>
