<svg width="25" height="24" viewBox="0 0 25 24" fill="none" xmlns="http://www.w3.org/2000/svg">
<g id="_Lineup roster row missing icon">
<path id="Icon" d="M16.25 4.25C16.25 3.14543 15.3546 2.25 14.25 2.25L10.75 2.25C9.64543 2.25 8.75 3.14543 8.75 4.25V8.25H4.75C3.64543 8.25 2.75 9.14543 2.75 10.25V13.75C2.75 14.8546 3.64543 15.75 4.75 15.75H8.75V19.75C8.75 20.8546 9.64543 21.75 10.75 21.75H14.25C15.3546 21.75 16.25 20.8546 16.25 19.75V15.75H20.25C21.3546 15.75 22.25 14.8546 22.25 13.75V10.25C22.25 9.14543 21.3546 8.25 20.25 8.25H16.25V4.25Z" fill="#B42318"/>
</g>
</svg>
