<svg width="24" height="19" viewBox="0 0 24 19" fill="none" xmlns="http://www.w3.org/2000/svg">
<g id="USA_S1 1">
<g clip-path="url(#clip0_11232_216926)">
<g id="Group">
<g id="Group_2">
<path id="Vector" fill-rule="evenodd" clip-rule="evenodd" d="M0 0.5H34.2004V1.88463H0V0.5ZM0 3.26926H34.2004V4.65389H0V3.26926ZM0 6.03852H34.2004V7.42314H0V6.03852ZM0 8.80777H34.2004V10.1924H0V8.80777ZM0 11.577H34.2004V12.9617H0V11.577ZM0 14.3463H34.2004V15.7309H0V14.3463ZM0 17.1155H34.2004V18.5002H0V17.1155Z" fill="#BD3D44"/>
<path id="Vector_2" fill-rule="evenodd" clip-rule="evenodd" d="M0 1.88464H34.2004V3.26927H0V1.88464ZM0 4.6539H34.2004V6.03853H0V4.6539ZM0 7.42316H34.2004V8.80779H0V7.42316ZM0 10.1924H34.2004V11.577H0V10.1924ZM0 12.9617H34.2004V14.3463H0V12.9617ZM0 15.7309H34.2004V17.1156H0V15.7309Z" fill="white"/>
</g>
<path id="Vector_3" fill-rule="evenodd" clip-rule="evenodd" d="M0 0.5H13.68V10.1922H0V0.5Z" fill="#192F5D"/>
<g id="Group_3">
<path id="Vector_4" fill-rule="evenodd" clip-rule="evenodd" d="M1.14001 0.914856L1.26446 1.29792H1.66728L1.34138 1.5347L1.46587 1.91776L1.13997 1.68102L0.814142 1.91776L0.938595 1.5347L0.612732 1.29792H1.01552L1.14001 0.914856ZM3.41999 0.914856L3.54448 1.29792H3.9473L3.6214 1.5347L3.74589 1.91776L3.41999 1.68102L3.09417 1.91776L3.21862 1.5347L2.89276 1.29792H3.29554L3.41999 0.914856ZM5.70009 0.914856L5.82454 1.29792H6.22736L5.90146 1.5347L6.02595 1.91776L5.70009 1.68102L5.37422 1.91776L5.49868 1.5347L5.17281 1.29792H5.57563L5.70009 0.914856ZM7.98004 0.914856L8.10449 1.29792H8.50728L8.18142 1.5347L8.30587 1.91776L7.98004 1.68102L7.65414 1.91776L7.77863 1.5347L7.45273 1.29792H7.85555L7.98004 0.914856ZM10.2601 0.914856L10.3846 1.29792H10.7874L10.4615 1.5347L10.586 1.91776L10.2601 1.68102L9.93424 1.91776L10.0587 1.5347L9.73283 1.29792H10.1356L10.2601 0.914856ZM12.5402 0.914856L12.6646 1.29792H13.0674L12.7415 1.5347L12.866 1.91776L12.5402 1.68102L12.2143 1.91776L12.3388 1.5347L12.0129 1.29792H12.4157L12.5402 0.914856ZM2.28005 1.88411L2.40451 2.26718H2.80733L2.48143 2.50392L2.60595 2.88702L2.28005 2.65027L1.95419 2.88702L2.07864 2.50392L1.75278 2.26718H2.1556L2.28005 1.88411ZM4.56001 1.88411L4.68446 2.26718H5.08724L4.76138 2.50392L4.88583 2.88702L4.56001 2.65027L4.23411 2.88702L4.3586 2.50392L4.0327 2.26718H4.43552L4.56001 1.88411ZM6.84006 1.88411L6.96452 2.26718H7.36734L7.04144 2.50392L7.16593 2.88702L6.84003 2.65027L6.5142 2.88702L6.63865 2.50392L6.31279 2.26718H6.71558L6.84006 1.88411ZM9.12012 1.88411L9.24458 2.26718H9.6474L9.3215 2.50392L9.44599 2.88702L9.12012 2.65027L8.79422 2.88702L8.91878 2.50392L8.59288 2.26718H8.9957L9.12012 1.88411ZM11.4001 1.88411L11.5245 2.26718H11.9273L11.6015 2.50392L11.7259 2.88702L11.4001 2.65027L11.0742 2.88702L11.1987 2.50392L10.8728 2.26718H11.2756L11.4001 1.88411ZM1.14001 2.85334L1.26446 3.2364H1.66728L1.34138 3.47318L1.46587 3.85624L1.13997 3.6195L0.814142 3.85624L0.938595 3.47318L0.612732 3.2364H1.01552L1.14001 2.85334ZM3.41999 2.85334L3.54448 3.2364H3.9473L3.6214 3.47318L3.74589 3.85624L3.41999 3.6195L3.09417 3.85624L3.21862 3.47318L2.89276 3.2364H3.29554L3.41999 2.85334ZM5.70009 2.85334L5.82454 3.2364H6.22736L5.90146 3.47318L6.02595 3.85624L5.70009 3.6195L5.37422 3.85624L5.49868 3.47318L5.17281 3.2364H5.57563L5.70009 2.85334ZM7.98004 2.85334L8.10449 3.2364H8.50728L8.18142 3.47318L8.30587 3.85624L7.98004 3.6195L7.65414 3.85624L7.77863 3.47318L7.45273 3.2364H7.85555L7.98004 2.85334ZM10.2601 2.85334L10.3846 3.2364H10.7874L10.4615 3.47318L10.586 3.85624L10.2601 3.6195L9.93424 3.85624L10.0587 3.47318L9.73283 3.2364H10.1356L10.2601 2.85334ZM12.5402 2.85334L12.6646 3.2364H13.0674L12.7415 3.47318L12.866 3.85624L12.5402 3.6195L12.2143 3.85624L12.3388 3.47318L12.0129 3.2364H12.4157L12.5402 2.85334ZM2.28005 3.82256L2.40451 4.20566H2.80733L2.48143 4.4424L2.60595 4.8255L2.28005 4.58875L1.95419 4.8255L2.07864 4.4424L1.75278 4.20566H2.1556L2.28005 3.82256ZM4.56001 3.82256L4.68446 4.20566H5.08724L4.76138 4.4424L4.88583 4.8255L4.56001 4.58875L4.23411 4.8255L4.3586 4.4424L4.0327 4.20566H4.43552L4.56001 3.82256ZM6.84006 3.82256L6.96452 4.20566H7.36734L7.04144 4.4424L7.16593 4.8255L6.84003 4.58875L6.5142 4.8255L6.63865 4.4424L6.31279 4.20566H6.71558L6.84006 3.82256ZM9.12012 3.82256L9.24458 4.20566H9.6474L9.3215 4.4424L9.44599 4.8255L9.12012 4.58875L8.79422 4.8255L8.91875 4.4424L8.59285 4.20566H8.99567L9.12012 3.82256ZM11.4001 3.82256L11.5245 4.20566H11.9273L11.6015 4.4424L11.7259 4.8255L11.4001 4.58875L11.0742 4.8255L11.1987 4.4424L10.8728 4.20566H11.2756L11.4001 3.82256ZM1.14001 4.79182L1.26446 5.17488H1.66728L1.34138 5.41166L1.46587 5.79472L1.13997 5.55798L0.814142 5.79472L0.938595 5.41166L0.612732 5.17488H1.01552L1.14001 4.79182ZM3.41999 4.79182L3.54448 5.17488H3.9473L3.6214 5.41166L3.74589 5.79472L3.41999 5.55798L3.09417 5.79472L3.21862 5.41166L2.89276 5.17488H3.29554L3.41999 4.79182ZM5.70009 4.79182L5.82454 5.17488H6.22736L5.90146 5.41166L6.02595 5.79472L5.70009 5.55798L5.37422 5.79472L5.49868 5.41166L5.17281 5.17488H5.57563L5.70009 4.79182ZM7.98004 4.79182L8.10449 5.17488H8.50728L8.18142 5.41166L8.30587 5.79472L7.98004 5.55798L7.65414 5.79472L7.77863 5.41166L7.45273 5.17488H7.85555L7.98004 4.79182ZM10.2601 4.79182L10.3846 5.17488H10.7874L10.4615 5.41166L10.586 5.79472L10.2601 5.55798L9.93424 5.79472L10.0587 5.41166L9.73283 5.17488H10.1356L10.2601 4.79182ZM12.5402 4.79182L12.6646 5.17488H13.0674L12.7415 5.41166L12.866 5.79472L12.5402 5.55798L12.2143 5.79472L12.3388 5.41166L12.0129 5.17488H12.4157L12.5402 4.79182ZM2.28005 5.76104L2.40451 6.14414H2.80733L2.48143 6.38088L2.60595 6.76398L2.28005 6.52723L1.95419 6.76398L2.07864 6.38088L1.75278 6.14414H2.1556L2.28005 5.76104ZM4.56001 5.76104L4.68446 6.14414H5.08724L4.76138 6.38088L4.88583 6.76398L4.56001 6.52723L4.23411 6.76398L4.3586 6.38088L4.0327 6.14414H4.43552L4.56001 5.76104ZM6.84006 5.76104L6.96452 6.14414H7.36734L7.04144 6.38088L7.16593 6.76398L6.84003 6.52723L6.5142 6.76398L6.63865 6.38088L6.31279 6.14414H6.71558L6.84006 5.76104ZM9.12012 5.76104L9.24458 6.14414H9.6474L9.3215 6.38088L9.44599 6.76398L9.12012 6.52723L8.79422 6.76398L8.91875 6.38088L8.59285 6.14414H8.99567L9.12012 5.76104ZM11.4001 5.76104L11.5245 6.14414H11.9273L11.6015 6.38088L11.7259 6.76398L11.4001 6.52723L11.0742 6.76398L11.1987 6.38088L10.8728 6.14414H11.2756L11.4001 5.76104ZM1.14001 6.7303L1.26446 7.11336H1.66728L1.34138 7.35014L1.46587 7.7332L1.13997 7.49646L0.814142 7.7332L0.938595 7.35014L0.612732 7.11336H1.01552L1.14001 6.7303ZM3.41999 6.7303L3.54448 7.11336H3.9473L3.6214 7.35014L3.74589 7.7332L3.41999 7.49646L3.09417 7.7332L3.21862 7.35014L2.89276 7.11336H3.29554L3.41999 6.7303ZM5.70009 6.7303L5.82454 7.11336H6.22736L5.90146 7.35014L6.02595 7.7332L5.70009 7.49646L5.37422 7.7332L5.49868 7.35014L5.17281 7.11336H5.57563L5.70009 6.7303ZM7.98004 6.7303L8.10449 7.11336H8.50728L8.18142 7.35014L8.30587 7.7332L7.98004 7.49646L7.65414 7.7332L7.77863 7.35014L7.45273 7.11336H7.85555L7.98004 6.7303ZM10.2601 6.7303L10.3846 7.11336H10.7874L10.4615 7.35014L10.586 7.7332L10.2601 7.49646L9.93424 7.7332L10.0587 7.35014L9.73283 7.11336H10.1356L10.2601 6.7303ZM12.5402 6.7303L12.6646 7.11336H13.0674L12.7415 7.35014L12.866 7.7332L12.5402 7.49646L12.2143 7.7332L12.3388 7.35014L12.0129 7.11336H12.4157L12.5402 6.7303ZM2.28005 7.69952L2.40451 8.08262H2.80733L2.48143 8.31936L2.60595 8.70246L2.28005 8.46572L1.95419 8.70246L2.07864 8.31936L1.75278 8.08262H2.1556L2.28005 7.69952ZM4.56001 7.69952L4.68446 8.08262H5.08724L4.76138 8.31936L4.88583 8.70246L4.56001 8.46572L4.23411 8.70246L4.3586 8.31936L4.0327 8.08262H4.43552L4.56001 7.69952ZM6.84006 7.69952L6.96452 8.08262H7.36734L7.04144 8.31936L7.16593 8.70246L6.84003 8.46572L6.5142 8.70246L6.63865 8.31936L6.31279 8.08262H6.71558L6.84006 7.69952ZM9.12012 7.69952L9.24458 8.08262H9.6474L9.3215 8.31936L9.44599 8.70246L9.12012 8.46572L8.79422 8.70246L8.91875 8.31936L8.59285 8.08262H8.99567L9.12012 7.69952ZM11.4001 7.69952L11.5245 8.08262H11.9273L11.6015 8.31936L11.7259 8.70246L11.4001 8.46572L11.0742 8.70246L11.1987 8.31936L10.8728 8.08262H11.2756L11.4001 7.69952ZM1.14001 8.66878L1.26446 9.05184H1.66728L1.34138 9.28862L1.46587 9.67168L1.13997 9.43494L0.814142 9.67168L0.938595 9.28862L0.612732 9.05184H1.01552L1.14001 8.66878ZM3.41999 8.66878L3.54448 9.05184H3.9473L3.6214 9.28862L3.74589 9.67168L3.41999 9.43494L3.09417 9.67168L3.21862 9.28862L2.89276 9.05184H3.29554L3.41999 8.66878ZM5.70009 8.66878L5.82454 9.05184H6.22736L5.90146 9.28862L6.02595 9.67168L5.70009 9.43494L5.37422 9.67168L5.49868 9.28862L5.17281 9.05184H5.57563L5.70009 8.66878ZM7.98004 8.66878L8.10449 9.05184H8.50728L8.18142 9.28862L8.30587 9.67168L7.98004 9.43494L7.65414 9.67168L7.77863 9.28862L7.45273 9.05184H7.85555L7.98004 8.66878ZM10.2601 8.66878L10.3846 9.05184H10.7874L10.4615 9.28862L10.586 9.67168L10.2601 9.43494L9.93424 9.67168L10.0587 9.28862L9.73283 9.05184H10.1356L10.2601 8.66878ZM12.5402 8.66878L12.6646 9.05184H13.0674L12.7415 9.28862L12.866 9.67168L12.5402 9.43494L12.2143 9.67168L12.3388 9.28862L12.0129 9.05184H12.4157L12.5402 8.66878Z" fill="white"/>
</g>
</g>
</g>
</g>
<defs>
<clipPath id="clip0_11232_216926">
<path d="M0 5.5C0 2.73858 2.23858 0.5 5 0.5H19C21.7614 0.5 24 2.73858 24 5.5V13.5C24 16.2614 21.7614 18.5 19 18.5H5C2.23858 18.5 0 16.2614 0 13.5V5.5Z" fill="white"/>
</clipPath>
</defs>
</svg>
