<svg width="12" height="12" viewBox="0 0 12 12" fill="none" xmlns="http://www.w3.org/2000/svg">
<g clip-path="url(#clip0_4783_105756)">
<path d="M11 6H9M3 6H1M6 3V1M6 11V9M10 6C10 8.20914 8.20914 10 6 10C3.79086 10 2 8.20914 2 6C2 3.79086 3.79086 2 6 2C8.20914 2 10 3.79086 10 6ZM7.5 6C7.5 6.82843 6.82843 7.5 6 7.5C5.17157 7.5 4.5 6.82843 4.5 6C4.5 5.17157 5.17157 4.5 6 4.5C6.82843 4.5 7.5 5.17157 7.5 6Z" stroke="#393D48" stroke-linecap="round" stroke-linejoin="round"/>
</g>
<defs>
<clipPath id="clip0_4783_105756">
<rect width="12" height="12" fill="white"/>
</clipPath>
</defs>
</svg>
