<svg width="24" height="24" viewBox="0 0 24 24" fill="none" xmlns="http://www.w3.org/2000/svg">
<path fill-rule="evenodd" clip-rule="evenodd" d="M3.75 7C3.75 5.20507 5.20507 3.75 7 3.75H17C18.7949 3.75 20.25 5.20507 20.25 7V17C20.25 18.7949 18.7949 20.25 17 20.25H7C5.20507 20.25 3.75 18.7949 3.75 17V7ZM12.5303 7.46967C12.2374 7.17678 11.7626 7.17678 11.4697 7.46967L7.46967 11.4697C7.17678 11.7626 7.17678 12.2374 7.46967 12.5303C7.76256 12.8232 8.23744 12.8232 8.53033 12.5303L11.25 9.81066V16C11.25 16.4142 11.5858 16.75 12 16.75C12.4142 16.75 12.75 16.4142 12.75 16V9.81066L15.4697 12.5303C15.7626 12.8232 16.2374 12.8232 16.5303 12.5303C16.8232 12.2374 16.8232 11.7626 16.5303 11.4697L12.5303 7.46967Z" fill="#FEC84B"/>
<path fill-rule="evenodd" clip-rule="evenodd" d="M7 3.75C5.20507 3.75 3.75 5.20507 3.75 7V17C3.75 18.7949 5.20507 20.25 7 20.25H17C18.7949 20.25 20.25 18.7949 20.25 17V7C20.25 5.20507 18.7949 3.75 17 3.75H7ZM2.25 7C2.25 4.37665 4.37665 2.25 7 2.25H17C19.6234 2.25 21.75 4.37665 21.75 7V17C21.75 19.6234 19.6234 21.75 17 21.75H7C4.37665 21.75 2.25 19.6234 2.25 17V7ZM11.4697 7.46967C11.7626 7.17678 12.2374 7.17678 12.5303 7.46967L16.5303 11.4697C16.8232 11.7626 16.8232 12.2374 16.5303 12.5303C16.2374 12.8232 15.7626 12.8232 15.4697 12.5303L12.75 9.81066V16C12.75 16.4142 12.4142 16.75 12 16.75C11.5858 16.75 11.25 16.4142 11.25 16V9.81066L8.53033 12.5303C8.23744 12.8232 7.76256 12.8232 7.46967 12.5303C7.17678 12.2374 7.17678 11.7626 7.46967 11.4697L11.4697 7.46967Z" fill="#2B2E39"/>
</svg>
