<svg width="24" height="24" viewBox="0 0 24 24" fill="none" xmlns="http://www.w3.org/2000/svg">
<path d="M12.0002 1.25C10.21 1.25 8.49313 1.96116 7.22726 3.22703C5.96139 4.4929 5.25023 6.20979 5.25023 8C5.25023 10.9571 4.50635 12.9344 3.71311 14.2092L3.70402 14.2238C3.34439 14.8017 3.06372 15.2528 2.87543 15.5795C2.78112 15.7431 2.69902 15.8943 2.63974 16.0248C2.61014 16.09 2.57916 16.1653 2.55554 16.2446C2.53552 16.3119 2.50115 16.4441 2.51406 16.6019C2.52431 16.7273 2.54858 16.9183 2.65666 17.1129C2.76475 17.3075 2.91414 17.429 3.01518 17.5039C3.21418 17.6516 3.44919 17.6868 3.54096 17.7004C3.67487 17.7202 3.83148 17.7307 3.9975 17.7371C4.32778 17.75 4.78795 17.75 5.36984 17.75H18.6307C19.2126 17.75 19.6727 17.75 20.003 17.7371C20.169 17.7307 20.3256 17.7202 20.4595 17.7004C20.5513 17.6868 20.7863 17.6516 20.9853 17.5039C21.0863 17.429 21.2357 17.3075 21.3438 17.1129C21.4519 16.9183 21.4762 16.7273 21.4864 16.6019C21.4993 16.4441 21.465 16.3119 21.4449 16.2446C21.4213 16.1653 21.3903 16.09 21.3607 16.0248C21.3015 15.8943 21.2194 15.7431 21.125 15.5795C20.9368 15.2529 20.6558 14.8014 20.2965 14.2238L20.2874 14.2092C19.4941 12.9344 18.7502 10.9571 18.7502 8C18.7502 6.20979 18.0391 4.4929 16.7732 3.22703C15.5073 1.96116 13.7904 1.25 12.0002 1.25Z" fill="#FDB022"/>
<path d="M10.0162 20.2503C9.60217 19.8848 8.97023 19.9242 8.60476 20.3383C8.2393 20.7523 8.2787 21.3843 8.69277 21.7498C9.57358 22.5272 10.733 23 12.0003 23C13.2677 23 14.4271 22.5272 15.3079 21.7498C15.722 21.3843 15.7614 20.7523 15.3959 20.3383C15.0304 19.9242 14.3985 19.8848 13.9844 20.2503C13.455 20.7176 12.7618 21 12.0003 21C11.2388 21 10.5457 20.7176 10.0162 20.2503Z" fill="#FDB022"/>
</svg>
