<svg width="24" height="24" viewBox="0 0 24 24" fill="none" xmlns="http://www.w3.org/2000/svg">
<g clip-path="url(#clip0_3280_14501)">
<path fill-rule="evenodd" clip-rule="evenodd" d="M6.50021 8C6.50021 4.96243 8.96264 2.5 12.0002 2.5C15.0378 2.5 17.5002 4.96243 17.5002 8C17.5002 11.0376 15.0378 13.5 12.0002 13.5C8.96264 13.5 6.50021 11.0376 6.50021 8Z" fill="#393D48"/>
<path fill-rule="evenodd" clip-rule="evenodd" d="M3.71388 19.8822C5.80566 17.2198 8.71733 15.5 12.0002 15.5C15.2831 15.5 18.1947 17.2198 20.2865 19.8822C20.523 20.1832 20.5669 20.5928 20.3996 20.9371C20.2323 21.2814 19.883 21.5 19.5002 21.5H4.50021C4.11739 21.5 3.76816 21.2814 3.60081 20.9371C3.43347 20.5928 3.47737 20.1832 3.71388 19.8822Z" fill="#393D48"/>
<path fill-rule="evenodd" clip-rule="evenodd" d="M18.0787 5.51639C18.2631 5.14546 18.7132 4.99419 19.0841 5.17853C20.4406 5.85261 21.3754 7.25363 21.3754 8.87435C21.3754 10.4951 20.4406 11.8961 19.0841 12.5702C18.7132 12.7545 18.2631 12.6032 18.0787 12.2323C17.8944 11.8614 18.0457 11.4112 18.4166 11.2269C19.2827 10.7964 19.8754 9.90392 19.8754 8.87435C19.8754 7.84478 19.2827 6.95224 18.4166 6.5218C18.0457 6.33746 17.8944 5.88733 18.0787 5.51639Z" fill="#393D48"/>
<path fill-rule="evenodd" clip-rule="evenodd" d="M19.5671 15.5149C19.7378 15.1376 20.1822 14.9701 20.5596 15.1408C21.818 15.7103 22.9309 16.6288 23.8401 17.786C24.096 18.1117 24.0394 18.5832 23.7137 18.8391C23.388 19.095 22.9165 19.0384 22.6606 18.7127C21.8786 17.7174 20.9499 16.9639 19.9412 16.5074C19.5638 16.3367 19.3963 15.8923 19.5671 15.5149Z" fill="#393D48"/>
<path fill-rule="evenodd" clip-rule="evenodd" d="M5.92167 5.51639C5.73733 5.14546 5.28719 4.99419 4.91626 5.17853C3.55983 5.85261 2.62503 7.25363 2.62503 8.87435C2.62503 10.4951 3.55983 11.8961 4.91626 12.5702C5.28719 12.7545 5.73733 12.6032 5.92167 12.2323C6.10601 11.8614 5.95474 11.4112 5.58381 11.2269C4.71765 10.7964 4.12503 9.90392 4.12503 8.87435C4.12503 7.84478 4.71765 6.95224 5.58381 6.5218C5.95474 6.33746 6.10601 5.88733 5.92167 5.51639Z" fill="#393D48"/>
<path fill-rule="evenodd" clip-rule="evenodd" d="M4.43333 15.5149C4.26256 15.1376 3.81821 14.9701 3.44083 15.1408C2.18239 15.7103 1.06948 16.6288 0.160287 17.786C-0.0956186 18.1117 -0.0390337 18.5832 0.286674 18.8391C0.612381 19.095 1.08387 19.0384 1.33978 18.7127C2.1218 17.7174 3.05049 16.9639 4.05923 16.5074C4.43661 16.3367 4.6041 15.8923 4.43333 15.5149Z" fill="#393D48"/>
</g>
<defs>
<clipPath id="clip0_3280_14501">
<rect width="24" height="24" fill="white"/>
</clipPath>
</defs>
</svg>
