<svg width="24" height="24" viewBox="0 0 24 24" fill="none" xmlns="http://www.w3.org/2000/svg">
<g clip-path="url(#clip0_3280_14501)">
<path fill-rule="evenodd" clip-rule="evenodd" d="M6.49996 8C6.49996 4.96243 8.9624 2.5 12 2.5C15.0375 2.5 17.5 4.96243 17.5 8C17.5 11.0376 15.0375 13.5 12 13.5C8.9624 13.5 6.49996 11.0376 6.49996 8Z" fill="#393D48"/>
<path fill-rule="evenodd" clip-rule="evenodd" d="M3.71363 19.8822C5.80542 17.2198 8.71709 15.5 12 15.5C15.2828 15.5 18.1945 17.2198 20.2863 19.8822C20.5228 20.1832 20.5667 20.5928 20.3994 20.9371C20.232 21.2814 19.8828 21.5 19.5 21.5H4.49996C4.11714 21.5 3.76792 21.2814 3.60057 20.9371C3.43322 20.5928 3.47712 20.1832 3.71363 19.8822Z" fill="#393D48"/>
<path fill-rule="evenodd" clip-rule="evenodd" d="M18.0785 5.51639C18.2628 5.14546 18.713 4.99419 19.0839 5.17853C20.4403 5.85261 21.3751 7.25363 21.3751 8.87435C21.3751 10.4951 20.4403 11.8961 19.0839 12.5702C18.713 12.7545 18.2628 12.6032 18.0785 12.2323C17.8941 11.8614 18.0454 11.4112 18.4163 11.2269C19.2825 10.7964 19.8751 9.90392 19.8751 8.87435C19.8751 7.84478 19.2825 6.95224 18.4163 6.5218C18.0454 6.33746 17.8941 5.88733 18.0785 5.51639Z" fill="#393D48"/>
<path fill-rule="evenodd" clip-rule="evenodd" d="M19.5668 15.5149C19.7376 15.1376 20.1819 14.9701 20.5593 15.1408C21.8178 15.7103 22.9307 16.6288 23.8399 17.786C24.0958 18.1117 24.0392 18.5832 23.7135 18.8391C23.3878 19.095 22.9163 19.0384 22.6604 18.7127C21.8783 17.7174 20.9497 16.9639 19.9409 16.5074C19.5635 16.3367 19.3961 15.8923 19.5668 15.5149Z" fill="#393D48"/>
<path fill-rule="evenodd" clip-rule="evenodd" d="M5.92142 5.51639C5.73708 5.14546 5.28695 4.99419 4.91601 5.17853C3.55959 5.85261 2.62479 7.25363 2.62479 8.87435C2.62479 10.4951 3.55959 11.8961 4.91601 12.5702C5.28695 12.7545 5.73708 12.6032 5.92142 12.2323C6.10576 11.8614 5.9545 11.4112 5.58356 11.2269C4.71741 10.7964 4.12479 9.90392 4.12479 8.87435C4.12479 7.84478 4.71741 6.95224 5.58356 6.5218C5.9545 6.33746 6.10576 5.88733 5.92142 5.51639Z" fill="#393D48"/>
<path fill-rule="evenodd" clip-rule="evenodd" d="M4.43309 15.5149C4.26232 15.1376 3.81796 14.9701 3.44059 15.1408C2.18215 15.7103 1.06924 16.6288 0.160043 17.786C-0.0958627 18.1117 -0.0392779 18.5832 0.28643 18.8391C0.612137 19.095 1.08363 19.0384 1.33953 18.7127C2.12156 17.7174 3.05024 16.9639 4.05899 16.5074C4.43636 16.3367 4.60385 15.8923 4.43309 15.5149Z" fill="#393D48"/>
</g>
<defs>
<clipPath id="clip0_3280_14501">
<rect width="24" height="24" fill="white"/>
</clipPath>
</defs>
</svg>
