<svg width="18" height="18" viewBox="0 0 18 18" fill="none" xmlns="http://www.w3.org/2000/svg">
<g clip-path="url(#clip0_3605_611083)">
<path fill-rule="evenodd" clip-rule="evenodd" d="M9 2.25C5.27208 2.25 2.25 5.27208 2.25 9C2.25 10.9757 3.09884 12.7532 4.45173 13.9876L10.6381 7.80128C10.7719 7.66742 10.9022 7.53705 11.0216 7.43568C11.1528 7.32436 11.3192 7.20468 11.5365 7.13408C11.8377 7.03619 12.1623 7.03619 12.4635 7.13408C12.6808 7.20468 12.8472 7.32436 12.9784 7.43568C13.0978 7.53705 13.2281 7.66741 13.3619 7.80126L15.6608 10.1001C15.7195 9.74212 15.75 9.37462 15.75 9C15.75 5.27208 12.7279 2.25 9 2.25ZM15.1734 11.734L12.3182 8.87886C12.1609 8.7216 12.0745 8.63597 12.0076 8.57919C12.0049 8.57693 12.0024 8.5748 12 8.5728C11.9976 8.5748 11.9951 8.57693 11.9924 8.57919C11.9255 8.63597 11.8391 8.7216 11.6818 8.87886L5.68142 14.8792C6.6614 15.4336 7.79375 15.75 9 15.75C11.7547 15.75 14.1241 14.0998 15.1734 11.734ZM4.05734 15.6061C5.43492 16.6385 7.14605 17.25 9 17.25C13.5563 17.25 17.25 13.5563 17.25 9C17.25 4.44365 13.5563 0.75 9 0.75C4.44365 0.75 0.75 4.44365 0.75 9C0.75 11.6958 2.04298 14.0896 4.04261 15.595C4.04749 15.5988 4.0524 15.6025 4.05734 15.6061ZM6.375 5.625C5.96079 5.625 5.625 5.96079 5.625 6.375C5.625 6.78921 5.96079 7.125 6.375 7.125C6.78921 7.125 7.125 6.78921 7.125 6.375C7.125 5.96079 6.78921 5.625 6.375 5.625ZM4.125 6.375C4.125 5.13236 5.13236 4.125 6.375 4.125C7.61764 4.125 8.625 5.13236 8.625 6.375C8.625 7.61764 7.61764 8.625 6.375 8.625C5.13236 8.625 4.125 7.61764 4.125 6.375Z" fill="#B1B3BB"/>
</g>
<defs>
<clipPath id="clip0_3605_611083">
<rect width="18" height="18" fill="white"/>
</clipPath>
</defs>
</svg>
