<svg width="18" height="18" viewBox="0 0 18 18" fill="none" xmlns="http://www.w3.org/2000/svg">
<g clip-path="url(#clip0_4808_216560)">
<path fill-rule="evenodd" clip-rule="evenodd" d="M0.75 9C0.75 4.44365 4.44365 0.75 9 0.75C13.5563 0.75 17.25 4.44365 17.25 9C17.25 13.5563 13.5563 17.25 9 17.25C4.44365 17.25 0.75 13.5563 0.75 9ZM11.1178 11.892H11.1658V13.188H12.5338V8.62803H9.36582V9.96003H11.0098V10.5C11.0098 10.74 10.9618 10.948 10.8658 11.124C10.7698 11.3 10.6418 11.448 10.4818 11.568C10.3218 11.688 10.1338 11.78 9.91782 11.844C9.70182 11.9 9.46982 11.928 9.22182 11.928C8.58982 11.928 8.08582 11.736 7.70982 11.352C7.33382 10.968 7.14582 10.408 7.14582 9.67203V8.32803C7.14582 7.58403 7.32982 7.02403 7.69782 6.64803C8.07382 6.26403 8.57382 6.07203 9.19782 6.07203C9.70182 6.07203 10.1018 6.19203 10.3978 6.43203C10.7018 6.67203 10.9298 6.97203 11.0818 7.33203L12.3658 6.57603C12.0618 5.96003 11.6458 5.48803 11.1178 5.16003C10.5898 4.83203 9.94982 4.66803 9.19782 4.66803C8.63782 4.66803 8.12982 4.76403 7.67382 4.95603C7.21782 5.14803 6.82582 5.42803 6.49782 5.79603C6.16982 6.16403 5.91382 6.62003 5.72982 7.16403C5.55382 7.70003 5.46582 8.32003 5.46582 9.02403C5.46582 9.72803 5.55382 10.348 5.72982 10.884C5.90582 11.42 6.14582 11.872 6.44982 12.24C6.76182 12.6 7.12582 12.872 7.54182 13.056C7.96582 13.24 8.42582 13.332 8.92182 13.332C9.55382 13.332 10.0578 13.196 10.4338 12.924C10.8178 12.644 11.0458 12.3 11.1178 11.892Z" fill="#A57E29"/>
<path d="M11.1658 11.892H11.1178C11.0458 12.3 10.8178 12.644 10.4338 12.924C10.0578 13.196 9.55382 13.332 8.92182 13.332C8.42582 13.332 7.96582 13.24 7.54182 13.056C7.12582 12.872 6.76182 12.6 6.44982 12.24C6.14582 11.872 5.90582 11.42 5.72982 10.884C5.55382 10.348 5.46582 9.72803 5.46582 9.02403C5.46582 8.32003 5.55382 7.70003 5.72982 7.16403C5.91382 6.62003 6.16982 6.16403 6.49782 5.79603C6.82582 5.42803 7.21782 5.14803 7.67382 4.95603C8.12982 4.76403 8.63782 4.66803 9.19782 4.66803C9.94982 4.66803 10.5898 4.83203 11.1178 5.16003C11.6458 5.48803 12.0618 5.96003 12.3658 6.57603L11.0818 7.33203C10.9298 6.97203 10.7018 6.67203 10.3978 6.43203C10.1018 6.19203 9.70182 6.07203 9.19782 6.07203C8.57382 6.07203 8.07382 6.26403 7.69782 6.64803C7.32982 7.02403 7.14582 7.58403 7.14582 8.32803V9.67203C7.14582 10.408 7.33382 10.968 7.70982 11.352C8.08582 11.736 8.58982 11.928 9.22182 11.928C9.46982 11.928 9.70182 11.9 9.91782 11.844C10.1338 11.78 10.3218 11.688 10.4818 11.568C10.6418 11.448 10.7698 11.3 10.8658 11.124C10.9618 10.948 11.0098 10.74 11.0098 10.5V9.96003H9.36582V8.62803H12.5338V13.188H11.1658V11.892Z" fill="#E0D9B1"/>
</g>
<defs>
<clipPath id="clip0_4808_216560">
<rect width="18" height="18" fill="white"/>
</clipPath>
</defs>
</svg>
