<svg width="12" height="12" viewBox="0 0 12 12" fill="none" xmlns="http://www.w3.org/2000/svg">
<g clip-path="url(#clip0_4808_216559)">
<path fill-rule="evenodd" clip-rule="evenodd" d="M10.8534 1.1466C10.1059 0.399051 8.89389 0.39905 8.14634 1.1466L2.48805 6.80487C2.37129 6.92158 2.28296 7.00986 2.20556 7.1096C2.13715 7.19776 2.07624 7.29149 2.02346 7.38982C1.96375 7.50105 1.91895 7.61762 1.85972 7.77173L1.85038 7.79603L1.84588 7.80818C1.83629 7.83263 1.82693 7.85701 1.81781 7.88074L1.81227 7.89514C1.81088 7.89877 1.80953 7.9024 1.80822 7.90604L0.783342 10.5707C0.712409 10.7551 0.75674 10.964 0.89646 11.1037C1.03618 11.2435 1.24508 11.2878 1.4295 11.2169L4.10504 10.1878C4.10769 10.1868 4.11032 10.1857 4.11295 10.1847L4.11927 10.1823C4.14318 10.1731 4.16776 10.1636 4.1924 10.154L4.20401 10.1497L4.2283 10.1403C4.38239 10.0811 4.49899 10.0363 4.61022 9.97658C4.70854 9.9238 4.80227 9.86289 4.89043 9.79447C4.99017 9.71708 5.07845 9.62875 5.19516 9.51199L10.8534 3.85371C11.601 3.10616 11.601 1.89415 10.8534 1.1466ZM3.60236 9.30973L2.69048 8.39784L2.12054 9.87966L3.60236 9.30973ZM3.20676 7.50039C3.23088 7.524 3.25474 7.54787 3.2778 7.57094L4.4291 8.72224C4.45217 8.7453 4.47604 8.76916 4.49965 8.79328L10.1463 3.1466C10.5034 2.78958 10.5034 2.21073 10.1463 1.8537C9.78932 1.49668 9.21047 1.49668 8.85345 1.8537L3.20676 7.50039Z" fill="#393D48"/>
<path d="M6.4999 10.0002C6.22375 10.0002 5.9999 10.224 5.9999 10.5002C5.9999 10.7763 6.22375 11.0002 6.4999 11.0002H10.4999C10.776 11.0002 10.9999 10.7763 10.9999 10.5002C10.9999 10.224 10.776 10.0002 10.4999 10.0002H6.4999Z" fill="#393D48"/>
</g>
<defs>
<clipPath id="clip0_4808_216559">
<rect width="12" height="12" fill="white"/>
</clipPath>
</defs>
</svg>
