<svg width="12" height="12" viewBox="0 0 12 12" fill="none" xmlns="http://www.w3.org/2000/svg">
<g clip-path="url(#clip0_4825_531911)">
<path fill-rule="evenodd" clip-rule="evenodd" d="M6 0.5C6.27614 0.5 6.5 0.723858 6.5 1V1.52746C8.58581 1.75804 10.242 3.41419 10.4725 5.5H11C11.2761 5.5 11.5 5.72386 11.5 6C11.5 6.27614 11.2761 6.5 11 6.5H10.4725C10.242 8.58581 8.58581 10.242 6.5 10.4725V11C6.5 11.2761 6.27614 11.5 6 11.5C5.72386 11.5 5.5 11.2761 5.5 11V10.4725C3.41419 10.242 1.75804 8.58581 1.52746 6.5H1C0.723858 6.5 0.5 6.27614 0.5 6C0.5 5.72386 0.723858 5.5 1 5.5H1.52746C1.75804 3.41419 3.41419 1.75804 5.5 1.52746V1C5.5 0.723858 5.72386 0.5 6 0.5ZM5.5 2.53544C3.96715 2.7547 2.7547 3.96715 2.53544 5.5H3C3.27614 5.5 3.5 5.72386 3.5 6C3.5 6.27614 3.27614 6.5 3 6.5H2.53544C2.7547 8.03285 3.96715 9.2453 5.5 9.46456V9C5.5 8.72386 5.72386 8.5 6 8.5C6.27614 8.5 6.5 8.72386 6.5 9V9.46456C8.03285 9.2453 9.2453 8.03285 9.46456 6.5H9C8.72386 6.5 8.5 6.27614 8.5 6C8.5 5.72386 8.72386 5.5 9 5.5H9.46456C9.2453 3.96715 8.03285 2.7547 6.5 2.53544V3C6.5 3.27614 6.27614 3.5 6 3.5C5.72386 3.5 5.5 3.27614 5.5 3V2.53544ZM6 5C5.44772 5 5 5.44772 5 6C5 6.55228 5.44772 7 6 7C6.55228 7 7 6.55228 7 6C7 5.44772 6.55228 5 6 5ZM4 6C4 4.89543 4.89543 4 6 4C7.10457 4 8 4.89543 8 6C8 7.10457 7.10457 8 6 8C4.89543 8 4 7.10457 4 6Z" fill="#E0E2E6"/>
</g>
<defs>
<clipPath id="clip0_4825_531911">
<rect width="12" height="12" fill="white"/>
</clipPath>
</defs>
</svg>
