<svg width="12" height="12" viewBox="0 0 12 12" fill="none" xmlns="http://www.w3.org/2000/svg">
<path d="M1.5 1C1.77614 1 2 1.22386 2 1.5V9.7C2 9.84826 2.00039 9.92939 2.00515 9.98768L2.00573 9.99427L2.01232 9.99485C2.07061 9.99961 2.15174 10 2.3 10H10.5C10.7761 10 11 10.2239 11 10.5C11 10.7761 10.7761 11 10.5 11L2.28408 11C2.15789 11 2.03496 11 1.93089 10.9915C1.81659 10.9822 1.68172 10.9602 1.54601 10.891C1.35785 10.7951 1.20487 10.6421 1.109 10.454C1.03985 10.3183 1.01781 10.1834 1.00848 10.0691C0.999972 9.96503 0.999986 9.84214 1 9.71595L1 1.5C1 1.22386 1.22386 1 1.5 1Z" fill="#393D48"/>
<path d="M10 4.70711V5.5C10 5.77614 10.2239 6 10.5 6C10.7761 6 11 5.77614 11 5.5V3.5C11 3.22386 10.7761 3 10.5 3H8.5C8.22386 3 8 3.22386 8 3.5C8 3.77614 8.22386 4 8.5 4H9.29289L7.5 5.79289L6.62821 4.9211C6.58612 4.87897 6.53584 4.82866 6.48792 4.78797C6.43238 4.74083 6.34808 4.67805 6.23176 4.64026C6.08113 4.59132 5.91887 4.59132 5.76824 4.64026C5.65192 4.67805 5.56762 4.74083 5.51208 4.78797C5.46416 4.82866 5.41388 4.87897 5.37178 4.9211L3.14645 7.14644C2.95118 7.34171 2.95118 7.65829 3.14645 7.85355C3.34171 8.04881 3.65829 8.04881 3.85355 7.85355L6 5.70711L6.87178 6.57889C6.91388 6.62102 6.96416 6.67134 7.01208 6.71202C7.06762 6.75917 7.15192 6.82194 7.26824 6.85974C7.41887 6.90868 7.58113 6.90868 7.73176 6.85974C7.84808 6.82194 7.93238 6.75917 7.98791 6.71202C8.03583 6.67134 8.0861 6.62104 8.12819 6.57892L10 4.70711Z" fill="#393D48"/>
</svg>
