<svg width="24" height="24" viewBox="0 0 24 24" fill="none" xmlns="http://www.w3.org/2000/svg">
<path fill-rule="evenodd" clip-rule="evenodd" d="M9.7679 2.25H14.2321C15.0449 2.24999 15.7006 2.24999 16.2315 2.29336C16.7781 2.33803 17.2582 2.43239 17.7025 2.65873C18.4081 3.01825 18.9817 3.59193 19.3413 4.29754C19.5676 4.74176 19.662 5.2219 19.7066 5.76853C19.75 6.29944 19.75 6.95505 19.75 7.76788V21C19.75 21.2674 19.6077 21.5145 19.3764 21.6487C19.1452 21.7829 18.86 21.7838 18.6279 21.6512L12 17.8638L5.37211 21.6512C5.13998 21.7838 4.85479 21.7829 4.62356 21.6487C4.39232 21.5145 4.25 21.2674 4.25 21V7.76788C4.24999 6.95505 4.24999 6.29943 4.29336 5.76853C4.33803 5.2219 4.43239 4.74176 4.65873 4.29754C5.01825 3.59193 5.59193 3.01825 6.29754 2.65873C6.74176 2.43239 7.2219 2.33803 7.76853 2.29336C8.29944 2.24999 8.95506 2.24999 9.7679 2.25ZM16.2071 8.70711C16.5976 8.31658 16.5976 7.68342 16.2071 7.29289C15.8166 6.90237 15.1834 6.90237 14.7929 7.29289L11 11.0858L9.70711 9.79289C9.31658 9.40237 8.68342 9.40237 8.29289 9.79289C7.90237 10.1834 7.90237 10.8166 8.29289 11.2071L10.2929 13.2071C10.6834 13.5976 11.3166 13.5976 11.7071 13.2071L16.2071 8.70711Z" fill="#FEC84B"/>
</svg>
