<svg width="24" height="24" viewBox="0 0 24 24" fill="none" xmlns="http://www.w3.org/2000/svg">
<path d="M11.1599 17.7121C11.4639 17.8294 11.8052 17.8881 12.1839 17.8881C12.7012 17.8881 13.1279 17.7734 13.4639 17.5441C13.8052 17.3094 14.0799 16.9787 14.2879 16.5521L13.2959 15.9761C13.2106 16.2054 13.0772 16.4027 12.8959 16.5681C12.7199 16.7281 12.4826 16.8081 12.1839 16.8081C11.8266 16.8081 11.5386 16.6934 11.3199 16.4641C11.1066 16.2294 10.9999 15.8907 10.9999 15.4481V14.5521C10.9999 14.1094 11.1066 13.7734 11.3199 13.5441C11.5386 13.3094 11.8266 13.1921 12.1839 13.1921C12.4879 13.1921 12.7172 13.2641 12.8719 13.4081C13.0319 13.5467 13.1492 13.7334 13.2239 13.9681L14.2719 13.4241C14.0692 12.9707 13.7999 12.6401 13.4639 12.4321C13.1279 12.2187 12.7012 12.1121 12.1839 12.1121C11.8052 12.1121 11.4639 12.1761 11.1599 12.3041C10.8559 12.4321 10.5972 12.6214 10.3839 12.8721C10.1706 13.1174 10.0052 13.4241 9.88791 13.7921C9.77058 14.1547 9.71191 14.5707 9.71191 15.0401C9.71191 15.5147 9.77058 15.9307 9.88791 16.2881C10.0052 16.6401 10.1706 16.9361 10.3839 17.1761C10.5972 17.4107 10.8559 17.5894 11.1599 17.7121Z" fill="#D3D4D9"/>
<path fill-rule="evenodd" clip-rule="evenodd" d="M22.75 16.5V7.50042C22.75 6.70675 22.1188 6.13623 21.5462 5.76809C20.9169 5.36349 20.0617 5.01094 19.0906 4.71951C17.1394 4.13399 14.5662 3.75 12 3.75C9.43386 3.75 6.86068 4.13377 4.90949 4.71913C3.93833 5.01048 3.08317 5.36296 2.45381 5.76755C1.88111 6.13572 1.25 6.70626 1.25 7.5V16.5C1.25 17.2937 1.88111 17.8643 2.45381 18.2324C3.08317 18.637 3.93833 18.9895 4.90949 19.2809C6.86068 19.8662 9.43386 20.25 12 20.25C14.5661 20.25 17.1393 19.8662 19.0905 19.2809C20.0617 18.9895 20.9168 18.637 21.5462 18.2324C22.1189 17.8643 22.75 17.2937 22.75 16.5ZM2.75 16.4963V9.40999C3.34073 9.7409 4.08309 10.0331 4.90945 10.2811C6.86065 10.8665 9.43384 11.2504 12 11.2504C14.5661 11.2502 17.1393 10.8663 19.0905 10.281C19.9169 10.0331 20.6593 9.7409 21.25 9.41007V16.4962L21.2497 16.4935C21.2497 16.4935 21.2487 16.495 21.2473 16.4982C21.2343 16.5277 21.16 16.6975 20.7351 16.9707C20.2707 17.2692 19.5633 17.573 18.6595 17.8441C16.8607 18.3838 14.4339 18.75 12 18.75C9.56614 18.75 7.13932 18.3838 5.34051 17.8441C4.43667 17.573 3.72933 17.2692 3.26494 16.9707C2.83998 16.6975 2.76568 16.5277 2.75272 16.4982C2.75134 16.495 2.75032 16.4935 2.75032 16.4935L2.75 16.4963ZM20.7351 7.97083C21.1516 7.70311 21.2313 7.53478 21.2464 7.50041C21.2313 7.46603 21.1516 7.29765 20.735 7.02984C20.2706 6.73128 19.5633 6.42745 18.6594 6.15622C16.8606 5.61643 14.4338 5.25 12 5.25C9.56614 5.25 7.13932 5.61623 5.34051 6.15587C4.43667 6.42702 3.72933 6.73079 3.26494 7.02932C2.84809 7.2973 2.76864 7.46574 2.75353 7.5C2.76864 7.53427 2.84809 7.70274 3.26498 7.97076C3.72937 8.26933 4.43672 8.57315 5.34055 8.84435C7.13934 9.38409 9.56612 9.75041 11.9999 9.75042C14.4338 9.75021 16.8607 9.38388 18.6595 8.84423C19.5633 8.57308 20.2707 8.26933 20.7351 7.97083Z" fill="#D3D4D9"/>
</svg>
