<svg width="24" height="24" viewBox="0 0 24 24" fill="none" xmlns="http://www.w3.org/2000/svg">
<path d="M22 7.50042C22 9 17 10.5 12 10.5004C7 10.5004 2 9 2 7.5M22 7.50042C22 6.00084 17 4.5 12 4.5C7 4.5 2 6 2 7.5M22 7.50042V16.5C22 18 17 19.5 12 19.5C7 19.5 2 18 2 16.5V7.5" stroke="#525461" stroke-width="1.5" stroke-linecap="round" stroke-linejoin="round"/>
<path d="M12.1839 17.8881C11.8052 17.8881 11.4639 17.8294 11.1599 17.7121C10.8559 17.5894 10.5972 17.4107 10.3839 17.1761C10.1706 16.9361 10.0052 16.6401 9.88791 16.2881C9.77058 15.9307 9.71191 15.5147 9.71191 15.0401C9.71191 14.5707 9.77058 14.1547 9.88791 13.7921C10.0052 13.4241 10.1706 13.1174 10.3839 12.8721C10.5972 12.6214 10.8559 12.4321 11.1599 12.3041C11.4639 12.1761 11.8052 12.1121 12.1839 12.1121C12.7012 12.1121 13.1279 12.2187 13.4639 12.4321C13.7999 12.6401 14.0692 12.9707 14.2719 13.4241L13.2239 13.9681C13.1492 13.7334 13.0319 13.5467 12.8719 13.4081C12.7172 13.2641 12.4879 13.1921 12.1839 13.1921C11.8266 13.1921 11.5386 13.3094 11.3199 13.5441C11.1066 13.7734 10.9999 14.1094 10.9999 14.5521V15.4481C10.9999 15.8907 11.1066 16.2294 11.3199 16.4641C11.5386 16.6934 11.8266 16.8081 12.1839 16.8081C12.4826 16.8081 12.7199 16.7281 12.8959 16.5681C13.0772 16.4027 13.2106 16.2054 13.2959 15.9761L14.2879 16.5521C14.0799 16.9787 13.8052 17.3094 13.4639 17.5441C13.1279 17.7734 12.7012 17.8881 12.1839 17.8881Z" fill="#525461"/>
</svg>
