<svg width="18" height="18" viewBox="0 0 18 18" fill="none" xmlns="http://www.w3.org/2000/svg">
<path fill-rule="evenodd" clip-rule="evenodd" d="M1.5 4.25C1.5 2.73122 2.73122 1.5 4.25 1.5H13.75C15.2688 1.5 16.5 2.73122 16.5 4.25V13.75C16.5 15.2688 15.2688 16.5 13.75 16.5H4.25C2.73122 16.5 1.5 15.2688 1.5 13.75V4.25ZM12.9053 7.28033C13.1982 6.98744 13.1982 6.51256 12.9053 6.21967C12.6124 5.92678 12.1376 5.92678 11.8447 6.21967L7.875 10.1893L6.15533 8.46967C5.86244 8.17678 5.38756 8.17678 5.09467 8.46967C4.80178 8.76256 4.80178 9.23744 5.09467 9.53033L7.875 12.3107L12.9053 7.28033Z" fill="#0075F4"/>
</svg>
