<svg width="18" height="18" viewBox="0 0 18 18" fill="none" xmlns="http://www.w3.org/2000/svg">
<path fill-rule="evenodd" clip-rule="evenodd" d="M1.5 4.25C1.5 2.73122 2.73122 1.5 4.25 1.5H13.75C15.2688 1.5 16.5 2.73122 16.5 4.25V13.75C16.5 15.2688 15.2688 16.5 13.75 16.5H4.25C2.73122 16.5 1.5 15.2688 1.5 13.75V4.25ZM4.25 3C3.55964 3 3 3.55964 3 4.25V13.75C3 14.4404 3.55964 15 4.25 15H13.75C14.4404 15 15 14.4404 15 13.75V4.25C15 3.55964 14.4404 3 13.75 3H4.25ZM5.25 9C5.25 8.58579 5.58579 8.25 6 8.25H12C12.4142 8.25 12.75 8.58579 12.75 9C12.75 9.41421 12.4142 9.75 12 9.75H6C5.58579 9.75 5.25 9.41421 5.25 9Z" fill="#F04438"/>
</svg>
