<svg width="24" height="24" viewBox="0 0 24 24" fill="none" xmlns="http://www.w3.org/2000/svg">
<path fill-rule="evenodd" clip-rule="evenodd" d="M21.5305 2.46948C20.1331 1.07202 17.8673 1.07202 16.4699 2.46948L5.15928 13.7801C4.91983 14.0194 4.75392 14.1853 4.60905 14.372C4.48078 14.5373 4.36657 14.713 4.26761 14.8974C4.15585 15.1056 4.07167 15.3245 3.95018 15.6406L3.93451 15.6813C3.93167 15.6887 3.92896 15.6961 3.92638 15.7035C3.90674 15.7535 3.88721 15.8043 3.86773 15.855L3.86384 15.8651C3.86189 15.8699 3.85999 15.8747 3.85813 15.8795L1.80001 21.2306C1.69361 21.5072 1.76011 21.8206 1.96969 22.0301C2.17927 22.2397 2.49262 22.3062 2.76925 22.1998L8.11077 20.1454C8.11401 20.1442 8.11725 20.143 8.12049 20.1417L8.14493 20.1323C8.19578 20.1128 8.24725 20.093 8.29745 20.0733C8.30455 20.0708 8.31163 20.0682 8.31869 20.0655L8.35934 20.0499C8.67539 19.9284 8.89442 19.8442 9.10262 19.7324C9.28697 19.6334 9.46272 19.5192 9.62802 19.391C9.81471 19.2461 9.98057 19.0802 10.22 18.8407L21.5305 7.53015C22.928 6.13268 22.928 3.86695 21.5305 2.46948ZM7.5914 18.7381L7.65379 18.7141L5.28595 16.3462L5.25832 16.418C5.25645 16.4229 5.25453 16.4277 5.25257 16.4325L3.80582 20.194L7.58186 18.7417C7.58504 18.7405 7.58822 18.7393 7.5914 18.7381ZM6.2508 14.8099C6.17227 14.8884 6.10825 14.9526 6.05501 15.0065C6.1595 15.0984 6.27144 15.2103 6.38243 15.3214L8.67866 17.6176C8.78968 17.7286 8.90165 17.8405 8.99349 17.945C9.04744 17.8918 9.11161 17.8277 9.19014 17.7492L20.4699 6.46949C21.2816 5.65781 21.2816 4.34182 20.4699 3.53014C19.6582 2.71847 18.3422 2.71847 17.5305 3.53014L6.2508 14.8099Z" fill="#0059C2"/>
</svg>
