<svg width="18" height="18" viewBox="0 0 18 18" fill="none" xmlns="http://www.w3.org/2000/svg">
<path fill-rule="evenodd" clip-rule="evenodd" d="M5.8191 1.5H12.181C12.7848 1.49999 13.283 1.49998 13.6889 1.53315C14.1105 1.56759 14.498 1.64151 14.862 1.82698C15.4265 2.1146 15.8855 2.57354 16.1731 3.13803C16.3586 3.50203 16.4325 3.88956 16.4669 4.31113C16.5001 4.71702 16.5001 5.21529 16.5001 5.81901V9.93099C16.5001 10.5347 16.5001 11.033 16.4669 11.4389C16.4325 11.8604 16.3586 12.248 16.1731 12.612C15.8855 13.1765 15.4265 13.6354 14.862 13.923C14.498 14.1085 14.1105 14.1824 13.6889 14.2169C13.283 14.25 12.7848 14.25 12.1811 14.25H10.2629C9.7648 14.25 9.61976 14.2535 9.48777 14.2806C9.35537 14.3078 9.22726 14.3527 9.1069 14.4142C8.98691 14.4755 8.87144 14.5634 8.4825 14.8745L6.67265 16.3224C6.53489 16.4327 6.39448 16.545 6.27103 16.6267C6.15295 16.7047 5.92402 16.8444 5.62629 16.8448C5.28368 16.8451 4.95957 16.6894 4.74584 16.4216C4.56009 16.1889 4.52619 15.9229 4.51339 15.7819C4.5 15.6345 4.50004 15.4547 4.50007 15.2782L4.50007 14.2438C4.20621 14.2341 3.95422 14.2096 3.72362 14.1478C2.68834 13.8704 1.8797 13.0617 1.60229 12.0265C1.49947 11.6427 1.49971 11.1997 1.50004 10.6032C1.50005 10.5693 1.50007 10.5349 1.50007 10.5L1.50007 5.81903C1.50006 5.2153 1.50005 4.71703 1.53322 4.31113C1.56766 3.88956 1.64158 3.50203 1.82705 3.13803C2.11467 2.57354 2.57361 2.1146 3.1381 1.82698C3.5021 1.64151 3.88963 1.56759 4.3112 1.53315C4.7171 1.49998 5.21537 1.49999 5.8191 1.5ZM4.43335 3.02816C4.10454 3.05503 3.93639 3.10372 3.81909 3.16349C3.53684 3.3073 3.30737 3.53677 3.16356 3.81902C3.1038 3.93631 3.0551 4.10447 3.02824 4.43328C3.00066 4.77085 3.00007 5.20757 3.00007 5.85V10.5C3.00007 11.2458 3.00651 11.4715 3.05118 11.6382C3.18988 12.1559 3.59421 12.5602 4.11184 12.6989C4.27855 12.7436 4.50431 12.75 5.25007 12.75C5.66429 12.75 6.00007 13.0858 6.00007 13.5V14.9395L7.54546 13.7032C7.56251 13.6896 7.57933 13.6761 7.59594 13.6628C7.9125 13.4094 8.15179 13.2178 8.42447 13.0785C8.66519 12.9555 8.92141 12.8656 9.1862 12.8113C9.48616 12.7497 9.79271 12.7498 10.1982 12.75C10.2195 12.75 10.2411 12.75 10.2629 12.75H12.1501C12.7925 12.75 13.2292 12.7494 13.5668 12.7218C13.8956 12.695 14.0638 12.6463 14.1811 12.5865C14.4633 12.4427 14.6928 12.2132 14.8366 11.931C14.8963 11.8137 14.945 11.6455 14.9719 11.3167C14.9995 10.9792 15.0001 10.5424 15.0001 9.9V5.85C15.0001 5.20757 14.9995 4.77085 14.9719 4.43328C14.945 4.10447 14.8963 3.93631 14.8366 3.81902C14.6928 3.53677 14.4633 3.3073 14.1811 3.16349C14.0638 3.10372 13.8956 3.05503 13.5668 3.02816C13.2292 3.00058 12.7925 3 12.1501 3H5.85007C5.20764 3 4.77092 3.00058 4.43335 3.02816ZM4.50007 6.375C4.50007 5.96079 4.83586 5.625 5.25007 5.625H9.00007C9.41429 5.625 9.75007 5.96079 9.75007 6.375C9.75007 6.78921 9.41429 7.125 9.00007 7.125H5.25007C4.83586 7.125 4.50007 6.78921 4.50007 6.375ZM4.50007 9C4.50007 8.58579 4.83586 8.25 5.25007 8.25H11.2501C11.6643 8.25 12.0001 8.58579 12.0001 9C12.0001 9.41421 11.6643 9.75 11.2501 9.75H5.25007C4.83586 9.75 4.50007 9.41421 4.50007 9Z" fill="#B1B3BB"/>
</svg>
