<svg width="24" height="24" viewBox="0 0 24 24" fill="none" xmlns="http://www.w3.org/2000/svg">
<path fill-rule="evenodd" clip-rule="evenodd" d="M21.5303 2.46948C20.1328 1.07202 17.8671 1.07202 16.4696 2.46948L5.15904 13.7801C4.91959 14.0194 4.75367 14.1853 4.60881 14.372C4.48054 14.5373 4.36632 14.713 4.26736 14.8974C4.15561 15.1056 4.07142 15.3245 3.94993 15.6406L3.93427 15.6813C3.93143 15.6887 3.92872 15.6961 3.92613 15.7035C3.9065 15.7535 3.88696 15.8043 3.86748 15.855L3.85805 15.8795C3.85682 15.8827 3.85561 15.886 3.85442 15.8892L1.80001 21.2306C1.69361 21.5072 1.76011 21.8206 1.96969 22.0301C2.17927 22.2397 2.49262 22.3062 2.76925 22.1998L8.12025 20.1417C8.12182 20.1411 8.12346 20.1405 8.12502 20.1399L8.14469 20.1323C8.19554 20.1128 8.24701 20.093 8.29721 20.0733C8.3043 20.0708 8.31138 20.0682 8.31845 20.0655L8.35909 20.0499C8.67514 19.9284 8.89417 19.8442 9.10238 19.7324C9.28673 19.6334 9.46248 19.5192 9.62778 19.391C9.81447 19.2461 9.98033 19.0802 10.2197 18.8407L21.5303 7.53015C22.9278 6.13268 22.9278 3.86695 21.5303 2.46948ZM7.58186 18.7417L7.65354 18.7141L5.2857 16.3462L5.26169 16.4086C5.26053 16.4117 5.25935 16.4149 5.25815 16.418L3.80582 20.194L7.57712 18.7435C7.57867 18.7429 7.5803 18.7423 7.58186 18.7417ZM6.25055 14.8099C6.17202 14.8884 6.108 14.9526 6.05477 15.0065C6.15925 15.0984 6.27119 15.2103 6.38218 15.3214L8.67841 17.6176C8.78944 17.7286 8.90141 17.8405 8.99325 17.945C9.0472 17.8918 9.11136 17.8277 9.18989 17.7492L20.4696 6.46949C21.2813 5.65781 21.2813 4.34182 20.4696 3.53014C19.658 2.71847 18.342 2.71847 17.5303 3.53014L6.25055 14.8099Z" fill="#F5F5F8"/>
<path d="M13 20.2498C12.5858 20.2498 12.25 20.5856 12.25 20.9998C12.25 21.414 12.5858 21.7498 13 21.7498H21C21.4142 21.7498 21.75 21.414 21.75 20.9998C21.75 20.5856 21.4142 20.2498 21 20.2498H13Z" fill="#F5F5F8"/>
</svg>
