<svg width="18" height="18" viewBox="0 0 18 18" fill="none" xmlns="http://www.w3.org/2000/svg">
<g clip-path="url(#clip0_3119_20313)">
<path d="M9 16.5C13.1421 16.5 16.5 13.1421 16.5 9C16.5 4.85786 13.1421 1.5 9 1.5C4.85786 1.5 1.5 4.85786 1.5 9C1.5 13.1421 4.85786 16.5 9 16.5Z" stroke="#B1B3BB" stroke-width="2" stroke-linecap="round" stroke-linejoin="round"/>
<path d="M9.258 13.332C8.706 13.332 8.206 13.244 7.758 13.068C7.318 12.884 6.938 12.612 6.618 12.252C6.306 11.892 6.066 11.448 5.898 10.92C5.73 10.384 5.646 9.76397 5.646 9.05997C5.646 8.35597 5.73 7.73197 5.898 7.18797C6.066 6.63597 6.306 6.17597 6.618 5.80797C6.938 5.43197 7.318 5.14797 7.758 4.95597C8.206 4.76397 8.706 4.66797 9.258 4.66797C10.01 4.66797 10.634 4.82797 11.13 5.14797C11.626 5.46797 12.022 5.95197 12.318 6.59997L10.962 7.31997C10.842 6.94397 10.646 6.64397 10.374 6.41997C10.102 6.18797 9.73 6.07197 9.258 6.07197C8.666 6.07197 8.194 6.27197 7.842 6.67197C7.498 7.07197 7.326 7.63197 7.326 8.35197V9.67197C7.326 10.4 7.498 10.96 7.842 11.352C8.194 11.736 8.666 11.928 9.258 11.928C9.73 11.928 10.114 11.8 10.41 11.544C10.714 11.288 10.934 10.972 11.07 10.596L12.354 11.352C12.05 11.976 11.646 12.464 11.142 12.816C10.638 13.16 10.01 13.332 9.258 13.332Z" fill="#B1B3BB"/>
</g>
<defs>
<clipPath id="clip0_3119_20313">
<rect width="18" height="18" fill="white"/>
</clipPath>
</defs>
</svg>
