<svg width="18" height="18" viewBox="0 0 18 18" fill="none" xmlns="http://www.w3.org/2000/svg">
<g clip-path="url(#clip0_3605_610995)">
<path d="M7.758 13.068C8.206 13.244 8.706 13.332 9.258 13.332C10.01 13.332 10.638 13.16 11.142 12.816C11.646 12.464 12.05 11.976 12.354 11.352L11.07 10.596C10.934 10.972 10.714 11.288 10.41 11.544C10.114 11.8 9.73 11.928 9.258 11.928C8.666 11.928 8.194 11.736 7.842 11.352C7.498 10.96 7.326 10.4 7.326 9.67197V8.35197C7.326 7.63197 7.498 7.07197 7.842 6.67197C8.194 6.27197 8.666 6.07197 9.258 6.07197C9.73 6.07197 10.102 6.18797 10.374 6.41997C10.646 6.64397 10.842 6.94397 10.962 7.31997L12.318 6.59997C12.022 5.95197 11.626 5.46797 11.13 5.14797C10.634 4.82797 10.01 4.66797 9.258 4.66797C8.706 4.66797 8.206 4.76397 7.758 4.95597C7.318 5.14797 6.938 5.43197 6.618 5.80797C6.306 6.17597 6.066 6.63597 5.898 7.18797C5.73 7.73197 5.646 8.35597 5.646 9.05997C5.646 9.76397 5.73 10.384 5.898 10.92C6.066 11.448 6.306 11.892 6.618 12.252C6.938 12.612 7.318 12.884 7.758 13.068Z" fill="#7B7D8A"/>
<path fill-rule="evenodd" clip-rule="evenodd" d="M9 0.5C4.30558 0.5 0.5 4.30558 0.5 9C0.5 13.6944 4.30558 17.5 9 17.5C13.6944 17.5 17.5 13.6944 17.5 9C17.5 4.30558 13.6944 0.5 9 0.5ZM2.5 9C2.5 5.41015 5.41015 2.5 9 2.5C12.5899 2.5 15.5 5.41015 15.5 9C15.5 12.5899 12.5899 15.5 9 15.5C5.41015 15.5 2.5 12.5899 2.5 9Z" fill="#7B7D8A"/>
</g>
<defs>
<clipPath id="clip0_3605_610995">
<rect width="18" height="18" fill="white"/>
</clipPath>
</defs>
</svg>
