<svg width="12" height="12" viewBox="0 0 12 12" fill="none" xmlns="http://www.w3.org/2000/svg">
<g clip-path="url(#clip0_5043_47656)">
<path d="M4.53347 1.20604C4.6192 1.01646 4.57857 0.79359 4.43144 0.646461C4.28431 0.499332 4.06144 0.458698 3.87186 0.544436C1.88447 1.44321 0.5 3.44382 0.5 5.76886C0.5 8.93409 3.06593 11.5 6.23116 11.5C8.55619 11.5 10.5568 10.1155 11.4556 8.12816C11.5413 7.93857 11.5007 7.7157 11.3536 7.56857C11.2064 7.42145 10.9836 7.38081 10.794 7.46655C10.2007 7.73484 9.54188 7.88444 8.84673 7.88444C6.23379 7.88444 4.11558 5.76623 4.11558 3.15328C4.11558 2.45814 4.26518 1.79929 4.53347 1.20604Z" fill="#E0E2E6"/>
</g>
<defs>
<clipPath id="clip0_5043_47656">
<rect width="12" height="12" fill="white"/>
</clipPath>
</defs>
</svg>
