<svg width="18" height="18" viewBox="0 0 18 18" fill="none" xmlns="http://www.w3.org/2000/svg">
<path fill-rule="evenodd" clip-rule="evenodd" d="M6.75 1.5C6.75 1.08579 6.41421 0.75 6 0.75C5.58579 0.75 5.25 1.08579 5.25 1.5V2.25H4.25C2.73122 2.25 1.5 3.48122 1.5 5V14.5C1.5 16.0188 2.73122 17.25 4.25 17.25H13.75C15.2688 17.25 16.5 16.0188 16.5 14.5V5C16.5 3.48122 15.2688 2.25 13.75 2.25H12.75V1.5C12.75 1.08579 12.4142 0.75 12 0.75C11.5858 0.75 11.25 1.08579 11.25 1.5V2.25H6.75V1.5ZM4.25 3.75H5.25V4.5C5.25 4.91421 5.58579 5.25 6 5.25C6.41421 5.25 6.75 4.91421 6.75 4.5V3.75H11.25V4.5C11.25 4.91421 11.5858 5.25 12 5.25C12.4142 5.25 12.75 4.91421 12.75 4.5V3.75H13.75C14.4404 3.75 15 4.30964 15 5V6.75H3V5C3 4.30964 3.55964 3.75 4.25 3.75Z" fill="#0075F4"/>
</svg>
