<svg width="18" height="18" viewBox="0 0 18 18" fill="none" xmlns="http://www.w3.org/2000/svg">
<path fill-rule="evenodd" clip-rule="evenodd" d="M6 0.75C6.41421 0.75 6.75 1.08579 6.75 1.5V2.25H11.25V1.5C11.25 1.08579 11.5858 0.75 12 0.75C12.4142 0.75 12.75 1.08579 12.75 1.5V2.25H13.75C15.2688 2.25 16.5 3.48122 16.5 5V14.5C16.5 16.0188 15.2688 17.25 13.75 17.25H4.25C2.73122 17.25 1.5 16.0188 1.5 14.5V5C1.5 3.48122 2.73122 2.25 4.25 2.25H5.25V1.5C5.25 1.08579 5.58579 0.75 6 0.75ZM5.25 3.75H4.25C3.55964 3.75 3 4.30964 3 5V6.75H15V5C15 4.30964 14.4404 3.75 13.75 3.75H12.75V4.5C12.75 4.91421 12.4142 5.25 12 5.25C11.5858 5.25 11.25 4.91421 11.25 4.5V3.75H6.75V4.5C6.75 4.91421 6.41421 5.25 6 5.25C5.58579 5.25 5.25 4.91421 5.25 4.5V3.75ZM15 8.25H3V14.5C3 15.1904 3.55964 15.75 4.25 15.75H13.75C14.4404 15.75 15 15.1904 15 14.5V8.25Z" fill="#0059C2"/>
</svg>
