<svg width="18" height="18" viewBox="0 0 18 18" fill="none" xmlns="http://www.w3.org/2000/svg">
<path d="M10.3258 2.04917C9.59359 1.31694 8.40641 1.31694 7.67417 2.04917C7.19759 2.52576 7.03119 3.19508 7.175 3.80625L3.92519 6.24361C3.20979 5.83736 2.28413 5.93921 1.67417 6.54917C0.941942 7.28141 0.941942 8.46859 1.67417 9.20083C2.40641 9.93306 3.59359 9.93306 4.32583 9.20083C4.80241 8.72424 4.96881 8.05492 4.825 7.44375L8.07481 5.00639C8.79021 5.41264 9.71587 5.31079 10.3258 4.70083L10.3457 4.68064L13.1276 5.72385C13.151 6.17024 13.3332 6.60986 13.6742 6.95083C14.4064 7.68306 15.5936 7.68306 16.3258 6.95083C17.0581 6.21859 17.0581 5.03141 16.3258 4.29917C15.5936 3.56694 14.4064 3.56694 13.6742 4.29917L13.6543 4.31936L10.8724 3.27615C10.849 2.82976 10.6668 2.39014 10.3258 2.04917Z" fill="#393D48"/>
<path d="M9.75 7.5C9.75 7.08579 9.41421 6.75 9 6.75C8.58579 6.75 8.25 7.08579 8.25 7.5V15C8.25 15.4142 8.58579 15.75 9 15.75C9.41421 15.75 9.75 15.4142 9.75 15V7.5Z" fill="#393D48"/>
<path d="M15.75 9.75C15.75 9.33579 15.4142 9 15 9C14.5858 9 14.25 9.33579 14.25 9.75V15C14.25 15.4142 14.5858 15.75 15 15.75C15.4142 15.75 15.75 15.4142 15.75 15V9.75Z" fill="#393D48"/>
<path d="M3.75 12C3.75 11.5858 3.41421 11.25 3 11.25C2.58579 11.25 2.25 11.5858 2.25 12L2.25 15C2.25 15.4142 2.58579 15.75 3 15.75C3.41421 15.75 3.75 15.4142 3.75 15V12Z" fill="#393D48"/>
</svg>
