<svg width="24" height="24" viewBox="0 0 24 24" fill="none" xmlns="http://www.w3.org/2000/svg">
<mask id="mask0_3021_10502" style="mask-type:alpha" maskUnits="userSpaceOnUse" x="3" y="2" width="18" height="20">
<path d="M10.786 2.6745C11.541 2.25503 12.4591 2.25503 13.2142 2.67451L19.7141 6.28561C20.5078 6.72654 21 7.56309 21 8.471V15.529C21 16.4369 20.5078 17.2735 19.7141 17.7144L13.2142 21.3255C12.4591 21.745 11.541 21.745 10.786 21.3255L4.2859 17.7144C3.49223 17.2735 3 16.4369 3 15.529V8.47102C3 7.56309 3.49223 6.72654 4.2859 6.28562L10.786 2.6745Z" fill="#164C63"/>
</mask>
<g mask="url(#mask0_3021_10502)">
<path d="M3 7L12 12L21 7L12 2L3 7Z" fill="#CFF9FE"/>
<path d="M12 22V12L21 7V17L12 22Z" fill="#67E3F9"/>
<path d="M12 12L3 7V17L12 22V12Z" fill="#06AED4"/>
<path fill-rule="evenodd" clip-rule="evenodd" d="M12 1.42804L3.00002 6.42804L2.50002 6.15026V6.70582L1.97046 7.00002L2.50002 7.29422V17.2942L11.5 22.2942V22.8498L12 22.572L12.5 22.8498V22.2942L21.5 17.2942V7.29422L22.0296 7.00002L21.5 6.70582V6.15026L21 6.42804L12 1.42804ZM20 8.12755L12.5 12.2942V20.5783L20 16.4116V8.12755ZM11.5 12.2942L4.00002 8.12755V16.4116L11.5 20.5782L11.5 12.2942ZM19.4557 7.28601L12.0001 3.14398L4.54437 7.28601L12 11.428L19.4557 7.28601Z" fill="#164C63"/>
<circle cx="12" cy="12" r="2" fill="#164C63"/>
</g>
</svg>
