<svg width="24" height="24" viewBox="0 0 24 24" fill="none" xmlns="http://www.w3.org/2000/svg">
<path fill-rule="evenodd" clip-rule="evenodd" d="M10.786 2.6745C11.541 2.25502 12.4591 2.25503 13.2142 2.67451L19.7141 6.28561C20.5078 6.72653 21 7.56308 21 8.471V15.529C21 16.4369 20.5078 17.2735 19.7141 17.7144L13.2142 21.3255C12.4591 21.745 11.541 21.745 10.786 21.3255L4.2859 17.7144C3.49223 17.2735 3 16.4369 3 15.529V8.47101C3 7.56309 3.49223 6.72654 4.2859 6.28561L10.786 2.6745ZM10.0639 11.4964C10.0222 11.6573 10 11.8261 10 12C10 12.9319 10.6374 13.715 11.5 13.937L11.5 20.5782L4.00002 16.4116V8.12755L10.0639 11.4964ZM10.55 10.6225L4.54437 7.28601L12.0001 3.14398L19.4557 7.28601L13.45 10.6225C13.0856 10.2391 12.5707 10 12 10C11.4293 10 10.9144 10.239 10.55 10.6225ZM13.9361 11.4964L20 8.12755V16.4116L12.5 20.5783V13.937C13.3626 13.715 14 12.9319 14 12C14 11.8261 13.9778 11.6573 13.9361 11.4964Z" fill="#164C63"/>
<path d="M4 8.12756L10.0639 11.4964C10.0222 11.6573 9.99998 11.826 9.99998 12C9.99998 12.9319 10.6374 13.715 11.5 13.937L11.5 20.5782L4 16.4116V8.12756Z" fill="#06AED4"/>
<path d="M20 8.12756L13.936 11.4964C13.9778 11.6573 14 11.8261 14 12C14 12.9319 13.3626 13.715 12.5 13.937V20.5783L20 16.4116V8.12756Z" fill="#67E3F9"/>
<path d="M4.54431 7.286L10.55 10.6225C10.9143 10.239 11.4292 9.99999 11.9999 9.99999C12.5707 9.99999 13.0855 10.239 13.4499 10.6225L19.4556 7.286L12 3.14398L4.54431 7.286Z" fill="#CFF9FE"/>
</svg>
