<svg width="18" height="18" viewBox="0 0 18 18" fill="none" xmlns="http://www.w3.org/2000/svg">
<path fill-rule="evenodd" clip-rule="evenodd" d="M2.25 3C2.25 2.58579 2.58579 2.25 3 2.25H15.75C16.1642 2.25 16.5 2.58579 16.5 3C16.5 3.41421 16.1642 3.75 15.75 3.75H3C2.58579 3.75 2.25 3.41421 2.25 3ZM5.25 7C5.25 6.58579 5.58579 6.25 6 6.25H15.75C16.1642 6.25 16.5 6.58579 16.5 7C16.5 7.41421 16.1642 7.75 15.75 7.75H6C5.58579 7.75 5.25 7.41421 5.25 7ZM2.25 11C2.25 10.5858 2.58579 10.25 3 10.25H15.75C16.1642 10.25 16.5 10.5858 16.5 11C16.5 11.4142 16.1642 11.75 15.75 11.75H3C2.58579 11.75 2.25 11.4142 2.25 11ZM5.25 15C5.25 14.5858 5.58579 14.25 6 14.25H15.75C16.1642 14.25 16.5 14.5858 16.5 15C16.5 15.4142 16.1642 15.75 15.75 15.75H6C5.58579 15.75 5.25 15.4142 5.25 15Z" fill="#E0E2E6"/>
</svg>
