<svg width="18" height="18" viewBox="0 0 18 18" fill="none" xmlns="http://www.w3.org/2000/svg">
<path fill-rule="evenodd" clip-rule="evenodd" d="M4.5 1.25C4.69891 1.25 4.88968 1.32902 5.03033 1.46967L7.28033 3.71967C7.57322 4.01256 7.57322 4.48744 7.28033 4.78033C6.98744 5.07322 6.51256 5.07322 6.21967 4.78033L5.25 3.81066L5.25 14.1893L6.21967 13.2197C6.51256 12.9268 6.98744 12.9268 7.28033 13.2197C7.57322 13.5126 7.57322 13.9874 7.28033 14.2803L5.03033 16.5303C4.88968 16.671 4.69891 16.75 4.5 16.75C4.30109 16.75 4.11032 16.671 3.96967 16.5303L1.71967 14.2803C1.42678 13.9874 1.42678 13.5126 1.71967 13.2197C2.01256 12.9268 2.48744 12.9268 2.78033 13.2197L3.75 14.1893L3.75 3.81066L2.78033 4.78033C2.48744 5.07322 2.01256 5.07322 1.71967 4.78033C1.42678 4.48744 1.42678 4.01256 1.71967 3.71967L3.96967 1.46967C4.11032 1.32902 4.30109 1.25 4.5 1.25ZM9 3C9 2.58579 9.33579 2.25 9.75 2.25H15.75C16.1642 2.25 16.5 2.58579 16.5 3C16.5 3.41421 16.1642 3.75 15.75 3.75H9.75C9.33579 3.75 9 3.41421 9 3ZM9 7C9 6.58579 9.33579 6.25 9.75 6.25H15.75C16.1642 6.25 16.5 6.58579 16.5 7C16.5 7.41421 16.1642 7.75 15.75 7.75H9.75C9.33579 7.75 9 7.41421 9 7ZM9 11C9 10.5858 9.33579 10.25 9.75 10.25H15.75C16.1642 10.25 16.5 10.5858 16.5 11C16.5 11.4142 16.1642 11.75 15.75 11.75H9.75C9.33579 11.75 9 11.4142 9 11ZM9 15C9 14.5858 9.33579 14.25 9.75 14.25H15.75C16.1642 14.25 16.5 14.5858 16.5 15C16.5 15.4142 16.1642 15.75 15.75 15.75H9.75C9.33579 15.75 9 15.4142 9 15Z" fill="#393D48"/>
</svg>
