<svg width="18" height="18" viewBox="0 0 18 18" fill="none" xmlns="http://www.w3.org/2000/svg">
<path fill-rule="evenodd" clip-rule="evenodd" d="M5.06903 1.5H12.931C13.5347 1.49999 14.033 1.49998 14.4389 1.53315C14.8604 1.56759 15.248 1.64151 15.612 1.82698C16.1765 2.1146 16.6354 2.57354 16.923 3.13803C17.1085 3.50203 17.1824 3.88956 17.2169 4.31113C17.25 4.71702 17.25 5.21529 17.25 5.81901V12.181C17.25 12.7847 17.25 13.283 17.2169 13.6889C17.1824 14.1104 17.1085 14.498 16.923 14.862C16.6354 15.4265 16.1765 15.8854 15.612 16.173C15.248 16.3585 14.8604 16.4324 14.4389 16.4669C14.033 16.5 13.5347 16.5 12.931 16.5H5.06901C4.46529 16.5 3.96702 16.5 3.56113 16.4669C3.13956 16.4324 2.75203 16.3585 2.38803 16.173C1.82354 15.8854 1.3646 15.4265 1.07698 14.862C0.891513 14.498 0.81759 14.1104 0.783146 13.6889C0.749983 13.283 0.749991 12.7847 0.75 12.181V5.81903C0.749991 5.2153 0.749983 4.71703 0.783146 4.31113C0.81759 3.88956 0.891513 3.50203 1.07698 3.13803C1.3646 2.57354 1.82354 2.1146 2.38803 1.82698C2.75203 1.64151 3.13956 1.56759 3.56113 1.53315C3.96703 1.49998 4.4653 1.49999 5.06903 1.5ZM3.68328 3.02816C3.35447 3.05503 3.18631 3.10372 3.06901 3.16349C2.78677 3.3073 2.5573 3.53677 2.41349 3.81902C2.35372 3.93631 2.30503 4.10447 2.27816 4.43328C2.25058 4.77085 2.25 5.20757 2.25 5.85V12.15C2.25 12.7924 2.25058 13.2292 2.27816 13.5667C2.30503 13.8955 2.35372 14.0637 2.41349 14.181C2.53325 14.416 2.71242 14.6145 2.93201 14.7573L7.63806 10.0513C7.77189 9.91742 7.90222 9.78705 8.02163 9.68568C8.15277 9.57435 8.31919 9.45468 8.53648 9.38408C8.83774 9.28619 9.16226 9.28619 9.46353 9.38408C9.68081 9.45468 9.84723 9.57436 9.97837 9.68568C10.0978 9.78705 10.2281 9.91742 10.3619 10.0513L10.5 10.1893L12.1381 8.55126C12.2719 8.41741 12.4022 8.28705 12.5216 8.18568C12.6528 8.07435 12.8192 7.95468 13.0365 7.88408C13.3377 7.78619 13.6623 7.78619 13.9635 7.88408C14.1808 7.95468 14.3472 8.07435 14.4784 8.18568C14.5978 8.28706 14.7281 8.41743 14.862 8.5513L15.75 9.43934V5.85C15.75 5.20757 15.7494 4.77085 15.7218 4.43328C15.695 4.10447 15.6463 3.93631 15.5865 3.81902C15.4427 3.53677 15.2132 3.3073 14.931 3.16349C14.8137 3.10372 14.6455 3.05503 14.3167 3.02816C13.9792 3.00058 13.5424 3 12.9 3H5.1C4.45757 3 4.02085 3.00058 3.68328 3.02816ZM15.75 11.5607L13.8182 9.62886C13.6609 9.4716 13.5745 9.38597 13.5076 9.32919C13.5049 9.32693 13.5024 9.3248 13.5 9.3228C13.4976 9.3248 13.4951 9.32693 13.4924 9.32919C13.4255 9.38597 13.3391 9.4716 13.1818 9.62886L11.5607 11.25L15.068 14.7573C15.2876 14.6145 15.4667 14.416 15.5865 14.181C15.6463 14.0637 15.695 13.8955 15.7218 13.5667C15.7494 13.2292 15.75 12.7924 15.75 12.15V11.5607ZM13.1892 14.9999L9.3182 11.1289C9.16094 10.9716 9.07448 10.886 9.0076 10.8292C9.00494 10.8269 9.00241 10.8248 9 10.8228C8.9976 10.8248 8.99506 10.8269 8.9924 10.8292C8.92552 10.886 8.83906 10.9716 8.6818 11.1289L4.81081 14.9999C4.90236 15 4.99862 15 5.1 15H12.9C13.0014 15 13.0976 15 13.1892 14.9999ZM6 6C5.58579 6 5.25 6.33579 5.25 6.75C5.25 7.16421 5.58579 7.5 6 7.5C6.41421 7.5 6.75 7.16421 6.75 6.75C6.75 6.33579 6.41421 6 6 6ZM3.75 6.75C3.75 5.50736 4.75736 4.5 6 4.5C7.24264 4.5 8.25 5.50736 8.25 6.75C8.25 7.99264 7.24264 9 6 9C4.75736 9 3.75 7.99264 3.75 6.75Z" fill="#393D48"/>
</svg>
