<svg width="18" height="18" viewBox="0 0 18 18" fill="none" xmlns="http://www.w3.org/2000/svg">
<path d="M2.25 2.25C1.83579 2.25 1.5 2.58579 1.5 3C1.5 3.41421 1.83579 3.75 2.25 3.75H15.75C16.1642 3.75 16.5 3.41421 16.5 3C16.5 2.58579 16.1642 2.25 15.75 2.25H2.25Z" fill="#0059C2"/>
<path d="M9 6.25C8.58579 6.25 8.25 6.58579 8.25 7C8.25 7.41421 8.58579 7.75 9 7.75H15.75C16.1642 7.75 16.5 7.41421 16.5 7C16.5 6.58579 16.1642 6.25 15.75 6.25H9Z" fill="#0059C2"/>
<path d="M9 10.25C8.58579 10.25 8.25 10.5858 8.25 11C8.25 11.4142 8.58579 11.75 9 11.75H15.75C16.1642 11.75 16.5 11.4142 16.5 11C16.5 10.5858 16.1642 10.25 15.75 10.25H9Z" fill="#0059C2"/>
<path d="M2.25 14.25C1.83579 14.25 1.5 14.5858 1.5 15C1.5 15.4142 1.83579 15.75 2.25 15.75H15.75C16.1642 15.75 16.5 15.4142 16.5 15C16.5 14.5858 16.1642 14.25 15.75 14.25H2.25Z" fill="#0059C2"/>
<path d="M1.5 11.2502C1.5 11.6364 1.5 11.8295 1.57974 11.9313C1.64914 12.02 1.75467 12.0727 1.86721 12.0751C1.99652 12.0778 2.15102 11.9619 2.46 11.7302L5.36 9.55516C5.57712 9.39232 5.68568 9.3109 5.7245 9.21109C5.7585 9.12366 5.7585 9.02666 5.7245 8.93923C5.68568 8.83942 5.57712 8.758 5.36 8.59516L2.46 6.42016C2.15102 6.18842 1.99652 6.07255 1.86721 6.07524C1.75467 6.07758 1.64914 6.13035 1.57974 6.21897C1.5 6.32081 1.5 6.51393 1.5 6.90016V11.2502Z" fill="#0059C2"/>
</svg>
