<svg width="18" height="18" viewBox="0 0 18 18" fill="none" xmlns="http://www.w3.org/2000/svg">
<path fill-rule="evenodd" clip-rule="evenodd" d="M4.5 2.25C4.91421 2.25 5.25 2.58579 5.25 3V8.25C5.25 10.3211 6.92893 12 9 12C11.0711 12 12.75 10.3211 12.75 8.25V3C12.75 2.58579 13.0858 2.25 13.5 2.25C13.9142 2.25 14.25 2.58579 14.25 3V8.25C14.25 11.1495 11.8995 13.5 9 13.5C6.10051 13.5 3.75 11.1495 3.75 8.25V3C3.75 2.58579 4.08579 2.25 4.5 2.25ZM2.25 15.75C2.25 15.3358 2.58579 15 3 15H15C15.4142 15 15.75 15.3358 15.75 15.75C15.75 16.1642 15.4142 16.5 15 16.5H3C2.58579 16.5 2.25 16.1642 2.25 15.75Z" fill="#0059C2"/>
</svg>
