<svg width="18" height="18" viewBox="0 0 18 18" fill="none" xmlns="http://www.w3.org/2000/svg">
<path fill-rule="evenodd" clip-rule="evenodd" d="M11.2327 2.25002H7.5C7.08579 2.25002 6.75 2.58581 6.75 3.00002C6.75 3.41423 7.08579 3.75002 7.5 3.75002H10.1677L6.23025 14.25H3.75C3.33579 14.25 3 14.5858 3 15C3 15.4142 3.33579 15.75 3.75 15.75H6.7325C6.74412 15.7503 6.75571 15.7503 6.76728 15.75H10.5C10.9142 15.75 11.25 15.4142 11.25 15C11.25 14.5858 10.9142 14.25 10.5 14.25H7.83225L11.7698 3.75002H14.25C14.6642 3.75002 15 3.41423 15 3.00002C15 2.58581 14.6642 2.25002 14.25 2.25002H11.2675C11.2559 2.24975 11.2443 2.24975 11.2327 2.25002Z" fill="#0075F4"/>
</svg>
