<svg width="18" height="18" viewBox="0 0 18 18" fill="none" xmlns="http://www.w3.org/2000/svg">
<path fill-rule="evenodd" clip-rule="evenodd" d="M3.5 3C3.5 2.44772 3.94772 2 4.5 2H10.5C12.7091 2 14.5 3.79086 14.5 6C14.5 7.02843 14.1119 7.96621 13.4741 8.67486C14.545 9.39259 15.25 10.614 15.25 12C15.25 14.2091 13.4591 16 11.25 16H4.5C3.94772 16 3.5 15.5523 3.5 15V3ZM5.5 10V14H11.25C12.3546 14 13.25 13.1046 13.25 12C13.25 10.8954 12.3546 10 11.25 10H5.5ZM5.5 8H10.5C11.6046 8 12.5 7.10457 12.5 6C12.5 4.89543 11.6046 4 10.5 4H5.5V8Z" fill="#E0E2E6"/>
</svg>
