<svg width="18" height="18" viewBox="0 0 18 18" fill="none" xmlns="http://www.w3.org/2000/svg">
<path d="M1.71923 4.36801V5.09401H4.63523V4.36801H3.74723V0.906006H2.36723L1.36523 2.22601L1.94123 2.67601L2.79323 1.56001H2.84723V4.36801H1.71923Z" fill="#393D48"/>
<path d="M6.75 2.25C6.33579 2.25 6 2.58579 6 3C6 3.41421 6.33579 3.75 6.75 3.75H15.75C16.1642 3.75 16.5 3.41421 16.5 3C16.5 2.58579 16.1642 2.25 15.75 2.25H6.75Z" fill="#393D48"/>
<path d="M6.75 8.25C6.33579 8.25 6 8.58579 6 9C6 9.41421 6.33579 9.75 6.75 9.75L15.75 9.75C16.1642 9.75 16.5 9.41422 16.5 9C16.5 8.58579 16.1642 8.25 15.75 8.25L6.75 8.25Z" fill="#393D48"/>
<path d="M6.75 14.25C6.33579 14.25 6 14.5858 6 15C6 15.4142 6.33579 15.75 6.75 15.75H15.75C16.1642 15.75 16.5 15.4142 16.5 15C16.5 14.5858 16.1642 14.25 15.75 14.25H6.75Z" fill="#393D48"/>
<path d="M4.52714 11.13H1.56314V10.308L2.85314 9.20399C2.96914 9.104 3.06714 9.014 3.14714 8.934C3.22714 8.85 3.29114 8.77 3.33914 8.694C3.39114 8.614 3.42714 8.536 3.44714 8.46C3.47114 8.384 3.48314 8.302 3.48314 8.21399V8.13C3.48314 8.05 3.46714 7.98 3.43514 7.92C3.40314 7.86 3.36114 7.81 3.30914 7.77C3.25714 7.73 3.19714 7.7 3.12914 7.68C3.06514 7.66 2.99914 7.64999 2.93114 7.64999C2.83114 7.64999 2.74314 7.666 2.66714 7.698C2.59514 7.73 2.53114 7.774 2.47514 7.83C2.42314 7.882 2.37914 7.944 2.34314 8.016C2.30714 8.08399 2.27914 8.158 2.25914 8.238L1.47314 7.938C1.52114 7.794 1.58714 7.658 1.67114 7.52999C1.75514 7.39799 1.85914 7.284 1.98314 7.188C2.11114 7.088 2.26114 7.00999 2.43314 6.954C2.60514 6.89799 2.79914 6.87 3.01514 6.87C3.24314 6.87 3.44514 6.902 3.62114 6.966C3.79714 7.02999 3.94514 7.118 4.06514 7.23C4.18914 7.342 4.28314 7.476 4.34714 7.632C4.41114 7.784 4.44314 7.95 4.44314 8.13C4.44314 8.31 4.41314 8.474 4.35314 8.62199C4.29314 8.77 4.21114 8.91 4.10714 9.042C4.00714 9.17 3.88914 9.292 3.75314 9.408C3.61714 9.524 3.47514 9.642 3.32714 9.762L2.54714 10.374H4.52714V11.13Z" fill="#393D48"/>
<path d="M3.39315 14.436C3.29315 14.52 3.13115 14.562 2.90715 14.562H2.51715V15.312H2.89515C3.12315 15.312 3.30115 15.356 3.42915 15.444C3.56115 15.528 3.62715 15.656 3.62715 15.828V15.864C3.62715 16.04 3.56915 16.18 3.45315 16.284C3.34115 16.384 3.18315 16.434 2.97915 16.434C2.75115 16.434 2.56915 16.38 2.43315 16.272C2.30115 16.16 2.18915 16.018 2.09715 15.846L1.43115 16.362C1.49915 16.47 1.57715 16.572 1.66515 16.668C1.75715 16.764 1.86315 16.85 1.98315 16.926C2.10715 16.998 2.25115 17.056 2.41515 17.1C2.57915 17.144 2.76715 17.166 2.97915 17.166C3.21515 17.166 3.43115 17.138 3.62715 17.082C3.82315 17.022 3.99115 16.938 4.13115 16.83C4.27115 16.722 4.37915 16.592 4.45515 16.44C4.53115 16.288 4.56915 16.118 4.56915 15.93C4.56915 15.786 4.54715 15.658 4.50315 15.546C4.45915 15.43 4.39715 15.33 4.31715 15.246C4.24115 15.162 4.14915 15.094 4.04115 15.042C3.93715 14.986 3.82315 14.946 3.69915 14.922V14.886C3.80715 14.866 3.90915 14.832 4.00515 14.784C4.10115 14.732 4.18515 14.666 4.25715 14.586C4.33315 14.506 4.39115 14.412 4.43115 14.304C4.47515 14.196 4.49715 14.076 4.49715 13.944C4.49715 13.776 4.46115 13.624 4.38915 13.488C4.32115 13.352 4.22115 13.236 4.08915 13.14C3.96115 13.04 3.80515 12.964 3.62115 12.912C3.44115 12.86 3.23915 12.834 3.01515 12.834C2.83515 12.834 2.67315 12.852 2.52915 12.888C2.38515 12.92 2.25515 12.968 2.13915 13.032C2.02315 13.092 1.91915 13.166 1.82715 13.254C1.73515 13.338 1.64915 13.432 1.56915 13.536L2.13315 14.064C2.23715 13.904 2.36315 13.782 2.51115 13.698C2.65915 13.61 2.81715 13.566 2.98515 13.566C3.16515 13.566 3.30315 13.612 3.39915 13.704C3.49915 13.796 3.54915 13.918 3.54915 14.07V14.112C3.54915 14.24 3.49715 14.348 3.39315 14.436Z" fill="#393D48"/>
</svg>
