<svg width="18" height="18" viewBox="0 0 18 18" fill="none" xmlns="http://www.w3.org/2000/svg">
<path fill-rule="evenodd" clip-rule="evenodd" d="M1.5 3C1.5 2.17157 2.17157 1.5 3 1.5C3.82843 1.5 4.5 2.17157 4.5 3C4.5 3.82843 3.82843 4.5 3 4.5C2.17157 4.5 1.5 3.82843 1.5 3ZM6 3C6 2.58579 6.33579 2.25 6.75 2.25H15.75C16.1642 2.25 16.5 2.58579 16.5 3C16.5 3.41421 16.1642 3.75 15.75 3.75H6.75C6.33579 3.75 6 3.41421 6 3ZM1.5 9C1.5 8.17157 2.17157 7.5 3 7.5C3.82843 7.5 4.5 8.17157 4.5 9C4.5 9.82843 3.82843 10.5 3 10.5C2.17157 10.5 1.5 9.82843 1.5 9ZM6 9C6 8.58579 6.33579 8.25 6.75 8.25L15.75 8.25C16.1642 8.25 16.5 8.58579 16.5 9C16.5 9.41421 16.1642 9.75 15.75 9.75L6.75 9.75C6.33579 9.75 6 9.41421 6 9ZM1.5 15C1.5 14.1716 2.17157 13.5 3 13.5C3.82843 13.5 4.5 14.1716 4.5 15C4.5 15.8284 3.82843 16.5 3 16.5C2.17157 16.5 1.5 15.8284 1.5 15ZM6 15C6 14.5858 6.33579 14.25 6.75 14.25H15.75C16.1642 14.25 16.5 14.5858 16.5 15C16.5 15.4142 16.1642 15.75 15.75 15.75H6.75C6.33579 15.75 6 15.4142 6 15Z" fill="#0075F4"/>
</svg>
