<svg width="18" height="18" viewBox="0 0 18 18" fill="none" xmlns="http://www.w3.org/2000/svg">
<path fill-rule="evenodd" clip-rule="evenodd" d="M5.25 6C3.59315 6 2.25 7.34315 2.25 9C2.25 10.6569 3.59315 12 5.25 12H6.75C7.16421 12 7.5 12.3358 7.5 12.75C7.5 13.1642 7.16421 13.5 6.75 13.5H5.25C2.76472 13.5 0.75 11.4853 0.75 9C0.75 6.51472 2.76472 4.5 5.25 4.5H6.75C7.16421 4.5 7.5 4.83579 7.5 5.25C7.5 5.66421 7.16421 6 6.75 6H5.25ZM10.5 5.25C10.5 4.83579 10.8358 4.5 11.25 4.5H12.75C15.2353 4.5 17.25 6.51472 17.25 9C17.25 11.4853 15.2353 13.5 12.75 13.5H11.25C10.8358 13.5 10.5 13.1642 10.5 12.75C10.5 12.3358 10.8358 12 11.25 12H12.75C14.4069 12 15.75 10.6569 15.75 9C15.75 7.34315 14.4069 6 12.75 6H11.25C10.8358 6 10.5 5.66421 10.5 5.25ZM4.5 9C4.5 8.58579 4.83579 8.25 5.25 8.25L12.75 8.25C13.1642 8.25 13.5 8.58579 13.5 9C13.5 9.41421 13.1642 9.75 12.75 9.75L5.25 9.75C4.83579 9.75 4.5 9.41421 4.5 9Z" fill="#393D48"/>
</svg>
