<svg width="18" height="18" viewBox="0 0 18 18" fill="none" xmlns="http://www.w3.org/2000/svg">
<path d="M2.25 2.25C1.83579 2.25 1.5 2.58579 1.5 3C1.5 3.41421 1.83579 3.75 2.25 3.75H15.75C16.1642 3.75 16.5 3.41421 16.5 3C16.5 2.58579 16.1642 2.25 15.75 2.25H2.25Z" fill="#0059C2"/>
<path d="M9 6.25C8.58579 6.25 8.25 6.58579 8.25 7C8.25 7.41421 8.58579 7.75 9 7.75H15.75C16.1642 7.75 16.5 7.41421 16.5 7C16.5 6.58579 16.1642 6.25 15.75 6.25H9Z" fill="#0059C2"/>
<path d="M9 10.25C8.58579 10.25 8.25 10.5858 8.25 11C8.25 11.4142 8.58579 11.75 9 11.75H15.75C16.1642 11.75 16.5 11.4142 16.5 11C16.5 10.5858 16.1642 10.25 15.75 10.25H9Z" fill="#0059C2"/>
<path d="M2.25 14.25C1.83579 14.25 1.5 14.5858 1.5 15C1.5 15.4142 1.83579 15.75 2.25 15.75H15.75C16.1642 15.75 16.5 15.4142 16.5 15C16.5 14.5858 16.1642 14.25 15.75 14.25H2.25Z" fill="#0059C2"/>
<path d="M5.75 11.175C5.75 11.5612 5.75 11.7543 5.67026 11.8562C5.60086 11.9448 5.49533 11.9975 5.3828 11.9999C5.25348 12.0026 5.09898 11.8867 4.79 11.655L1.89 9.47997C1.67288 9.31713 1.56432 9.23571 1.5255 9.13589C1.4915 9.04846 1.4915 8.95147 1.5255 8.86404C1.56432 8.76422 1.67288 8.6828 1.89 8.51996L4.79 6.34496C5.09898 6.11323 5.25348 5.99736 5.3828 6.00005C5.49533 6.00239 5.60086 6.05515 5.67026 6.14378C5.75 6.24562 5.75 6.43873 5.75 6.82496V11.175Z" fill="#0059C2"/>
</svg>
