<svg width="18" height="18" viewBox="0 0 18 18" fill="none" xmlns="http://www.w3.org/2000/svg">
<g clip-path="url(#clip0_9666_525419)">
<path fill-rule="evenodd" clip-rule="evenodd" d="M0 4C0 1.79086 1.79086 0 4 0H14C16.2091 0 18 1.79086 18 4V14C18 16.2091 16.2091 18 14 18H4C1.79086 18 0 16.2091 0 14V4ZM5.85195 3.25C5.58046 3.24999 5.34013 3.24998 5.14 3.26363C4.92749 3.27813 4.70611 3.3105 4.48463 3.40224C3.99458 3.60523 3.60523 3.99458 3.40224 4.48463C3.3105 4.70611 3.27813 4.92749 3.26363 5.14C3.24998 5.34013 3.24999 5.58046 3.25 5.85195L3.25 5.875C3.25 6.28921 3.58579 6.625 4 6.625C4.41421 6.625 4.75 6.28921 4.75 5.875C4.75 5.57352 4.75041 5.38498 4.76015 5.24211C4.76944 5.10597 4.78465 5.0669 4.78806 5.05866C4.83881 4.93614 4.93614 4.83881 5.05866 4.78806C5.0669 4.78465 5.10597 4.76944 5.24211 4.76015C5.38498 4.75041 5.57352 4.75 5.875 4.75H8.25V13.25H7.125C6.71079 13.25 6.375 13.5858 6.375 14C6.375 14.4142 6.71079 14.75 7.125 14.75H10.875C11.2892 14.75 11.625 14.4142 11.625 14C11.625 13.5858 11.2892 13.25 10.875 13.25H9.75V4.75H12.125C12.4265 4.75 12.615 4.75041 12.7579 4.76015C12.894 4.76944 12.9331 4.78465 12.9413 4.78806C13.0639 4.83881 13.1612 4.93614 13.2119 5.05866C13.2154 5.0669 13.2306 5.10597 13.2398 5.24211C13.2496 5.38498 13.25 5.57352 13.25 5.875C13.25 6.28921 13.5858 6.625 14 6.625C14.4142 6.625 14.75 6.28921 14.75 5.875V5.85194C14.75 5.58045 14.75 5.34013 14.7364 5.14C14.7219 4.92749 14.6895 4.70611 14.5978 4.48463C14.3948 3.99458 14.0054 3.60523 13.5154 3.40224C13.2939 3.3105 13.0725 3.27813 12.86 3.26363C12.6599 3.24998 12.4195 3.24999 12.148 3.25H5.85195Z" fill="#0059C2"/>
</g>
<defs>
<clipPath id="clip0_9666_525419">
<rect width="18" height="18" fill="white"/>
</clipPath>
</defs>
</svg>
