<svg width="18" height="18" viewBox="0 0 18 18" fill="none" xmlns="http://www.w3.org/2000/svg">
<path fill-rule="evenodd" clip-rule="evenodd" d="M3.75 6C3.75 3.92893 5.42893 2.25 7.5 2.25H10.5C12.5711 2.25 14.25 3.92893 14.25 6C14.25 6.41421 13.9142 6.75 13.5 6.75C13.0858 6.75 12.75 6.41421 12.75 6C12.75 4.75736 11.7426 3.75 10.5 3.75H7.5C6.25736 3.75 5.25 4.75736 5.25 6C5.25 6.41421 4.91421 6.75 4.5 6.75C4.08579 6.75 3.75 6.41421 3.75 6ZM1.5 9C1.5 8.58579 1.83579 8.25 2.25 8.25H15.75C16.1642 8.25 16.5 8.58579 16.5 9C16.5 9.41421 16.1642 9.75 15.75 9.75H13.5003C13.971 10.3767 14.25 11.1558 14.25 12C14.25 14.0711 12.5711 15.75 10.5 15.75H7.5C5.42893 15.75 3.75 14.0711 3.75 12C3.75 11.5858 4.08579 11.25 4.5 11.25C4.91421 11.25 5.25 11.5858 5.25 12C5.25 13.2426 6.25736 14.25 7.5 14.25H10.5C11.7426 14.25 12.75 13.2426 12.75 12C12.75 10.7574 11.7426 9.75 10.5 9.75H2.25C1.83579 9.75 1.5 9.41421 1.5 9Z" fill="#0075F4"/>
</svg>
