<svg width="18" height="18" viewBox="0 0 18 18" fill="none" xmlns="http://www.w3.org/2000/svg">
<path fill-rule="evenodd" clip-rule="evenodd" d="M1.5 3C1.5 2.58579 1.83579 2.25 2.25 2.25H15.75C16.1642 2.25 16.5 2.58579 16.5 3C16.5 3.41421 16.1642 3.75 15.75 3.75H2.25C1.83579 3.75 1.5 3.41421 1.5 3ZM3.75 7C3.75 6.58579 4.08579 6.25 4.5 6.25H13.5C13.9142 6.25 14.25 6.58579 14.25 7C14.25 7.41421 13.9142 7.75 13.5 7.75H4.5C4.08579 7.75 3.75 7.41421 3.75 7ZM1.5 11C1.5 10.5858 1.83579 10.25 2.25 10.25H15.75C16.1642 10.25 16.5 10.5858 16.5 11C16.5 11.4142 16.1642 11.75 15.75 11.75H2.25C1.83579 11.75 1.5 11.4142 1.5 11ZM3.75 15C3.75 14.5858 4.08579 14.25 4.5 14.25H13.5C13.9142 14.25 14.25 14.5858 14.25 15C14.25 15.4142 13.9142 15.75 13.5 15.75H4.5C4.08579 15.75 3.75 15.4142 3.75 15Z" fill="#0059C2"/>
</svg>
