<svg width="18" height="18" viewBox="0 0 18 18" fill="none" xmlns="http://www.w3.org/2000/svg">
<path fill-rule="evenodd" clip-rule="evenodd" d="M1.5 3C1.5 2.58579 1.83579 2.25 2.25 2.25H15C15.4142 2.25 15.75 2.58579 15.75 3C15.75 3.41421 15.4142 3.75 15 3.75H2.25C1.83579 3.75 1.5 3.41421 1.5 3ZM1.5 7C1.5 6.58579 1.83579 6.25 2.25 6.25H12C12.4142 6.25 12.75 6.58579 12.75 7C12.75 7.41421 12.4142 7.75 12 7.75H2.25C1.83579 7.75 1.5 7.41421 1.5 7ZM1.5 11C1.5 10.5858 1.83579 10.25 2.25 10.25H15C15.4142 10.25 15.75 10.5858 15.75 11C15.75 11.4142 15.4142 11.75 15 11.75H2.25C1.83579 11.75 1.5 11.4142 1.5 11ZM1.5 15C1.5 14.5858 1.83579 14.25 2.25 14.25H12C12.4142 14.25 12.75 14.5858 12.75 15C12.75 15.4142 12.4142 15.75 12 15.75H2.25C1.83579 15.75 1.5 15.4142 1.5 15Z" fill="#0075F4"/>
</svg>
