<svg width="18" height="18" viewBox="0 0 18 18" fill="none" xmlns="http://www.w3.org/2000/svg">
<path fill-rule="evenodd" clip-rule="evenodd" d="M5.06903 3H9.18097C9.7847 2.99999 10.283 2.99998 10.6889 3.03315C11.1104 3.06759 11.498 3.14151 11.862 3.32698C12.4265 3.6146 12.8854 4.07354 13.173 4.63803C13.3585 5.00203 13.4324 5.38956 13.4669 5.81113C13.4976 6.1876 13.4998 6.64352 13.5 7.18935L14.9651 5.7242C15.1085 5.58079 15.2494 5.43982 15.373 5.33639C15.4832 5.24413 15.7153 5.0591 16.0367 5.0338C16.3957 5.00554 16.7466 5.15086 16.9805 5.4247C17.1899 5.66991 17.2232 5.96485 17.2358 6.10802C17.2501 6.2685 17.25 6.46782 17.25 6.67061V11.3294C17.25 11.5322 17.2501 11.7315 17.2358 11.892C17.2232 12.0351 17.1899 12.3301 16.9805 12.5753C16.7466 12.8491 16.3957 12.9945 16.0367 12.9662C15.7153 12.9409 15.4832 12.7559 15.373 12.6636C15.2494 12.5602 15.1085 12.4192 14.9651 12.2758L13.5 10.8106C13.4998 11.3565 13.4976 11.8124 13.4669 12.1889C13.4324 12.6104 13.3585 12.998 13.173 13.362C12.8854 13.9265 12.4265 14.3854 11.862 14.673C11.498 14.8585 11.1104 14.9324 10.6889 14.9669C10.283 15 9.78471 15 9.18099 15H5.06901C4.46529 15 3.96702 15 3.56113 14.9669C3.13956 14.9324 2.75203 14.8585 2.38803 14.673C1.82354 14.3854 1.3646 13.9265 1.07698 13.362C0.891513 12.998 0.81759 12.6104 0.783146 12.1889C0.749983 11.783 0.749991 11.2847 0.75 10.681V7.31903C0.749991 6.7153 0.749983 6.21703 0.783146 5.81113C0.81759 5.38956 0.891513 5.00203 1.07698 4.63803C1.3646 4.07354 1.82354 3.6146 2.38803 3.32698C2.75203 3.14151 3.13956 3.06759 3.56113 3.03315C3.96703 2.99998 4.4653 2.99999 5.06903 3ZM12 7.35C12 6.70757 11.9994 6.27085 11.9718 5.93328C11.945 5.60447 11.8963 5.43631 11.8365 5.31902C11.6927 5.03677 11.4632 4.8073 11.181 4.66349C11.0637 4.60372 10.8955 4.55503 10.5667 4.52816C10.2292 4.50058 9.79244 4.5 9.15 4.5H5.1C4.45757 4.5 4.02085 4.50058 3.68328 4.52816C3.35447 4.55503 3.18631 4.60372 3.06901 4.66349C2.78677 4.8073 2.5573 5.03677 2.41349 5.31902C2.35372 5.43631 2.30503 5.60447 2.27816 5.93328C2.25058 6.27085 2.25 6.70757 2.25 7.35V10.65C2.25 11.2924 2.25058 11.7292 2.27816 12.0667C2.30503 12.3955 2.35372 12.5637 2.41349 12.681C2.5573 12.9632 2.78677 13.1927 3.06902 13.3365C3.18631 13.3963 3.35447 13.445 3.68328 13.4718C4.02085 13.4994 4.45757 13.5 5.1 13.5H9.15C9.79244 13.5 10.2292 13.4994 10.5667 13.4718C10.8955 13.445 11.0637 13.3963 11.181 13.3365C11.4632 13.1927 11.6927 12.9632 11.8365 12.681C11.8963 12.5637 11.945 12.3955 11.9718 12.0667C11.9994 11.7292 12 11.2924 12 10.65V7.35ZM13.8107 9L15.75 10.9393V7.06066L13.8107 9Z" fill="#0075F4"/>
</svg>
