<svg width="24" height="24" viewBox="0 0 24 24" fill="none" xmlns="http://www.w3.org/2000/svg">
<path d="M9 7.75C8.30964 7.75 7.75 8.30964 7.75 9C7.75 9.69036 8.30964 10.25 9 10.25C9.69036 10.25 10.25 9.69036 10.25 9C10.25 8.30964 9.69036 7.75 9 7.75Z" fill="#E0E2E6"/>
<path d="M15 7.75C14.3096 7.75 13.75 8.30964 13.75 9C13.75 9.69036 14.3096 10.25 15 10.25C15.6904 10.25 16.25 9.69036 16.25 9C16.25 8.30964 15.6904 7.75 15 7.75Z" fill="#E0E2E6"/>
<path d="M7.40042 14.4505L7.40174 14.4522L7.40401 14.4552L7.41023 14.4634L7.42947 14.488C7.4453 14.508 7.46715 14.535 7.49491 14.5681C7.55037 14.6342 7.6297 14.7247 7.732 14.8314C7.93598 15.0443 8.23482 15.3254 8.62142 15.6066C9.39132 16.1665 10.5421 16.7494 11.9976 16.75L12.0001 16.75C13.4567 16.75 14.6084 16.1668 15.3787 15.6066C15.7653 15.3254 16.0641 15.0443 16.2681 14.8314C16.3704 14.7247 16.4497 14.6342 16.5052 14.5681C16.533 14.535 16.5548 14.508 16.5706 14.488L16.5899 14.4634L16.5961 14.4552L16.5984 14.4523L16.6001 14.45C16.8486 14.1186 16.7814 13.6485 16.4501 13.4C16.1188 13.1516 15.6493 13.2182 15.4007 13.5492L15.4015 13.5481L15.3946 13.5569C15.3872 13.5662 15.3744 13.5822 15.3562 13.6038C15.3199 13.6471 15.2625 13.7128 15.1851 13.7936C15.0297 13.9557 14.7973 14.1746 14.4964 14.3935C13.8922 14.8329 13.0447 15.2494 12.0025 15.25L12.0001 15.25C10.9567 15.25 10.1084 14.8332 9.50368 14.3934C9.20279 14.1746 8.97038 13.9557 8.81498 13.7936C8.73759 13.7128 8.68021 13.6471 8.64387 13.6038C8.62572 13.5822 8.61291 13.5662 8.60554 13.5569L8.59891 13.5485C8.35015 13.2181 7.88103 13.1518 7.55005 13.4C7.21868 13.6485 7.15189 14.1191 7.40042 14.4505Z" fill="#E0E2E6"/>
<path fill-rule="evenodd" clip-rule="evenodd" d="M12 1.25C6.06294 1.25 1.25 6.06294 1.25 12C1.25 17.9371 6.06294 22.75 12 22.75C17.9371 22.75 22.75 17.9371 22.75 12C22.75 6.06294 17.9371 1.25 12 1.25ZM2.75 12C2.75 6.89137 6.89137 2.75 12 2.75C17.1086 2.75 21.25 6.89137 21.25 12C21.25 17.1086 17.1086 21.25 12 21.25C6.89137 21.25 2.75 17.1086 2.75 12Z" fill="#E0E2E6"/>
</svg>
