<svg width="24" height="24" viewBox="0 0 24 24" fill="none" xmlns="http://www.w3.org/2000/svg">
<path fill-rule="evenodd" clip-rule="evenodd" d="M8.47475 1.25006C8.49088 1.25009 8.50692 1.25011 8.52286 1.25011H15.4774C15.4933 1.25011 15.5093 1.25009 15.5255 1.25006C15.7208 1.24972 15.9298 1.24935 16.1344 1.29847C16.313 1.34134 16.4837 1.41204 16.6403 1.50799C16.8197 1.61793 16.9672 1.76599 17.1051 1.90436C17.1165 1.91578 17.1278 1.92714 17.1391 1.93841L22.0618 6.86115C22.0731 6.87242 22.0844 6.88375 22.0959 6.89514C22.2342 7.03302 22.3823 7.18056 22.4922 7.35995C22.5882 7.51653 22.6589 7.68723 22.7018 7.8658C22.7509 8.07038 22.7505 8.27941 22.7502 8.47475C22.7501 8.49088 22.7501 8.50692 22.7501 8.52286V15.4774C22.7501 15.4933 22.7501 15.5093 22.7502 15.5255C22.7505 15.7208 22.7509 15.9298 22.7018 16.1344C22.6589 16.313 22.5882 16.4837 22.4922 16.6403C22.3823 16.8197 22.2342 16.9672 22.0959 17.1051C22.0845 17.1165 22.0731 17.1278 22.0618 17.1391L17.1391 22.0618C17.1278 22.0731 17.1165 22.0845 17.1051 22.0959C16.9672 22.2342 16.8197 22.3823 16.6403 22.4922C16.4837 22.5882 16.313 22.6589 16.1344 22.7018C15.9298 22.7509 15.7208 22.7505 15.5255 22.7502C15.5093 22.7501 15.4933 22.7501 15.4774 22.7501H8.52286C8.50692 22.7501 8.49088 22.7501 8.47475 22.7502C8.27941 22.7505 8.07038 22.7509 7.8658 22.7018C7.68723 22.6589 7.51653 22.5882 7.35995 22.4922C7.18056 22.3823 7.03302 22.2342 6.89514 22.0959C6.88375 22.0844 6.87242 22.0731 6.86115 22.0618L1.93841 17.1391C1.92715 17.1278 1.91578 17.1165 1.90436 17.1051C1.76599 16.9672 1.61793 16.8197 1.50799 16.6403C1.41204 16.4837 1.34134 16.313 1.29847 16.1344C1.24935 15.9298 1.24972 15.7208 1.25006 15.5255C1.25009 15.5093 1.25011 15.4933 1.25011 15.4774V8.52286C1.25011 8.50692 1.25009 8.49088 1.25006 8.47475C1.24972 8.27941 1.24935 8.07038 1.29847 7.8658C1.34134 7.68723 1.41204 7.51653 1.50799 7.35995C1.61793 7.18056 1.76599 7.03302 1.90435 6.89513C1.91578 6.88374 1.92714 6.87242 1.93841 6.86115L6.86115 1.93841C6.87242 1.92714 6.88374 1.91578 6.89513 1.90436C7.03302 1.76599 7.18056 1.61793 7.35995 1.50799C7.51653 1.41204 7.68723 1.34134 7.8658 1.29847C8.07038 1.24935 8.27941 1.24972 8.47475 1.25006ZM6.29289 6.29302C6.68342 5.90249 7.31658 5.90249 7.70711 6.29302L12 10.5859L16.2929 6.29302C16.6834 5.90249 17.3166 5.90249 17.7071 6.29302C18.0976 6.68354 18.0976 7.3167 17.7071 7.70723L13.4142 12.0001L17.7071 16.293C18.0976 16.6835 18.0976 17.3167 17.7071 17.7072C17.3166 18.0978 16.6834 18.0978 16.2929 17.7072L12 13.4143L7.70711 17.7072C7.31658 18.0978 6.68342 18.0978 6.29289 17.7072C5.90237 17.3167 5.90237 16.6835 6.29289 16.293L10.5858 12.0001L6.29289 7.70723C5.90237 7.3167 5.90237 6.68354 6.29289 6.29302Z" fill="#D92D20"/>
</svg>
