<svg width="24" height="24" viewBox="0 0 24 24" fill="none" xmlns="http://www.w3.org/2000/svg">
<path d="M5 15.54L3 15.54V22C3 22.5523 3.44772 23 4 23C4.55229 23 5 22.5523 5 22L5 15.54Z" fill="#E0E2E6"/>
<path d="M3 9H12V16.0767C11.8934 16.0344 11.7882 15.9923 11.6843 15.9508L11.6286 15.9285C10.3605 15.4212 9.28069 15 8 15C6.61272 15 5.74051 15.2308 5.24639 15.4285C5.15123 15.4665 5.06941 15.5036 5 15.5381V15.54L3 15.54V15.5381V9Z" fill="#FEC84B"/>
<path d="M12 9V1.92334C12.1066 1.96558 12.2118 2.00767 12.3157 2.04923L12.3714 2.07152C13.6395 2.57876 14.7193 3 16 3C17.3873 3 18.2595 2.76917 18.7536 2.57152C19.0016 2.47234 19.1589 2.37971 19.2422 2.3242C19.2835 2.29663 19.3072 2.2778 19.3152 2.27126C19.7072 1.90251 20.3239 1.90972 20.7071 2.29289C20.9024 2.48815 21 2.74408 21 3V8.99951L12 9Z" fill="#FEC84B"/>
<path d="M16 17C14.4508 17 13.1445 16.5301 12 16.0767V9H21V14.999C21.0002 15.2553 20.9026 15.5116 20.7071 15.7071L20.7061 15.7082C20.6682 15.7458 20.6281 15.781 20.5869 15.8149C20.5282 15.8632 20.4504 15.9224 20.3516 15.9883C20.1536 16.1203 19.8734 16.2777 19.4964 16.4285C18.7405 16.7308 17.6127 17 16 17Z" fill="#F04438"/>
<path d="M8 1C9.54915 1 10.8555 1.46987 12 1.92334V9H3V3L3 2.99683C3.00081 2.74196 3.09844 2.48735 3.29289 2.29289C3.29289 2.29289 3.24894 2.33097 3.33929 2.24883C3.35926 2.23068 3.38378 2.20926 3.41312 2.1851C3.47183 2.13675 3.54962 2.07757 3.64842 2.0117C3.8464 1.87972 4.12656 1.72234 4.50361 1.57152C5.25949 1.26917 6.38728 1 8 1Z" fill="#F04438"/>
</svg>
