<svg width="24" height="24" viewBox="0 0 24 24" fill="none" xmlns="http://www.w3.org/2000/svg">
<path fill-rule="evenodd" clip-rule="evenodd" d="M15.3991 18.0747L19.589 11.3708C19.8049 11.0254 19.871 10.6071 19.7722 10.212L19.1978 7.91432C19.1319 7.65057 18.9955 7.4097 18.8033 7.21746L15.0251 3.43934C14.7438 3.15803 14.3623 3 13.9645 3H10.0355C9.63771 3 9.25618 3.15804 8.97487 3.43934L5.19675 7.21746C5.00451 7.4097 4.86813 7.65057 4.8022 7.91432L4.22778 10.212C4.129 10.6071 4.19514 11.0254 4.411 11.3708L8.60093 18.0747C8.69892 18.2315 8.82503 18.3688 8.97293 18.4797L11.1 20.075C11.6333 20.475 12.3667 20.475 12.9 20.075L15.0271 18.4797C15.175 18.3688 15.3011 18.2315 15.3991 18.0747ZM16.2471 18.6047L20.437 11.9008C20.7968 11.3252 20.907 10.628 20.7424 9.96946L20.1679 7.67178C20.0581 7.2322 19.8308 6.83075 19.5104 6.51036L15.7322 2.73223C15.2634 2.26339 14.6275 2 13.9645 2H10.0355C9.37249 2 8.73661 2.26339 8.26777 2.73223L4.48964 6.51036C4.16925 6.83075 3.94195 7.2322 3.83205 7.67178L3.25764 9.96946C3.093 10.628 3.20323 11.3252 3.563 11.9008L7.75293 18.6047C7.91624 18.866 8.12643 19.0948 8.37293 19.2797L10.5 20.875C11.3889 21.5417 12.6111 21.5417 13.5 20.875L15.6271 19.2797C15.8736 19.0948 16.0838 18.866 16.2471 18.6047Z" fill="#71491F"/>
<path d="M13.87 11.2891L19.816 10.6285C19.8209 10.4895 19.8065 10.3494 19.7722 10.212L19.1978 7.91433C19.1318 7.65058 18.9954 7.40971 18.8032 7.21747L15.0751 3.48941L13.0354 10.2885C12.7334 10.1054 12.379 10 12 10C10.8954 10 10 10.8954 10 12C10 13.1046 10.8954 14 12 14C13.1046 14 14 13.1046 14 12C14 11.7496 13.954 11.51 13.87 11.2891Z" fill="#EAAA08"/>
<path d="M13.0354 10.2886C12.8926 10.202 12.7381 10.1328 12.5748 10.0838L14.6502 3.16592C14.7874 3.23642 14.914 3.32827 15.0251 3.43933L15.0752 3.4894L13.0354 10.2886Z" fill="#FAC515"/>
<path d="M19.8161 10.6285C19.8099 10.805 19.7725 10.9796 19.7053 11.1439L13.9879 11.7791C13.9692 11.6084 13.9289 11.4442 13.87 11.2891L19.8161 10.6285Z" fill="#FAC515"/>
<path d="M12 14C13.0085 14 13.8427 13.2536 13.9801 12.2831L19.3949 11.6814L15.3991 18.0747C15.3011 18.2315 15.175 18.3688 15.0271 18.4797L12.9 20.075C12.3667 20.475 11.6334 20.475 11.1 20.075L8.97296 18.4797C8.94956 18.4621 8.9267 18.4439 8.90442 18.4251L11.4731 13.9299C11.641 13.9756 11.8177 14 12 14Z" fill="#FAC515"/>
<path d="M14.4526 3.08164C14.297 3.02808 14.1322 3 13.9645 3H10.0356C9.63773 3 9.2562 3.15804 8.9749 3.43934L5.23316 7.18109L10.6229 10.5497C10.9815 10.209 11.4664 10 12 10C12.026 10 12.0518 10.0005 12.0776 10.0015L14.1736 3.01465C14.2689 3.02806 14.3623 3.05056 14.4526 3.08164Z" fill="#FDE272"/>
<path d="M19.3949 11.6814L13.9801 12.2831C13.9932 12.1906 14 12.0961 14 12C14 11.9254 13.9959 11.8517 13.988 11.7791L19.7053 11.1439C19.6733 11.2221 19.6345 11.2981 19.589 11.3708L19.3949 11.6814Z" fill="#FDE272"/>
<path d="M11.0076 13.7368L8.56323 18.0144L8.60094 18.0747C8.68342 18.2067 8.78584 18.3248 8.9044 18.4251L11.4731 13.9299C11.3085 13.885 11.1524 13.8197 11.0076 13.7368Z" fill="#FDE272"/>
<path d="M14.1736 3.01465C14.3404 3.03813 14.5014 3.08947 14.6502 3.16593L12.5748 10.0838C12.4164 10.0364 12.2498 10.008 12.0775 10.0015L14.1736 3.01465Z" fill="#FEEE95"/>
<path d="M10.6228 10.5497C10.5009 10.6655 10.3935 10.7966 10.3038 10.9399L4.92932 7.58084C4.99932 7.44752 5.0893 7.3249 5.19674 7.21747L5.23312 7.18109L10.6228 10.5497Z" fill="#FEEE95"/>
<path d="M8.56322 18.0144L4.41099 11.3708C4.19513 11.0254 4.12899 10.6071 4.22777 10.212L4.76404 8.06714L10.0924 11.3974C10.0324 11.5875 10 11.79 10 12C10 12.5621 10.2319 13.07 10.6051 13.4333L8.26243 17.533L8.56322 18.0144Z" fill="#FEEE95"/>
<path d="M4.92938 7.58084C4.87412 7.68608 4.83133 7.79798 4.80224 7.91433L4.76404 8.06713L10.0924 11.3974C10.1437 11.2349 10.2151 11.0815 10.3038 10.9399L4.92938 7.58084Z" fill="#FEF7C3"/>
<path d="M11.0076 13.7368L8.56326 18.0144L8.26243 17.533L10.6052 13.4333C10.7256 13.5505 10.8607 13.6527 11.0076 13.7368Z" fill="#FEF7C3"/>
</svg>
