<svg width="24" height="24" viewBox="0 0 24 24" fill="none" xmlns="http://www.w3.org/2000/svg">
<mask id="mask0_3021_10503" style="mask-type:alpha" maskUnits="userSpaceOnUse" x="3" y="2" width="18" height="20">
<path d="M20.437 11.9008L16.2471 18.6047C16.0838 18.866 15.8736 19.0948 15.6271 19.2797L13.5 20.875C12.6111 21.5417 11.3889 21.5417 10.5 20.875L8.37293 19.2797C8.12643 19.0948 7.91624 18.866 7.75293 18.6047L3.563 11.9008C3.20323 11.3252 3.093 10.628 3.25764 9.96946L3.83205 7.67178C3.94195 7.2322 4.16925 6.83075 4.48964 6.51036L8.26777 2.73223C8.73661 2.26339 9.37249 2 10.0355 2H13.9645C14.6275 2 15.2634 2.26339 15.7322 2.73223L19.5104 6.51036C19.8308 6.83075 20.0581 7.2322 20.1679 7.67178L20.7424 9.96946C20.907 10.628 20.7968 11.3252 20.437 11.9008Z" fill="#A15C07"/>
</mask>
<g mask="url(#mask0_3021_10503)">
<path d="M7.99039 18.5129L3.2683 10.9576L4.15913 7.39427L11.6637 12.0846L7.99039 18.5129Z" fill="#FEEE95" stroke="#FEF7C3" stroke-width="0.5" stroke-linecap="round" stroke-linejoin="round"/>
<path d="M14.664 2.25L11.8547 11.6144L4.39899 6.95456L9.10355 2.25H14.664Z" fill="#FDE272" stroke="#FEEE95" stroke-width="0.5" stroke-linecap="round" stroke-linejoin="round"/>
<path d="M12 21.6875L8.32656 18.9324L12.154 12.2344L20.5142 11.3055L15.8127 18.828L12 21.6875Z" fill="#FAC515" stroke="#FDE272" stroke-width="0.5" stroke-linecap="round" stroke-linejoin="round"/>
<path d="M20.6881 10.7831L12.3481 11.7098L15.1192 2.47274L19.7743 7.12781L20.6881 10.7831Z" fill="#EAAA08" stroke="#FAC515" stroke-width="0.5" stroke-linecap="round" stroke-linejoin="round"/>
<path d="M20.013 11.6358L15.8231 18.3397C15.6924 18.5487 15.5243 18.7318 15.3271 18.8797L13.2 20.475C12.4889 21.0083 11.5111 21.0083 10.8 20.475L8.67293 18.8797C8.47573 18.7318 8.30758 18.5487 8.17693 18.3397L3.987 11.6358C3.69918 11.1753 3.611 10.6176 3.74271 10.0907L4.31713 7.79305C4.40504 7.44139 4.58688 7.12023 4.8432 6.86391L8.62132 3.08579C8.99639 2.71071 9.5051 2.5 10.0355 2.5H13.9645C14.4949 2.5 15.0036 2.71071 15.3787 3.08579L19.1568 6.86391C19.4131 7.12023 19.595 7.44139 19.6829 7.79305L20.2573 10.0907C20.389 10.6176 20.3008 11.1753 20.013 11.6358Z" stroke="#71491F" stroke-linecap="round" stroke-linejoin="round"/>
<circle cx="12" cy="12" r="2" fill="#EAAA08"/>
</g>
</svg>
