<svg width="48" height="48" viewBox="0 0 48 48" fill="none" xmlns="http://www.w3.org/2000/svg">
<path fill-rule="evenodd" clip-rule="evenodd" d="M17.5719 29C21.8573 29.0009 26.1426 29.0009 30.4279 29C31.8813 28.9996 32.8716 28.9994 33.7364 29.1519C37.8765 29.8819 41.118 33.1234 41.848 37.2635C42.0005 38.1283 42.0003 39.1187 41.9999 40.572C41.9999 40.8887 42.0096 41.2077 41.9543 41.521C41.7353 42.763 40.7629 43.7354 39.5209 43.9544C39.2485 44.0024 38.9616 44.0009 38.8189 44.0002C28.9406 43.9473 19.0592 43.9473 9.18094 44.0002C9.03822 44.0009 8.75131 44.0024 8.47897 43.9544C7.23693 43.7354 6.26449 42.763 6.04549 41.521C5.99024 41.2076 5.99995 40.8888 5.99988 40.572C5.99956 39.1187 5.99934 38.1283 6.15184 37.2635C6.88185 33.1234 10.1233 29.8819 14.2634 29.1519C15.1282 28.9994 16.1186 28.9996 17.5719 29Z" fill="#D3D4D9"/>
<path fill-rule="evenodd" clip-rule="evenodd" d="M12.9999 15C12.9999 8.92487 17.9248 4 23.9999 4C30.075 4 34.9999 8.92487 34.9999 15C34.9999 21.0751 30.075 26 23.9999 26C17.9248 26 12.9999 21.0751 12.9999 15Z" fill="#D3D4D9"/>
</svg>
