<svg width="48" height="48" viewBox="0 0 48 48" fill="none" xmlns="http://www.w3.org/2000/svg">
<path fill-rule="evenodd" clip-rule="evenodd" d="M17.5721 29C21.8574 29.0009 26.1427 29.0009 30.428 29C31.8814 28.9996 32.8717 28.9994 33.7365 29.1519C37.8766 29.8819 41.1181 33.1234 41.8481 37.2635C42.0006 38.1283 42.0004 39.1187 42.0001 40.572C42 40.8887 42.0097 41.2077 41.9545 41.521C41.7355 42.763 40.763 43.7354 39.521 43.9544C39.2486 44.0024 38.9617 44.0009 38.819 44.0002C28.9407 43.9473 19.0594 43.9473 9.18107 44.0002C9.03834 44.0009 8.75143 44.0024 8.47909 43.9544C7.23705 43.7354 6.26462 42.763 6.04561 41.521C5.99037 41.2076 6.00007 40.8888 6 40.572C5.99968 39.1187 5.99947 38.1283 6.15196 37.2635C6.88197 33.1234 10.1234 29.8819 14.2635 29.1519C15.1284 28.9994 16.1187 28.9996 17.5721 29Z" fill="#525461"/>
<path fill-rule="evenodd" clip-rule="evenodd" d="M13 15C13 8.92487 17.9249 4 24 4C30.0752 4 35 8.92487 35 15C35 21.0751 30.0752 26 24 26C17.9249 26 13 21.0751 13 15Z" fill="#525461"/>
</svg>
