<svg width="48" height="48" viewBox="0 0 48 48" fill="none" xmlns="http://www.w3.org/2000/svg">
<path fill-rule="evenodd" clip-rule="evenodd" d="M17.5722 29C21.8575 29.0009 26.1428 29.0009 30.4281 29C31.8815 28.9996 32.8718 28.9994 33.7366 29.1519C37.8768 29.8819 41.1182 33.1234 41.8482 37.2635C42.0007 38.1283 42.0005 39.1187 42.0002 40.572C42.0001 40.8887 42.0098 41.2077 41.9546 41.521C41.7356 42.763 40.7631 43.7354 39.5211 43.9544C39.2488 44.0024 38.9619 44.0009 38.8191 44.0002C28.9408 43.9473 19.0595 43.9473 9.18119 44.0002C9.03846 44.0009 8.75155 44.0024 8.47921 43.9544C7.23718 43.7354 6.26474 42.763 6.04573 41.521C5.99049 41.2076 6.0002 40.8888 6.00013 40.572C5.99981 39.1187 5.99959 38.1283 6.15208 37.2635C6.8821 33.1234 10.1236 29.8819 14.2637 29.1519C15.1285 28.9994 16.1188 28.9996 17.5722 29Z" fill="#525461"/>
<path fill-rule="evenodd" clip-rule="evenodd" d="M13.0002 15C13.0002 8.92487 17.925 4 24.0002 4C30.0753 4 35.0002 8.92487 35.0002 15C35.0002 21.0751 30.0753 26 24.0002 26C17.925 26 13.0002 21.0751 13.0002 15Z" fill="#525461"/>
</svg>
