<svg width="18" height="18" viewBox="0 0 18 18" fill="none" xmlns="http://www.w3.org/2000/svg">
<path fill-rule="evenodd" clip-rule="evenodd" d="M9.19368 6.01818C8.84454 5.95829 8.48547 6.0239 8.18007 6.20339C7.87466 6.38288 7.64264 6.66466 7.52509 6.99882C7.38763 7.38957 6.95945 7.5949 6.5687 7.45744C6.17796 7.31999 5.97263 6.8918 6.11009 6.50106C6.34519 5.83273 6.80924 5.26916 7.42004 4.91019C8.03084 4.55122 8.74898 4.42 9.44726 4.53977C10.1455 4.65954 10.7789 5.02258 11.2352 5.56459C11.6913 6.10642 11.941 6.79216 11.9401 7.5004C11.9399 8.64829 11.0888 9.40633 10.4811 9.81148C10.1544 10.0293 9.833 10.1895 9.59625 10.2947C9.47681 10.3478 9.37624 10.388 9.30376 10.4156C9.26746 10.4295 9.23804 10.4402 9.21661 10.4478L9.19056 10.4569L9.18227 10.4598L9.17935 10.4608L9.1782 10.4611C9.17797 10.4612 9.17726 10.4615 8.94641 9.76889L9.1782 10.4611C8.78524 10.5921 8.35956 10.3801 8.22857 9.98711C8.09776 9.59467 8.3094 9.17054 8.70136 9.03895C8.70188 9.03877 8.7024 9.0386 8.70292 9.03843L8.93996 9.74956C8.70292 9.03843 8.70311 9.03836 8.70292 9.03843L8.7141 9.03449C8.72564 9.03039 8.74455 9.02353 8.76977 9.01392C8.82034 8.99465 8.89555 8.96462 8.98705 8.92396C9.17217 8.84168 9.41329 8.72059 9.64906 8.5634C10.1663 8.2186 10.4401 7.85179 10.4401 7.49994L10.4401 7.49882C10.4406 7.14458 10.3158 6.80159 10.0876 6.53059C9.8595 6.25959 9.54282 6.07807 9.19368 6.01818ZM8.25009 12.7499C8.25009 12.3357 8.58587 11.9999 9.00009 11.9999H9.00759C9.4218 11.9999 9.75759 12.3357 9.75759 12.7499C9.75759 13.1642 9.4218 13.4999 9.00759 13.4999H9.00009C8.58587 13.4999 8.25009 13.1642 8.25009 12.7499Z" fill="#EDEDEF"/>
</svg>
