<svg width="18" height="18" viewBox="0 0 18 18" fill="none" xmlns="http://www.w3.org/2000/svg">
<g clip-path="url(#clip0_3605_611003)">
<path fill-rule="evenodd" clip-rule="evenodd" d="M9 2.25C5.27208 2.25 2.25 5.27208 2.25 9C2.25 10.5938 2.80235 12.0585 3.72608 13.2133L6.59467 10.3447C6.88756 10.0518 7.36244 10.0518 7.65533 10.3447C7.94822 10.6376 7.94822 11.1124 7.65533 11.4053L4.78674 14.2739C5.94149 15.1976 7.40624 15.75 9 15.75C12.7279 15.75 15.75 12.7279 15.75 9C15.75 7.40624 15.1976 5.94149 14.2739 4.78674L11.4053 7.65533C11.1124 7.94822 10.6376 7.94822 10.3447 7.65533C10.0518 7.36244 10.0518 6.88756 10.3447 6.59467L13.2133 3.72608C12.0585 2.80235 10.5938 2.25 9 2.25ZM0.75 9C0.75 4.44365 4.44365 0.75 9 0.75C13.5563 0.75 17.25 4.44365 17.25 9C17.25 13.5563 13.5563 17.25 9 17.25C4.44365 17.25 0.75 13.5563 0.75 9Z" fill="#E0E2E6"/>
</g>
<defs>
<clipPath id="clip0_3605_611003">
<rect width="18" height="18" fill="white"/>
</clipPath>
</defs>
</svg>
