<svg width="18" height="18" viewBox="0 0 18 18" fill="none" xmlns="http://www.w3.org/2000/svg">
<g clip-path="url(#clip0_3042_11982)">
<path fill-rule="evenodd" clip-rule="evenodd" d="M9 2.25C5.27208 2.25 2.25 5.27208 2.25 9C2.25 10.5938 2.80235 12.0585 3.72608 13.2133L13.2133 3.72608C12.0585 2.80235 10.5938 2.25 9 2.25ZM14.2739 4.78674L4.78674 14.2739C5.94149 15.1976 7.40624 15.75 9 15.75C12.7279 15.75 15.75 12.7279 15.75 9C15.75 7.40624 15.1976 5.94149 14.2739 4.78674ZM0.75 9C0.75 4.44365 4.44365 0.75 9 0.75C13.5563 0.75 17.25 4.44365 17.25 9C17.25 13.5563 13.5563 17.25 9 17.25C4.44365 17.25 0.75 13.5563 0.75 9Z" fill="#393D48"/>
</g>
<defs>
<clipPath id="clip0_3042_11982">
<rect width="18" height="18" fill="white"/>
</clipPath>
</defs>
</svg>
