<svg width="24" height="24" viewBox="0 0 24 24" fill="none" xmlns="http://www.w3.org/2000/svg">
<path d="M10 1.25C9.58579 1.25 9.25 1.58579 9.25 2C9.25 2.41421 9.58579 2.75 10 2.75H11.25V4.27997C6.49211 4.66173 2.75 8.64386 2.75 13.5C2.75 18.6086 6.89137 22.75 12 22.75C11.5858 22.75 11.25 22.4142 11.25 22C11.25 21.5858 11.5858 21.25 12 21.25C7.71979 21.25 4.25 17.7802 4.25 13.5C4.25 9.21979 7.71979 5.75 12 5.75C16.2802 5.75 19.75 9.21979 19.75 13.5C19.75 13.0858 20.0858 12.75 20.5 12.75C20.9142 12.75 21.25 13.0858 21.25 13.5C21.25 8.64386 17.5079 4.66173 12.75 4.27997V2.75H14C14.4142 2.75 14.75 2.41421 14.75 2C14.75 1.58579 14.4142 1.25 14 1.25H10Z" fill="#E0E2E6"/>
<path d="M5.70135 4.62237C5.99424 4.32948 5.99424 3.8546 5.70135 3.56171C5.40846 3.26882 4.93358 3.26882 4.64069 3.56171L3.14069 5.06171C2.8478 5.3546 2.8478 5.82948 3.14069 6.12237C3.43358 6.41526 3.90846 6.41526 4.20135 6.12237L5.70135 4.62237Z" fill="#E0E2E6"/>
<path d="M19.3593 3.56171C19.0664 3.26882 18.5915 3.26882 18.2986 3.56171C18.0058 3.8546 18.0058 4.32948 18.2986 4.62237L19.7986 6.12237C20.0915 6.41526 20.5664 6.41526 20.8593 6.12237C21.1522 5.82948 21.1522 5.3546 20.8593 5.06171L19.3593 3.56171Z" fill="#E0E2E6"/>
<path d="M12.75 9.5C12.75 9.08579 12.4142 8.75 12 8.75C11.5858 8.75 11.25 9.08579 11.25 9.5V13.5C11.25 13.7634 11.3882 14.0076 11.6141 14.1431L14.1141 15.6431C14.4693 15.8562 14.93 15.7411 15.1431 15.3859C15.3562 15.0307 15.2411 14.57 14.8859 14.3569L12.75 13.0754V9.5Z" fill="#E0E2E6"/>
<path fill-rule="evenodd" clip-rule="evenodd" d="M20.5 12.75C20.9142 12.75 21.25 13.0858 21.25 13.5C21.25 13.9088 21.2234 14.3118 21.1719 14.7072C21.1183 15.1179 20.7419 15.4075 20.3311 15.3539C19.9204 15.3003 19.6309 14.9239 19.6845 14.5132C19.7277 14.1819 19.75 13.8437 19.75 13.5C19.75 13.0858 20.0858 12.75 20.5 12.75ZM20.1423 16.0609C20.5249 16.2196 20.7065 16.6584 20.5478 17.041C20.2358 17.7934 19.8275 18.4954 19.3386 19.1317C19.0862 19.4601 18.6153 19.5217 18.2869 19.2694C17.9585 19.017 17.8968 18.5461 18.1492 18.2177C18.5592 17.6841 18.9011 17.0961 19.1622 16.4664C19.3209 16.0838 19.7597 15.9022 20.1423 16.0609ZM17.7694 19.7869C18.0217 20.1153 17.9601 20.5862 17.6317 20.8386C16.9954 21.3275 16.2934 21.7358 15.541 22.0478C15.1584 22.2065 14.7196 22.0249 14.5609 21.6423C14.4022 21.2597 14.5838 20.8209 14.9664 20.6622C15.5961 20.4011 16.1841 20.0592 16.7177 19.6492C17.0461 19.3968 17.517 19.4585 17.7694 19.7869ZM13.8539 21.8311C13.9075 22.2419 13.6179 22.6183 13.2072 22.6719C12.8118 22.7234 12.4088 22.75 12 22.75C11.5858 22.75 11.25 22.4142 11.25 22C11.25 21.5858 11.5858 21.25 12 21.25C12.3437 21.25 12.6819 21.2277 13.0132 21.1845C13.4239 21.1309 13.8003 21.4204 13.8539 21.8311Z" fill="#D92D20"/>
</svg>
