<svg width="24" height="24" viewBox="0 0 24 24" fill="none" xmlns="http://www.w3.org/2000/svg">
<path d="M15.75 4.25C15.75 3.14543 14.8546 2.25 13.75 2.25L10.25 2.25C9.14543 2.25 8.25 3.14543 8.25 4.25V8.25H4.25C3.14543 8.25 2.25 9.14543 2.25 10.25V13.75C2.25 14.8546 3.14543 15.75 4.25 15.75H8.25V19.75C8.25 20.8546 9.14543 21.75 10.25 21.75H13.75C14.8546 21.75 15.75 20.8546 15.75 19.75V15.75H19.75C20.8546 15.75 21.75 14.8546 21.75 13.75V10.25C21.75 9.14543 20.8546 8.25 19.75 8.25H15.75V4.25Z" fill="#D92D20"/>
</svg>
