<svg width="24" height="24" viewBox="0 0 24 24" fill="none" xmlns="http://www.w3.org/2000/svg">
<path fill-rule="evenodd" clip-rule="evenodd" d="M15.376 13.084C15.6058 12.7393 16.0714 12.6462 16.4161 12.876L22.416 16.876C22.6247 17.0151 22.75 17.2492 22.75 17.5C22.75 19.2216 21.2354 20.5304 19.3788 21.3659C17.4518 22.2331 14.8424 22.75 12 22.75C9.15764 22.75 6.54815 22.2331 4.62116 21.3659C2.76457 20.5304 1.25 19.2216 1.25 17.5C1.25 17.2492 1.37533 17.015 1.58398 16.8759L7.58398 12.876C7.92862 12.6462 8.39427 12.7393 8.62404 13.084C8.8538 13.4286 8.76067 13.8943 8.41602 14.124L2.80315 17.8659C2.99887 18.5513 3.7467 19.3275 5.23671 19.998C6.929 20.7596 9.31952 21.25 12 21.25C14.6805 21.25 17.071 20.7596 18.7633 19.998C20.2533 19.3275 21.0011 18.5513 21.1969 17.8659L15.584 14.124C15.2394 13.8943 15.1462 13.4286 15.376 13.084Z" fill="#079455"/>
<path fill-rule="evenodd" clip-rule="evenodd" d="M11.634 2.34528C11.8712 2.21274 12.1616 2.21885 12.393 2.36126L17.7107 5.6337C17.7186 5.63855 17.7265 5.6434 17.7343 5.64824C17.9077 5.75487 18.0788 5.86013 18.2115 5.95961C18.3471 6.06122 18.5453 6.22899 18.6549 6.49548C18.7898 6.82335 18.7791 7.19308 18.6255 7.51262C18.5007 7.77234 18.2932 7.9284 18.152 8.02202C18.0137 8.11368 17.8368 8.20889 17.6576 8.30534C17.6495 8.30973 17.6414 8.31411 17.6332 8.3185L12.7499 10.948V17C12.7499 17.4142 12.4141 17.75 11.9999 17.75C11.5857 17.75 11.2499 17.4142 11.2499 17V10.5154C11.2497 10.5056 11.2497 10.4957 11.2499 10.4859V3C11.2499 2.72829 11.3969 2.47783 11.634 2.34528ZM12.7499 9.24434L16.9221 6.99779C16.9489 6.98336 16.9742 6.96969 16.9984 6.95666C16.975 6.94226 16.9505 6.92714 16.9246 6.91119L12.7499 4.34217V9.24434Z" fill="#393D48"/>
</svg>
