<svg width="24" height="24" viewBox="0 0 24 24" fill="none" xmlns="http://www.w3.org/2000/svg">
<path d="M16 13.5L22 17.5C22 19.9853 17.5228 22 12 22C6.47715 22 2 19.9853 2 17.5L8 13.5" stroke="#079455" stroke-width="1.5" stroke-linecap="round" stroke-linejoin="round"/>
<path d="M11.25 17C11.25 17.4142 11.5858 17.75 12 17.75C12.4142 17.75 12.75 17.4142 12.75 17H11.25ZM12 3L12.3931 2.36126C12.1617 2.21885 11.8713 2.21274 11.6341 2.34528C11.397 2.47783 11.25 2.72829 11.25 3H12ZM11.6444 9.83965C11.2797 10.036 11.1433 10.4909 11.3396 10.8556C11.536 11.2203 11.9909 11.3567 12.3556 11.1604L11.6444 9.83965ZM17.2777 7.65815L16.9222 6.99779L16.9222 6.99779L17.2777 7.65815ZM17.9497 7.18771L18.6256 7.51262L18.6256 7.51262L17.9497 7.18771ZM17.3177 6.27244L16.9246 6.91119L16.9246 6.91119L17.3177 6.27244ZM17.9614 6.78085L18.655 6.49548L17.9614 6.78085ZM12.75 17V3H11.25V17H12.75ZM12.3556 11.1604L17.6333 8.3185L16.9222 6.99779L11.6444 9.83965L12.3556 11.1604ZM17.7108 5.6337L12.3931 2.36126L11.6069 3.63874L16.9246 6.91119L17.7108 5.6337ZM17.6333 8.3185C17.8208 8.21755 18.0075 8.11785 18.1521 8.02202C18.2933 7.9284 18.5008 7.77234 18.6256 7.51262L17.2737 6.8628C17.3281 6.74963 17.4001 6.72083 17.3232 6.77181C17.2914 6.79291 17.2451 6.82077 17.1752 6.85997C17.1056 6.89897 17.0241 6.94291 16.9222 6.99779L17.6333 8.3185ZM16.9246 6.91119C17.0232 6.97186 17.1021 7.02043 17.1693 7.06338C17.2368 7.10654 17.2815 7.13703 17.312 7.15994C17.3859 7.21527 17.3156 7.18236 17.2678 7.06623L18.655 6.49548C18.5454 6.22899 18.3472 6.06122 18.2116 5.95961C18.0728 5.85561 17.8921 5.7453 17.7108 5.6337L16.9246 6.91119ZM18.6256 7.51262C18.7792 7.19308 18.7899 6.82335 18.655 6.49548L17.2678 7.06623C17.2409 7.00066 17.243 6.92671 17.2737 6.8628L18.6256 7.51262Z" fill="#393D48"/>
</svg>
