<svg width="24" height="24" viewBox="0 0 24 24" fill="none" xmlns="http://www.w3.org/2000/svg">
<path d="M6.81743 6.1503L11.1056 4.00623C11.6686 3.7247 12.3314 3.7247 12.8944 4.00623L17.1826 6.1503C17.4939 6.30596 17.7592 6.54016 17.9522 6.82976L20.6595 10.8906C21.1073 11.5624 21.1073 12.4376 20.6595 13.1094L17.9522 17.1702C17.7592 17.4598 17.4939 17.694 17.1826 17.8497L12.8944 19.9938C12.3314 20.2753 11.6686 20.2753 11.1056 19.9938L6.81743 17.8497C6.50612 17.694 6.24082 17.4598 6.04775 17.1702L3.34053 13.1094C2.89266 12.4376 2.89266 11.5624 3.34053 10.8906L6.04775 6.82976C6.24082 6.54016 6.50612 6.30596 6.81743 6.1503Z" fill="#A6EF67" stroke="#2B5314" stroke-linecap="round" stroke-linejoin="round"/>
<path d="M10.5837 7.47372L6.99652 9.9399C5.55161 10.9333 5.55161 13.0667 6.99652 14.0601L10.5837 16.5263C11.4368 17.1128 12.5632 17.1128 13.4163 16.5263L17.0035 14.0601C18.4484 13.0667 18.4484 10.9333 17.0035 9.93989L13.4163 7.47372C12.5632 6.88719 11.4368 6.88719 10.5837 7.47372Z" fill="#2B5314"/>
<circle cx="12" cy="12" r="2" fill="#A6EF67"/>
</svg>
