<svg width="24" height="24" viewBox="0 0 24 24" fill="none" xmlns="http://www.w3.org/2000/svg">
<path fill-rule="evenodd" clip-rule="evenodd" d="M10.5837 7.47371L6.99652 9.93988C5.55162 10.9333 5.55162 13.0667 6.99652 14.0601L10.5837 16.5263C11.4368 17.1128 12.5632 17.1128 13.4163 16.5263L17.0035 14.0601C18.4484 13.0667 18.4484 10.9333 17.0035 9.93988L13.4163 7.47371C12.5632 6.88718 11.4368 6.88718 10.5837 7.47371ZM14 12C14 13.1046 13.1046 14 12 14C10.8954 14 10 13.1046 10 12C10 10.8954 10.8954 10 12 10C13.1046 10 14 10.8954 14 12Z" fill="#2B5314"/>
<path fill-rule="evenodd" clip-rule="evenodd" d="M6.59383 5.70308L10.882 3.55901C11.5858 3.2071 12.4142 3.2071 13.118 3.55901L17.4062 5.70308C17.7953 5.89765 18.127 6.1904 18.3683 6.5524L21.0755 10.6132C21.6353 11.453 21.6353 12.547 21.0755 13.3867L18.3683 17.4476C18.127 17.8096 17.7953 18.1023 17.4062 18.2969L13.118 20.441C12.4142 20.7929 11.5858 20.7929 10.882 20.441L6.59383 18.2969C6.2047 18.1023 5.87307 17.8096 5.63174 17.4476L2.92451 13.3867C2.36468 12.547 2.36468 11.453 2.92451 10.6132L5.63174 6.5524C5.87307 6.1904 6.2047 5.89765 6.59383 5.70308ZM7.04105 6.59751L11.3292 4.45343C11.7515 4.24229 12.2485 4.24229 12.6708 4.45343L16.959 6.59751C17.1925 6.71425 17.3914 6.8899 17.5362 7.1071L20.2435 11.1679C20.5794 11.6718 20.5794 12.3282 20.2435 12.832L17.5362 16.8929C17.3914 17.1101 17.1925 17.2857 16.959 17.4025L12.6708 19.5465C12.2485 19.7577 11.7515 19.7577 11.3292 19.5465L7.04105 17.4025C6.80756 17.2857 6.60859 17.1101 6.46379 16.8929L3.75656 12.832C3.42066 12.3282 3.42066 11.6718 3.75656 11.1679L6.46379 7.1071C6.60859 6.8899 6.80756 6.71425 7.04105 6.59751Z" fill="#2B5314"/>
<path d="M12 14C13.1046 14 14 13.1046 14 12C14 10.8954 13.1046 10 12 10C10.8954 10 10 10.8954 10 12C10 13.1046 10.8954 14 12 14Z" fill="#A6EF67"/>
<path fill-rule="evenodd" clip-rule="evenodd" d="M7.04105 6.59751L11.3292 4.45343C11.7515 4.24229 12.2485 4.24229 12.6708 4.45343L16.959 6.59751C17.1925 6.71425 17.3914 6.8899 17.5362 7.1071L20.2435 11.1679C20.5794 11.6718 20.5794 12.3282 20.2435 12.832L17.5362 16.8929C17.3914 17.1101 17.1925 17.2857 16.959 17.4025L12.6708 19.5465C12.2485 19.7577 11.7515 19.7577 11.3292 19.5465L7.04105 17.4025C6.80756 17.2857 6.60859 17.1101 6.46379 16.8929L3.75656 12.832C3.42066 12.3282 3.42066 11.6718 3.75656 11.1679L6.46379 7.1071C6.60859 6.8899 6.80756 6.71425 7.04105 6.59751ZM10.5837 7.47371L6.99652 9.93988C5.55162 10.9333 5.55162 13.0667 6.99652 14.0601L10.5837 16.5263C11.4368 17.1128 12.5632 17.1128 13.4163 16.5263L17.0035 14.0601C18.4484 13.0667 18.4484 10.9333 17.0035 9.93988L13.4163 7.47371C12.5632 6.88718 11.4368 6.88718 10.5837 7.47371Z" fill="#A6EF67"/>
</svg>
