<svg width="24" height="24" viewBox="0 0 24 24" fill="none" xmlns="http://www.w3.org/2000/svg">
<path d="M12 4.75C9.37664 4.75 7.24999 6.87665 7.24999 9.5C7.24999 12.1234 9.37664 14.25 12 14.25C14.6233 14.25 16.75 12.1234 16.75 9.5C16.75 6.87665 14.6233 4.75 12 4.75Z" fill="#393D48"/>
<path fill-rule="evenodd" clip-rule="evenodd" d="M12 22.75C17.9371 22.75 22.75 17.9371 22.75 12C22.75 6.06294 17.9371 1.25 12 1.25C6.06294 1.25 1.25 6.06294 1.25 12C1.25 17.9371 6.06294 22.75 12 22.75ZM2.75 12C2.75 6.89137 6.89137 2.75 12 2.75C17.1086 2.75 21.25 6.89137 21.25 12C21.25 14.3934 20.341 16.5745 18.8494 18.2168C17.9869 17.0258 16.5846 16.25 15 16.25H8.99999C7.41538 16.25 6.01309 17.0258 5.15055 18.2168C3.65898 16.5744 2.75 14.3934 2.75 12Z" fill="#393D48"/>
</svg>
