<svg width="48" height="48" viewBox="0 0 48 48" fill="none" xmlns="http://www.w3.org/2000/svg">
<g clip-path="url(#clip0_3119_20453)">
<path d="M5 4C2.23858 4 0 6.23858 0 9V39C0 41.7614 2.23858 44 5 44H43C45.7614 44 48 41.7614 48 39V9C48 6.23858 45.7614 4 43 4H5Z" fill="#F04438"/>
<path d="M3.96387 29.98C3.96387 30.5323 4.41158 30.98 4.96387 30.98H10.9039C11.4562 30.98 11.9039 30.5323 11.9039 29.98C11.9039 29.4277 11.4562 28.98 10.9039 28.98H7.22387C6.67158 28.98 6.22387 28.5323 6.22387 27.98V18.02C6.22387 17.4677 5.77615 17.02 5.22387 17.02H4.96387C4.41158 17.02 3.96387 17.4677 3.96387 18.02V29.98Z" fill="white"/>
<path d="M13.6177 30.06C13.6177 30.5681 14.0296 30.98 14.5377 30.98H18.7777C19.2858 30.98 19.6977 30.5681 19.6977 30.06C19.6977 29.5519 19.2858 29.14 18.7777 29.14H18.7377C18.2075 29.14 17.7777 28.7102 17.7777 28.18V19.82C17.7777 19.2898 18.2075 18.86 18.7377 18.86H18.7777C19.2858 18.86 19.6977 18.4481 19.6977 17.94C19.6977 17.4319 19.2858 17.02 18.7777 17.02H14.5377C14.0296 17.02 13.6177 17.4319 13.6177 17.94C13.6177 18.4481 14.0296 18.86 14.5377 18.86H14.5677C15.0923 18.86 15.5177 19.2853 15.5177 19.81V28.19C15.5177 28.7147 15.0923 29.14 14.5677 29.14H14.5377C14.0296 29.14 13.6177 29.5519 13.6177 30.06Z" fill="white"/>
<path d="M26.4822 30.98C26.05 30.98 25.6668 30.7024 25.532 30.2918L21.6082 18.3318C21.396 17.6851 21.8778 17.02 22.5584 17.02H22.7891C23.2234 17.02 23.608 17.3003 23.741 17.7137L25.7378 23.92L27.0672 28.7414C27.0735 28.7642 27.0942 28.78 27.1179 28.78C27.1415 28.78 27.1622 28.7643 27.1686 28.7416L28.5178 23.92L30.5146 17.7137C30.6477 17.3003 31.0323 17.02 31.4666 17.02H31.6317C32.3139 17.02 32.7958 17.6881 32.5806 18.3354L28.6054 30.2954C28.4695 30.7042 28.0872 30.98 27.6564 30.98H26.4822Z" fill="white"/>
<path d="M35.0967 29.98C35.0967 30.5323 35.5444 30.98 36.0967 30.98H43.0367C43.589 30.98 44.0367 30.5323 44.0367 29.98C44.0367 29.4277 43.589 28.98 43.0367 28.98H38.3567C37.8044 28.98 37.3567 28.5323 37.3567 27.98V25.9C37.3567 25.3477 37.8044 24.9 38.3567 24.9H42.4167C42.969 24.9 43.4167 24.4523 43.4167 23.9C43.4167 23.3477 42.969 22.9 42.4167 22.9H38.3567C37.8044 22.9 37.3567 22.4523 37.3567 21.9V20.02C37.3567 19.4677 37.8044 19.02 38.3567 19.02H43.0367C43.589 19.02 44.0367 18.5723 44.0367 18.02C44.0367 17.4677 43.589 17.02 43.0367 17.02H36.0967C35.5444 17.02 35.0967 17.4677 35.0967 18.02V29.98Z" fill="white"/>
</g>
<defs>
<clipPath id="clip0_3119_20453">
<path d="M0 5C0 2.23858 2.23858 0 5 0H43C45.7614 0 48 2.23858 48 5V43C48 45.7614 45.7614 48 43 48H5C2.23858 48 0 45.7614 0 43V5Z" fill="white"/>
</clipPath>
</defs>
</svg>
