<svg width="48" height="48" viewBox="0 0 48 48" fill="none" xmlns="http://www.w3.org/2000/svg">
<g clip-path="url(#clip0_3119_20453)">
<path d="M5 4C2.23858 4 0 6.23858 0 9V39C0 41.7614 2.23858 44 5 44H43C45.7614 44 48 41.7614 48 39V9C48 6.23858 45.7614 4 43 4H5Z" fill="#F04438"/>
<path d="M4.96362 30.98C4.41134 30.98 3.96362 30.5323 3.96362 29.98V18.02C3.96362 17.4677 4.41134 17.02 4.96362 17.02H5.22362C5.77591 17.02 6.22362 17.4677 6.22362 18.02V27.98C6.22362 28.5323 6.67134 28.98 7.22362 28.98H10.9036C11.4559 28.98 11.9036 29.4277 11.9036 29.98C11.9036 30.5323 11.4559 30.98 10.9036 30.98H4.96362Z" fill="white"/>
<path d="M14.5377 30.98C14.0296 30.98 13.6177 30.5681 13.6177 30.06C13.6177 29.5519 14.0296 29.14 14.5377 29.14H14.5677C15.0923 29.14 15.5177 28.7147 15.5177 28.19V19.81C15.5177 19.2853 15.0923 18.86 14.5677 18.86H14.5377C14.0296 18.86 13.6177 18.4481 13.6177 17.94C13.6177 17.4319 14.0296 17.02 14.5377 17.02H18.7777C19.2858 17.02 19.6977 17.4319 19.6977 17.94C19.6977 18.4481 19.2858 18.86 18.7777 18.86H18.7377C18.2075 18.86 17.7777 19.2898 17.7777 19.82V28.18C17.7777 28.7102 18.2075 29.14 18.7377 29.14H18.7777C19.2858 29.14 19.6977 29.5519 19.6977 30.06C19.6977 30.5681 19.2858 30.98 18.7777 30.98H14.5377Z" fill="white"/>
<path d="M26.4825 30.98C26.0503 30.98 25.667 30.7024 25.5323 30.2918L21.6084 18.3318C21.3963 17.6851 21.878 17.02 22.5586 17.02H22.7893C23.2236 17.02 23.6083 17.3003 23.7413 17.7137L25.7381 23.92L27.0674 28.7414C27.0737 28.7642 27.0945 28.78 27.1182 28.78C27.1418 28.78 27.1625 28.7643 27.1688 28.7416L28.5181 23.92L30.5149 17.7137C30.6479 17.3003 31.0325 17.02 31.4668 17.02H31.6319C32.3141 17.02 32.796 17.6881 32.5809 18.3354L28.6056 30.2954C28.4698 30.7042 28.0874 30.98 27.6567 30.98H26.4825Z" fill="white"/>
<path d="M36.0967 30.98C35.5444 30.98 35.0967 30.5323 35.0967 29.98V18.02C35.0967 17.4677 35.5444 17.02 36.0967 17.02H43.0367C43.589 17.02 44.0367 17.4677 44.0367 18.02C44.0367 18.5723 43.589 19.02 43.0367 19.02H38.3567C37.8044 19.02 37.3567 19.4677 37.3567 20.02V21.9C37.3567 22.4523 37.8044 22.9 38.3567 22.9H42.4167C42.969 22.9 43.4167 23.3477 43.4167 23.9C43.4167 24.4523 42.969 24.9 42.4167 24.9H38.3567C37.8044 24.9 37.3567 25.3477 37.3567 25.9V27.98C37.3567 28.5323 37.8044 28.98 38.3567 28.98H43.0367C43.589 28.98 44.0367 29.4277 44.0367 29.98C44.0367 30.5323 43.589 30.98 43.0367 30.98H36.0967Z" fill="white"/>
</g>
<defs>
<clipPath id="clip0_3119_20453">
<path d="M0 5C0 2.23858 2.23858 0 5 0H43C45.7614 0 48 2.23858 48 5V43C48 45.7614 45.7614 48 43 48H5C2.23858 48 0 45.7614 0 43V5Z" fill="white"/>
</clipPath>
</defs>
</svg>
