<svg width="24" height="24" viewBox="0 0 24 24" fill="none" xmlns="http://www.w3.org/2000/svg">
<path fill-rule="evenodd" clip-rule="evenodd" d="M12 2.25C6.61522 2.25 2.25 6.61522 2.25 12C2.25 13.2955 2.50307 14.5338 2.96318 15.6667C3.00531 15.7705 3.03132 15.8347 3.04957 15.8832C3.06152 15.9151 3.06587 15.9292 3.06682 15.9323C3.07048 15.949 3.07116 15.9551 3.07131 15.9565C3.07146 15.9579 3.07218 15.9643 3.07221 15.9831C3.07206 15.9858 3.07128 15.9971 3.06773 16.0233C3.0621 16.0648 3.05308 16.1195 3.03731 16.2141L2.44022 19.7966C2.41274 19.9613 2.38451 20.1304 2.37362 20.2748C2.36191 20.4299 2.36022 20.653 2.45949 20.8845C2.58591 21.1792 2.82079 21.4141 3.11555 21.5405C3.34697 21.6398 3.57009 21.6381 3.72522 21.6264C3.86956 21.6155 4.0387 21.5873 4.20333 21.5598L7.78595 20.9627C7.88053 20.9469 7.93517 20.9379 7.97672 20.9323C8.01465 20.9271 8.02127 20.9278 8.01604 20.9278C8.03545 20.9278 8.04223 20.9285 8.04365 20.9287C8.04501 20.9289 8.05108 20.9295 8.06768 20.9332C8.07082 20.9341 8.08494 20.9385 8.11676 20.9504C8.16534 20.9687 8.22955 20.9947 8.33328 21.0368C9.4662 21.4969 10.7045 21.75 12 21.75C17.3848 21.75 21.75 17.3848 21.75 12C21.75 6.61522 17.3848 2.25 12 2.25ZM7 9.5C7 8.94772 7.44772 8.5 8 8.5H12C12.5523 8.5 13 8.94772 13 9.5C13 10.0523 12.5523 10.5 12 10.5H8C7.44772 10.5 7 10.0523 7 9.5ZM7 13C7 12.4477 7.44772 12 8 12H15C15.5523 12 16 12.4477 16 13C16 13.5523 15.5523 14 15 14H8C7.44772 14 7 13.5523 7 13Z" fill="#E0E2E6"/>
</svg>
