<svg width="24" height="24" viewBox="0 0 24 24" fill="none" xmlns="http://www.w3.org/2000/svg">
<path fill-rule="evenodd" clip-rule="evenodd" d="M1.25 12C1.25 6.06294 6.06294 1.25 12 1.25C17.9371 1.25 22.75 6.06294 22.75 12C22.75 17.9371 17.9371 22.75 12 22.75C6.06294 22.75 1.25 17.9371 1.25 12ZM9.59974 8.11617C9.5 8.2494 9.5 8.48804 9.5 8.96533V15.0347C9.5 15.5119 9.5 15.7506 9.59974 15.8838C9.68666 15.9999 9.81971 16.0726 9.96438 16.0829C10.1304 16.0948 10.3311 15.9657 10.7326 15.7076L15.4532 12.6729C15.8016 12.449 15.9758 12.337 16.0359 12.1946C16.0885 12.0702 16.0885 11.9298 16.0359 11.8054C15.9758 11.663 15.8016 11.551 15.4532 11.3271L10.7326 8.29239C10.3311 8.03429 10.1304 7.90524 9.96438 7.9171C9.81971 7.92743 9.68666 8.00007 9.59974 8.11617Z" fill="#E0E2E6"/>
</svg>
