<svg width="96" height="96" viewBox="0 0 96 96" fill="none" xmlns="http://www.w3.org/2000/svg">
<path fill-rule="evenodd" clip-rule="evenodd" d="M24 32C24 18.7452 34.7452 8 48 8C61.2548 8 72 18.7452 72 32V36.6013C73.1304 36.849 74.2154 37.2097 75.2639 37.7439C78.2744 39.2779 80.7221 41.7256 82.2561 44.7362C83.2453 46.6775 83.6395 48.7443 83.8232 50.9927C84.0001 53.1575 84.0001 55.8149 84 59.0347V64.9653C84.0001 68.1851 84.0001 70.8425 83.8232 73.0073C83.6395 75.2557 83.2453 77.3225 82.2561 79.2639C80.7221 82.2744 78.2744 84.7221 75.2639 86.2561C73.3225 87.2453 71.2557 87.6395 69.0073 87.8232C66.8425 88.0001 64.185 88.0001 60.9651 88H35.0349C31.815 88.0001 29.1575 88.0001 26.9927 87.8232C24.7443 87.6395 22.6775 87.2453 20.7362 86.2561C17.7256 84.7221 15.2779 82.2744 13.7439 79.2639C12.7547 77.3225 12.3605 75.2557 12.1768 73.0073C11.9999 70.8426 12 68.1851 12 64.9653V59.0347C12 55.8149 11.9999 53.1574 12.1768 50.9927C12.3605 48.7443 12.7547 46.6775 13.7439 44.7362C15.2779 41.7256 17.7256 39.2779 20.7362 37.7439C21.7846 37.2097 22.8696 36.849 24 36.6013V32ZM64 32V36.0065H32V32C32 23.1634 39.1634 16 48 16C56.8366 16 64 23.1634 64 32ZM52 58C52 55.7909 50.2091 54 48 54C45.7909 54 44 55.7909 44 58V66C44 68.2091 45.7909 70 48 70C50.2091 70 52 68.2091 52 66V58Z" fill="#FDB022"/>
</svg>
