<svg width="18" height="18" viewBox="0 0 18 18" fill="none" xmlns="http://www.w3.org/2000/svg">
<path fill-rule="evenodd" clip-rule="evenodd" d="M16.6553 1.34469C16.8666 1.55596 16.9323 1.87248 16.8226 2.1504L11.1976 16.4004C11.0864 16.6822 10.8166 16.8694 10.5137 16.8749C10.2108 16.8804 9.93431 16.7032 9.81288 16.4256L7.30551 10.6945L1.57439 8.18714C1.29685 8.06572 1.1196 7.78924 1.12513 7.48635C1.13065 7.18346 1.31784 6.91364 1.59963 6.80241L15.8496 1.17741C16.1275 1.0677 16.4441 1.13342 16.6553 1.34469ZM8.7673 10.2934L10.4644 14.1725L14.1011 4.95959L8.7673 10.2934ZM13.0404 3.89893L3.82751 7.53561L7.70664 9.23273L13.0404 3.89893Z" fill="#393D48"/>
</svg>
