<svg width="18" height="18" viewBox="0 0 18 18" fill="none" xmlns="http://www.w3.org/2000/svg">
<path fill-rule="evenodd" clip-rule="evenodd" d="M7.125 3C5.88236 3 4.875 4.00736 4.875 5.25C4.875 6.49264 5.88236 7.5 7.125 7.5C8.36764 7.5 9.375 6.49264 9.375 5.25C9.375 4.00736 8.36764 3 7.125 3ZM3.375 5.25C3.375 3.17893 5.05393 1.5 7.125 1.5C9.19607 1.5 10.875 3.17893 10.875 5.25C10.875 7.32107 9.19607 9 7.125 9C5.05393 9 3.375 7.32107 3.375 5.25ZM10.9298 2.18666C11.0852 1.80271 11.5225 1.61745 11.9064 1.77287C13.2793 2.32861 14.25 3.67505 14.25 5.25C14.25 6.82495 13.2793 8.17139 11.9064 8.72713C11.5225 8.88255 11.0852 8.69729 10.9298 8.31334C10.7744 7.92939 10.9596 7.49215 11.3436 7.33673C12.1695 7.00239 12.75 6.19308 12.75 5.25C12.75 4.30692 12.1695 3.49761 11.3436 3.16327C10.9596 3.00785 10.7744 2.57061 10.9298 2.18666ZM5.97336 10.5H8.27664C8.95296 10.5 9.49852 10.5 9.94252 10.5303C10.3991 10.5614 10.8028 10.6271 11.1851 10.7855C12.1039 11.1661 12.8339 11.8961 13.2145 12.8149C13.3729 13.1972 13.4386 13.6009 13.4697 14.0575C13.5 14.5015 13.5 15.047 13.5 15.7234V15.75C13.5 16.1642 13.1642 16.5 12.75 16.5C12.3358 16.5 12 16.1642 12 15.75C12 15.0408 11.9996 14.5465 11.9732 14.1596C11.9473 13.7794 11.8987 13.558 11.8287 13.389C11.6004 12.8376 11.1624 12.3996 10.611 12.1713C10.442 12.1013 10.2206 12.0527 9.84041 12.0268C9.45349 12.0004 8.95918 12 8.25 12H6C5.29083 12 4.79651 12.0004 4.40959 12.0268C4.0294 12.0527 3.808 12.1013 3.63896 12.1713C3.08765 12.3996 2.64963 12.8376 2.42127 13.389C2.35125 13.558 2.30275 13.7794 2.27681 14.1596C2.25041 14.5465 2.25 15.0408 2.25 15.75C2.25 16.1642 1.91421 16.5 1.5 16.5C1.08579 16.5 0.75 16.1642 0.75 15.75L0.75 15.7234C0.749995 15.047 0.749991 14.5015 0.780285 14.0575C0.811436 13.6009 0.877109 13.1972 1.03545 12.8149C1.41605 11.8961 2.14608 11.1661 3.06494 10.7855C3.44721 10.6271 3.85092 10.5614 4.30748 10.5303C4.75148 10.5 5.29704 10.5 5.97336 10.5ZM13.5237 11.1576C13.6269 10.7564 14.0358 10.5149 14.4369 10.6182C16.0542 11.0344 17.25 12.5016 17.25 14.25V15.75C17.25 16.1642 16.9142 16.5 16.5 16.5C16.0858 16.5 15.75 16.1642 15.75 15.75V14.25C15.75 13.2026 15.0337 12.3207 14.0631 12.0708C13.6619 11.9676 13.4204 11.5587 13.5237 11.1576Z" fill="#7B7D8A"/>
</svg>
