<svg width="12" height="12" viewBox="0 0 12 12" fill="none" xmlns="http://www.w3.org/2000/svg">
<path d="M2.87402 10.188V1.81201H6.64202C7.02602 1.81201 7.37002 1.87601 7.67402 2.00401C7.98602 2.12401 8.25002 2.30001 8.46602 2.53201C8.68202 2.75601 8.84602 3.02801 8.95802 3.34801C9.07002 3.66801 9.12602 4.02001 9.12602 4.40401C9.12602 4.79601 9.07002 5.15201 8.95802 5.47201C8.84602 5.78401 8.68202 6.05601 8.46602 6.28801C8.25002 6.51201 7.98602 6.68801 7.67402 6.81601C7.37002 6.93601 7.02602 6.99601 6.64202 6.99601H4.45802V10.188H2.87402ZM4.45802 5.62801H6.49802C6.80202 5.62801 7.04202 5.54801 7.21802 5.38801C7.39402 5.22001 7.48202 4.98401 7.48202 4.68001V4.12801C7.48202 3.82401 7.39402 3.59201 7.21802 3.43201C7.04202 3.27201 6.80202 3.19201 6.49802 3.19201H4.45802V5.62801Z" fill="#393D48"/>
</svg>
