<svg width="12" height="12" viewBox="0 0 12 12" fill="none" xmlns="http://www.w3.org/2000/svg">
<g clip-path="url(#clip0_4825_531917)">
<path d="M10.5 10.4999H6.50001M1.25 10.7499L4.02463 9.68274C4.2021 9.61448 4.29084 9.58035 4.37386 9.53579C4.4476 9.49621 4.5179 9.45052 4.58402 9.39921C4.65846 9.34145 4.72569 9.27422 4.86014 9.13977L10.5 3.49991C11.0523 2.94762 11.0523 2.05219 10.5 1.49991C9.94773 0.947623 9.0523 0.947622 8.50001 1.49991L2.86014 7.13977C2.72569 7.27422 2.65846 7.34145 2.6007 7.41589C2.54939 7.48201 2.5037 7.55231 2.46412 7.62605C2.41955 7.70907 2.38542 7.7978 2.31717 7.97528L1.25 10.7499ZM1.25 10.7499L2.27906 8.07439C2.3527 7.88293 2.38952 7.7872 2.45267 7.74335C2.50786 7.70503 2.57615 7.69054 2.64215 7.70314C2.71767 7.71756 2.79019 7.79009 2.93524 7.93514L4.06479 9.06468C4.20984 9.20973 4.28236 9.28226 4.29678 9.35777C4.30939 9.42377 4.29489 9.49206 4.25657 9.54725C4.21272 9.6104 4.11699 9.64722 3.92554 9.72086L1.25 10.7499Z" stroke="#E0E2E6" stroke-linecap="round" stroke-linejoin="round"/>
</g>
<defs>
<clipPath id="clip0_4825_531917">
<rect width="12" height="12" fill="white"/>
</clipPath>
</defs>
</svg>
