<svg width="24" height="24" viewBox="0 0 24 24" fill="none" xmlns="http://www.w3.org/2000/svg">
<path fill-rule="evenodd" clip-rule="evenodd" d="M7.35908 1.24985C7.38769 1.24992 7.41617 1.25 7.44449 1.25H16.5556C16.5839 1.25 16.6124 1.24992 16.641 1.24985C16.9645 1.24899 17.3034 1.2481 17.5986 1.35554C18.0847 1.53246 18.4676 1.91537 18.6445 2.40146C18.7399 2.66363 18.7499 2.96029 18.7503 3.25L20.5218 3.25C20.7361 3.24998 20.9329 3.24997 21.0983 3.26125C21.2759 3.27337 21.4712 3.30099 21.6697 3.38321C22.0985 3.56082 22.4392 3.9015 22.6168 4.3303C22.6991 4.52881 22.7267 4.72415 22.7388 4.90179C22.7501 5.06711 22.7501 5.26396 22.75 5.47824V6C22.75 6.03917 22.7501 6.07776 22.7501 6.11578C22.7503 6.93375 22.7505 7.49191 22.6223 7.97057C22.2755 9.26467 21.2647 10.2755 19.9706 10.6222C19.5755 10.7281 19.1261 10.7464 18.5211 10.7495C17.813 13.3955 15.5373 15.4007 12.75 15.7088V17.25H13.4445C15.8224 17.25 17.75 19.1777 17.75 21.5556C17.75 22.2152 17.2153 22.75 16.5556 22.75H7.44449C6.78482 22.75 6.25005 22.2152 6.25005 21.5556C6.25005 19.1777 8.17771 17.25 10.5556 17.25H11.25V15.7088C8.46282 15.4007 6.18707 13.3955 5.47897 10.7495C4.87399 10.7464 4.42464 10.7281 4.02948 10.6222C2.73538 10.2755 1.72458 9.26466 1.37783 7.97057C1.24957 7.49191 1.24975 6.93376 1.25002 6.11579C1.25004 6.07776 1.25005 6.03917 1.25005 6L1.25005 5.47824C1.25004 5.26397 1.25002 5.06712 1.2613 4.90179C1.27342 4.72415 1.30104 4.52881 1.38326 4.3303C1.56087 3.9015 1.90155 3.56082 2.33035 3.38321C2.52886 3.30099 2.7242 3.27337 2.90184 3.26125C3.06717 3.24997 3.26402 3.24998 3.47829 3.25C3.48553 3.25 3.49278 3.25 3.50005 3.25H5.24976C5.2502 2.96029 5.26017 2.66363 5.35559 2.40146C5.53251 1.91537 5.91542 1.53246 6.40151 1.35554C6.6967 1.2481 7.0356 1.24899 7.35908 1.24985ZM5.25005 4.75H3.50005C3.25682 4.75 3.11195 4.7504 3.00395 4.75777C2.93712 4.76233 2.90872 4.76843 2.90136 4.7703C2.84253 4.79558 2.79563 4.84247 2.77035 4.90131C2.76849 4.90866 2.76238 4.93707 2.75782 5.0039C2.75046 5.1119 2.75005 5.25677 2.75005 5.5V6C2.75005 6.97826 2.75649 7.32026 2.82672 7.58234C3.03477 8.3588 3.64125 8.96528 4.41771 9.17333C4.59818 9.22169 4.81654 9.2398 5.25446 9.24639C5.25153 9.16462 5.25005 9.08248 5.25005 9V4.75ZM6.75005 3.44444C6.75005 3.22842 6.75037 3.09978 6.75621 3.0036C6.75985 2.94371 6.76474 2.91812 6.7662 2.9116C6.79156 2.8445 6.84455 2.79151 6.91165 2.76615C6.91817 2.76469 6.94376 2.75979 7.00365 2.75616C7.09983 2.75032 7.22847 2.75 7.44449 2.75H16.5556C16.7716 2.75 16.9003 2.75032 16.9964 2.75616C17.0563 2.75979 17.0819 2.76469 17.0884 2.76615C17.1556 2.79151 17.2085 2.84449 17.2339 2.9116C17.2354 2.91811 17.2403 2.9437 17.2439 3.0036C17.2497 3.09978 17.25 3.22842 17.25 3.44444V9C17.25 11.8995 14.8995 14.25 12 14.25C9.10055 14.25 6.75005 11.8995 6.75005 9V3.44444ZM18.75 4.75V9C18.75 9.08248 18.7486 9.16462 18.7456 9.24639C19.1836 9.2398 19.4019 9.22169 19.5824 9.17333C20.3588 8.96528 20.9653 8.3588 21.1734 7.58234C21.2436 7.32026 21.25 6.97826 21.25 6V5.5C21.25 5.25677 21.2496 5.1119 21.2423 5.0039C21.2377 4.93705 21.2316 4.90865 21.2297 4.9013C21.2045 4.84247 21.1576 4.79558 21.0987 4.7703C21.0914 4.76843 21.063 4.76233 20.9962 4.75777C20.8881 4.7504 20.7433 4.75 20.5 4.75H18.75ZM10.5556 18.75C9.10939 18.75 7.91875 19.8443 7.7665 21.25H16.2336C16.0813 19.8443 14.8907 18.75 13.4445 18.75H10.5556Z" fill="#F79009"/>
</svg>
