<svg width="24" height="24" viewBox="0 0 24 24" fill="none" xmlns="http://www.w3.org/2000/svg">
<path fill-rule="evenodd" clip-rule="evenodd" d="M7.44449 1.25L7.35908 1.24985C7.0356 1.24899 6.6967 1.2481 6.40151 1.35554C5.91542 1.53246 5.53251 1.91537 5.35559 2.40146C5.26016 2.66363 5.2502 2.96029 5.24976 3.25L3.47829 3.25C3.26402 3.24998 3.06717 3.24997 2.90184 3.26125C2.7242 3.27337 2.52886 3.30099 2.33035 3.38321C1.90155 3.56082 1.56087 3.9015 1.38326 4.3303C1.30104 4.52881 1.27342 4.72415 1.2613 4.90179C1.25002 5.06712 1.25004 5.26397 1.25005 5.47824L1.25002 6.11579C1.24975 6.93376 1.24957 7.49191 1.37783 7.97057C1.72458 9.26466 2.73538 10.2755 4.02948 10.6222C4.42464 10.7281 4.87399 10.7464 5.47897 10.7495C6.18707 13.3955 8.46282 15.4007 11.25 15.7088V17.25H10.5556C8.17771 17.25 6.25005 19.1777 6.25005 21.5556C6.25005 22.2152 6.78482 22.75 7.44449 22.75H16.5556C17.2153 22.75 17.75 22.2152 17.75 21.5556C17.75 19.1777 15.8224 17.25 13.4445 17.25H12.75V15.7088C15.5373 15.4007 17.813 13.3955 18.5211 10.7495C19.1261 10.7464 19.5755 10.7281 19.9706 10.6222C21.2647 10.2755 22.2755 9.26467 22.6223 7.97057C22.7505 7.49192 22.7503 6.93378 22.7501 6.11584L22.75 5.47824C22.7501 5.26396 22.7501 5.06711 22.7388 4.90179C22.7267 4.72415 22.6991 4.52881 22.6168 4.3303C22.4392 3.9015 22.0985 3.56082 21.6697 3.38321C21.4712 3.30099 21.2759 3.27337 21.0983 3.26125C20.9329 3.24997 20.7361 3.24998 20.5218 3.25L18.7503 3.25C18.7499 2.96029 18.7399 2.66363 18.6445 2.40146C18.4676 1.91537 18.0847 1.53246 17.5986 1.35554C17.3034 1.2481 16.9645 1.24899 16.641 1.24985L16.5556 1.25H7.44449ZM3.50005 4.75H5.25005V9C5.25005 9.08248 5.25153 9.16462 5.25446 9.24639C4.81654 9.2398 4.59818 9.22169 4.41771 9.17333C3.64125 8.96528 3.03477 8.3588 2.82672 7.58234C2.75649 7.32026 2.75005 6.97826 2.75005 6V5.5C2.75005 5.25677 2.75046 5.1119 2.75782 5.0039C2.76238 4.93707 2.76849 4.90866 2.77035 4.90131C2.79563 4.84247 2.84253 4.79558 2.90136 4.7703C2.90872 4.76843 2.93712 4.76233 3.00395 4.75777C3.11195 4.7504 3.25682 4.75 3.50005 4.75ZM18.75 9V4.75H20.5C20.7433 4.75 20.8881 4.7504 20.9962 4.75777C21.063 4.76233 21.0914 4.76843 21.0987 4.7703C21.1576 4.79558 21.2045 4.84247 21.2297 4.9013C21.2316 4.90865 21.2377 4.93705 21.2423 5.0039C21.2496 5.1119 21.25 5.25677 21.25 5.5V6C21.25 6.97826 21.2436 7.32026 21.1734 7.58234C20.9653 8.3588 20.3588 8.96528 19.5824 9.17333C19.4019 9.22169 19.1836 9.2398 18.7456 9.24639C18.7486 9.16462 18.75 9.08248 18.75 9Z" fill="#7A2E0E"/>
</svg>
