<svg width="24" height="24" viewBox="0 0 24 24" fill="none" xmlns="http://www.w3.org/2000/svg">
<path fill-rule="evenodd" clip-rule="evenodd" d="M7.44449 1.25006L7.35908 1.24991C7.0356 1.24905 6.6967 1.24816 6.40151 1.3556C5.91542 1.53252 5.53251 1.91543 5.35559 2.40152C5.26016 2.6637 5.2502 2.96035 5.24976 3.25006L3.47829 3.25006C3.26402 3.25005 3.06717 3.25003 2.90184 3.26131C2.7242 3.27343 2.52886 3.30105 2.33035 3.38327C1.90155 3.56088 1.56087 3.90156 1.38326 4.33036C1.30104 4.52887 1.27342 4.72421 1.2613 4.90185C1.25002 5.06718 1.25004 5.26403 1.25005 5.4783L1.25002 6.11585C1.24975 6.93382 1.24957 7.49197 1.37783 7.97063C1.72458 9.26473 2.73538 10.2755 4.02948 10.6223C4.42464 10.7282 4.87399 10.7465 5.47897 10.7495C6.18707 13.3956 8.46282 15.4008 11.25 15.7089V17.2501H10.5556C8.17771 17.2501 6.25005 19.1777 6.25005 21.5556C6.25005 22.2153 6.78482 22.7501 7.44449 22.7501H16.5556C17.2153 22.7501 17.75 22.2153 17.75 21.5556C17.75 19.1777 15.8224 17.2501 13.4445 17.2501H12.75V15.7089C15.5373 15.4008 17.813 13.3956 18.5211 10.7495C19.1261 10.7465 19.5755 10.7282 19.9706 10.6223C21.2647 10.2755 22.2755 9.26473 22.6223 7.97063C22.7505 7.49198 22.7503 6.93384 22.7501 6.1159L22.75 5.4783C22.7501 5.26402 22.7501 5.06718 22.7388 4.90185C22.7267 4.72421 22.6991 4.52887 22.6168 4.33036C22.4392 3.90156 22.0985 3.56088 21.6697 3.38327C21.4712 3.30105 21.2759 3.27343 21.0983 3.26131C20.9329 3.25003 20.7361 3.25005 20.5218 3.25006L18.7503 3.25006C18.7499 2.96035 18.7399 2.6637 18.6445 2.40152C18.4676 1.91543 18.0847 1.53252 17.5986 1.3556C17.3034 1.24816 16.9645 1.24905 16.641 1.24991L16.5556 1.25006H7.44449ZM3.50005 4.75006H5.25005V9.00006C5.25005 9.08254 5.25153 9.16468 5.25446 9.24645C4.81654 9.23986 4.59818 9.22175 4.41771 9.17339C3.64125 8.96534 3.03477 8.35886 2.82672 7.5824C2.75649 7.32032 2.75005 6.97832 2.75005 6.00006V5.50006C2.75005 5.25683 2.75046 5.11196 2.75782 5.00396C2.76238 4.93713 2.76849 4.90872 2.77035 4.90137C2.79563 4.84254 2.84253 4.79564 2.90136 4.77036C2.90872 4.76849 2.93712 4.76239 3.00395 4.75783C3.11195 4.75047 3.25682 4.75006 3.50005 4.75006ZM18.75 9.00006V4.75006H20.5C20.7433 4.75006 20.8881 4.75047 20.9962 4.75783C21.063 4.76239 21.0914 4.7685 21.0987 4.77036C21.1576 4.79564 21.2045 4.84253 21.2297 4.90136C21.2316 4.90871 21.2377 4.93711 21.2423 5.00396C21.2496 5.11196 21.25 5.25683 21.25 5.50006V6.00006C21.25 6.97832 21.2436 7.32032 21.1734 7.5824C20.9653 8.35886 20.3588 8.96534 19.5824 9.17339C19.4019 9.22175 19.1836 9.23986 18.7456 9.24645C18.7486 9.16468 18.75 9.08255 18.75 9.00006Z" fill="#7A2E0E"/>
</svg>
