<svg width="24" height="24" viewBox="0 0 24 24" fill="none" xmlns="http://www.w3.org/2000/svg">
<path fill-rule="evenodd" clip-rule="evenodd" d="M21.75 12C21.75 17.3848 17.3848 21.75 12 21.75C9.3066 21.75 6.86709 20.6569 5.10332 18.8919C4.30902 18.0971 3.44025 17.0625 2.75 16.2005V20C2.75 20.4142 2.41421 20.75 2 20.75C1.58579 20.75 1.25 20.4142 1.25 20V14C1.25 13.5858 1.58579 13.25 2 13.25H8C8.41421 13.25 8.75 13.5858 8.75 14C8.75 14.4142 8.41421 14.75 8 14.75L3.51481 14.75C3.60318 14.8629 3.69625 14.981 3.7932 15.1029C4.4938 15.9843 5.38093 17.0476 6.16435 17.8316C7.65829 19.3266 9.72059 20.25 12 20.25C16.5563 20.25 20.25 16.5563 20.25 12C20.25 7.44365 16.5563 3.75 12 3.75C8.23992 3.75 5.06556 6.26606 4.07236 9.70794C3.95752 10.1059 3.5418 10.3354 3.14383 10.2206C2.74585 10.1058 2.51633 9.69004 2.63117 9.29206C3.80466 5.22537 7.55389 2.25 12 2.25C17.3848 2.25 21.75 6.61522 21.75 12Z" fill="#B1B3BB"/>
</svg>
