<svg width="24" height="24" viewBox="0 0 24 24" fill="none" xmlns="http://www.w3.org/2000/svg">
<path fill-rule="evenodd" clip-rule="evenodd" d="M12 2.25C17.3848 2.25 21.75 6.61522 21.75 12C21.75 14.6934 20.6569 17.1329 18.8919 18.8967C18.0971 19.691 17.0625 20.5598 16.2005 21.25H20C20.4142 21.25 20.75 21.5858 20.75 22C20.75 22.4142 20.4142 22.75 20 22.75H14C13.5858 22.75 13.25 22.4142 13.25 22L13.25 16C13.25 15.5858 13.5858 15.25 14 15.25C14.4142 15.25 14.75 15.5858 14.75 16V20.4852C14.8629 20.3968 14.981 20.3038 15.1029 20.2068C15.9843 19.5062 17.0476 18.6191 17.8316 17.8357C19.3266 16.3417 20.25 14.2794 20.25 12C20.25 7.44365 16.5563 3.75 12 3.75C7.44365 3.75 3.75 7.44365 3.75 12C3.75 15.7601 6.26606 18.9344 9.70794 19.9276C10.1059 20.0425 10.3354 20.4582 10.2206 20.8562C10.1058 21.2541 9.69004 21.4837 9.29206 21.3688C5.22537 20.1953 2.25 16.4461 2.25 12C2.25 6.61522 6.61522 2.25 12 2.25Z" fill="#7B7D8A"/>
</svg>
