<svg width="18" height="18" viewBox="0 0 18 18" fill="none" xmlns="http://www.w3.org/2000/svg">
<path fill-rule="evenodd" clip-rule="evenodd" d="M5.25 3C4.00736 3 3 4.00736 3 5.25V12.75C3 13.9926 4.00736 15 5.25 15H12.75C13.9926 15 15 13.9926 15 12.75V5.25C15 4.00736 13.9926 3 12.75 3H5.25ZM1.5 5.25C1.5 3.17893 3.17893 1.5 5.25 1.5H12.75C14.8211 1.5 16.5 3.17893 16.5 5.25V12.75C16.5 14.8211 14.8211 16.5 12.75 16.5H5.25C3.17893 16.5 1.5 14.8211 1.5 12.75V5.25ZM9 5.25C9.41421 5.25 9.75 5.58579 9.75 6V9C9.75 9.41421 9.41421 9.75 9 9.75C8.58579 9.75 8.25 9.41421 8.25 9V6C8.25 5.58579 8.58579 5.25 9 5.25ZM8.25 12C8.25 11.5858 8.58579 11.25 9 11.25H9.0075C9.42171 11.25 9.7575 11.5858 9.7575 12C9.7575 12.4142 9.42171 12.75 9.0075 12.75H9C8.58579 12.75 8.25 12.4142 8.25 12Z" fill="#F97066"/>
</svg>
