<svg width="24" height="24" viewBox="0 0 24 24" fill="none" xmlns="http://www.w3.org/2000/svg">
<path d="M12.7 1.73077C12.5886 1.44112 12.3103 1.25 12 1.25C11.6897 1.25 11.4114 1.44112 11.3 1.73077L9.28803 6.96185C8.99223 7.73094 8.88618 7.9914 8.73452 8.20469C8.58876 8.40967 8.40967 8.58877 8.20469 8.73452C7.9914 8.88618 7.73094 8.99223 6.96185 9.28804L1.73077 11.3C1.44112 11.4114 1.25 11.6897 1.25 12C1.25 12.3103 1.44112 12.5886 1.73077 12.7L6.96185 14.712C7.73094 15.0078 7.9914 15.1138 8.20469 15.2655C8.40967 15.4112 8.58877 15.5903 8.73452 15.7953C8.88618 16.0086 8.99223 16.2691 9.28804 17.0381L11.3 22.2692C11.4114 22.5589 11.6897 22.75 12 22.75C12.3103 22.75 12.5886 22.5589 12.7 22.2692L14.712 17.0381C15.0078 16.2691 15.1138 16.0086 15.2655 15.7953C15.4112 15.5903 15.5903 15.4112 15.7953 15.2655C16.0086 15.1138 16.2691 15.0078 17.0382 14.712L22.2692 12.7C22.5589 12.5886 22.75 12.3103 22.75 12C22.75 11.6897 22.5589 11.4114 22.2692 11.3L17.0381 9.28804C16.2691 8.99223 16.0086 8.88618 15.7953 8.73452C15.5903 8.58876 15.4112 8.40967 15.2655 8.20469C15.1138 7.9914 15.0078 7.73094 14.712 6.96185L12.7 1.73077Z" fill="#F79009"/>
<path fill-rule="evenodd" clip-rule="evenodd" d="M3.5 0C4.05228 0 4.5 0.447715 4.5 1V2.5H6C6.55228 2.5 7 2.94772 7 3.5C7 4.05228 6.55228 4.5 6 4.5H4.5V6C4.5 6.55228 4.05228 7 3.5 7C2.94772 7 2.5 6.55228 2.5 6V4.5H1C0.447715 4.5 0 4.05228 0 3.5C0 2.94772 0.447715 2.5 1 2.5H2.5V1C2.5 0.447715 2.94772 0 3.5 0Z" fill="#FEDF89"/>
</svg>
