<svg width="18" height="18" viewBox="0 0 18 18" fill="none" xmlns="http://www.w3.org/2000/svg">
<path fill-rule="evenodd" clip-rule="evenodd" d="M7.49994 3C6.05019 3 4.87494 4.17525 4.87494 5.625C4.87494 7.07475 6.05019 8.25 7.49994 8.25C8.94969 8.25 10.1249 7.07475 10.1249 5.625C10.1249 4.17525 8.94969 3 7.49994 3ZM3.37494 5.625C3.37494 3.34683 5.22177 1.5 7.49994 1.5C9.77811 1.5 11.6249 3.34683 11.6249 5.625C11.6249 7.90317 9.77811 9.75 7.49994 9.75C5.22177 9.75 3.37494 7.90317 3.37494 5.625ZM14.2499 10.5C14.6642 10.5 14.9999 10.8358 14.9999 11.25V12.75H16.4999C16.9142 12.75 17.2499 13.0858 17.2499 13.5C17.2499 13.9142 16.9142 14.25 16.4999 14.25H14.9999V15.75C14.9999 16.1642 14.6642 16.5 14.2499 16.5C13.8357 16.5 13.4999 16.1642 13.4999 15.75V14.25H11.9999C11.5857 14.25 11.2499 13.9142 11.2499 13.5C11.2499 13.0858 11.5857 12.75 11.9999 12.75H13.4999V11.25C13.4999 10.8358 13.8357 10.5 14.2499 10.5ZM5.49465 10.875C5.53744 10.875 5.58087 10.875 5.62494 10.875H8.99994C9.41415 10.875 9.74994 11.2108 9.74994 11.625C9.74994 12.0392 9.41415 12.375 8.99994 12.375H5.62494C4.5237 12.375 4.13935 12.3831 3.8468 12.4719C3.1277 12.69 2.56496 13.2528 2.34683 13.9719C2.25808 14.2644 2.24994 14.6488 2.24994 15.75C2.24994 16.1642 1.91415 16.5 1.49994 16.5C1.08573 16.5 0.74994 16.1642 0.74994 15.75C0.74994 15.7059 0.749924 15.6625 0.749908 15.6197C0.749568 14.6992 0.749335 14.0707 0.911415 13.5364C1.27498 12.3379 2.21287 11.4 3.41137 11.0365C3.94567 10.8744 4.57419 10.8746 5.49465 10.875Z" fill="#393D48"/>
</svg>
