<svg width="24" height="24" viewBox="0 0 24 24" fill="none" xmlns="http://www.w3.org/2000/svg">
<path fill-rule="evenodd" clip-rule="evenodd" d="M8.53033 3.46967C8.82322 3.76256 8.82322 4.23744 8.53033 4.53033L5.81066 7.25H20C20.4142 7.25 20.75 7.58579 20.75 8C20.75 8.41421 20.4142 8.75 20 8.75H5.81066L8.53033 11.4697C8.82322 11.7626 8.82322 12.2374 8.53033 12.5303C8.23744 12.8232 7.76256 12.8232 7.46967 12.5303L3.46967 8.53033C3.17678 8.23744 3.17678 7.76256 3.46967 7.46967L7.46967 3.46967C7.76256 3.17678 8.23744 3.17678 8.53033 3.46967ZM17.4697 13.4697C17.7626 13.1768 18.2374 13.1768 18.5303 13.4697L20.5303 15.4697C20.8232 15.7626 20.8232 16.2374 20.5303 16.5303L18.5303 18.5303C18.2374 18.8232 17.7626 18.8232 17.4697 18.5303C17.1768 18.2374 17.1768 17.7626 17.4697 17.4697L18.1893 16.75H12C11.5858 16.75 11.25 16.4142 11.25 16C11.25 15.5858 11.5858 15.25 12 15.25H18.1893L17.4697 14.5303C17.1768 14.2374 17.1768 13.7626 17.4697 13.4697Z" fill="#17B26A"/>
</svg>
