<svg width="12" height="12" viewBox="0 0 12 12" fill="none" xmlns="http://www.w3.org/2000/svg">
<path fill-rule="evenodd" clip-rule="evenodd" d="M4.53033 1.46967C4.82322 1.76256 4.82322 2.23744 4.53033 2.53033L3.81066 3.25H10C10.4142 3.25 10.75 3.58579 10.75 4C10.75 4.41421 10.4142 4.75 10 4.75H3.81066L4.53033 5.46967C4.82322 5.76256 4.82322 6.23744 4.53033 6.53033C4.23744 6.82322 3.76256 6.82322 3.46967 6.53033L1.46967 4.53033C1.17678 4.23744 1.17678 3.76256 1.46967 3.46967L3.46967 1.46967C3.76256 1.17678 4.23744 1.17678 4.53033 1.46967ZM8.46967 6.46967C8.76256 6.17678 9.23744 6.17678 9.53033 6.46967L10.5303 7.46967C10.8232 7.76256 10.8232 8.23744 10.5303 8.53033L9.53033 9.53033C9.23744 9.82322 8.76256 9.82322 8.46967 9.53033C8.25865 9.31931 8.19966 9.01383 8.29271 8.75H6C5.58579 8.75 5.25 8.41421 5.25 8C5.25 7.58579 5.58579 7.25 6 7.25H8.29271C8.19966 6.98617 8.25865 6.68069 8.46967 6.46967Z" fill="#079455"/>
</svg>
