<svg width="24" height="24" viewBox="0 0 24 24" fill="none" xmlns="http://www.w3.org/2000/svg">
<path fill-rule="evenodd" clip-rule="evenodd" d="M6.53033 5.46967C6.82322 5.76256 6.82322 6.23744 6.53033 6.53033L5.81066 7.25H12C12.4142 7.25 12.75 7.58579 12.75 8C12.75 8.41421 12.4142 8.75 12 8.75H5.81066L6.53033 9.46967C6.82322 9.76256 6.82322 10.2374 6.53033 10.5303C6.23744 10.8232 5.76256 10.8232 5.46967 10.5303L3.46967 8.53033C3.17678 8.23744 3.17678 7.76256 3.46967 7.46967L5.46967 5.46967C5.76256 5.17678 6.23744 5.17678 6.53033 5.46967ZM15.4697 11.4697C15.7626 11.1768 16.2374 11.1768 16.5303 11.4697L20.5303 15.4697C20.8232 15.7626 20.8232 16.2374 20.5303 16.5303L16.5303 20.5303C16.2374 20.8232 15.7626 20.8232 15.4697 20.5303C15.1768 20.2374 15.1768 19.7626 15.4697 19.4697L18.1893 16.75H4C3.58579 16.75 3.25 16.4142 3.25 16C3.25 15.5858 3.58579 15.25 4 15.25H18.1893L15.4697 12.5303C15.1768 12.2374 15.1768 11.7626 15.4697 11.4697Z" fill="#F04438"/>
</svg>
