<svg width="12" height="12" viewBox="0 0 12 12" fill="none" xmlns="http://www.w3.org/2000/svg">
<path fill-rule="evenodd" clip-rule="evenodd" d="M3.70729 4.75C3.80034 5.01383 3.74135 5.31931 3.53033 5.53033C3.23744 5.82322 2.76256 5.82322 2.46967 5.53033L1.46967 4.53033C1.17678 4.23744 1.17678 3.76256 1.46967 3.46967L2.46967 2.46967C2.76256 2.17678 3.23744 2.17678 3.53033 2.46967C3.74135 2.68069 3.80034 2.98617 3.70729 3.25H6C6.41421 3.25 6.75 3.58579 6.75 4C6.75 4.41421 6.41421 4.75 6 4.75H3.70729ZM7.46967 5.46967C7.76256 5.17678 8.23744 5.17678 8.53033 5.46967L10.5303 7.46967C10.8232 7.76256 10.8232 8.23744 10.5303 8.53033L8.53033 10.5303C8.23744 10.8232 7.76256 10.8232 7.46967 10.5303C7.17678 10.2374 7.17678 9.76256 7.46967 9.46967L8.18934 8.75H2C1.58579 8.75 1.25 8.41421 1.25 8C1.25 7.58579 1.58579 7.25 2 7.25H8.18934L7.46967 6.53033C7.17678 6.23744 7.17678 5.76256 7.46967 5.46967Z" fill="#D92D20"/>
</svg>
