<svg width="35" height="30" viewBox="0 0 35 30" fill="none" xmlns="http://www.w3.org/2000/svg">
<g clip-path="url(#clip0_4353_36249)">
<path d="M9 10.3018L3.15625 11.3643L1 5.32679V4.72076L12.1623 1L12.3993 1C12.8615 1.81359 13.4006 2.49134 14.1506 2.96866C15.0675 3.55214 16.1626 3.75 17.5 3.75C18.8374 3.75 19.9325 3.55214 20.8494 2.96866C21.5994 2.49134 22.1385 1.81359 22.6007 1L22.8377 1L34 4.72076V5.32679L31.8438 11.3643L26 10.3018V29H9V10.3018Z" fill="#F5F5F8"/>
<path fill-rule="evenodd" clip-rule="evenodd" d="M8 30H27V11.5L32.5 12.5L35 5.50001V4.00001L23 7.59959e-06L22 0C21 2 20 2.75 17.5 2.75C15 2.75 14 2 13 0L12 7.59959e-06L0 4.00001V5.50001L2.5 12.5L8 11.5V30ZM3.15625 11.3643L9 10.3018V29H26V10.3018L31.8438 11.3643L34 5.32679V4.72077L22.8377 1.00001L22.6007 1C22.1385 1.81359 21.5994 2.49135 20.8494 2.96866C19.9325 3.55215 18.8374 3.75 17.5 3.75C16.1626 3.75 15.0675 3.55215 14.1506 2.96866C13.4006 2.49135 12.8615 1.81359 12.3993 1L12.1623 1.00001L1 4.72077V5.32679L3.15625 11.3643Z" fill="#E0E2E6"/>
</g>
<defs>
<clipPath id="clip0_4353_36249">
<rect width="35" height="30" fill="white"/>
</clipPath>
</defs>
</svg>
