<svg width="24" height="24" viewBox="0 0 24 24" fill="none" xmlns="http://www.w3.org/2000/svg">
<path d="M8 21H16M12 17V21M6.8 17H17.2C18.8802 17 19.7202 17 20.362 16.673C20.9265 16.3854 21.3854 15.9265 21.673 15.362C22 14.7202 22 13.8802 22 12.2V7.8C22 6.11984 22 5.27976 21.673 4.63803C21.3854 4.07354 20.9265 3.6146 20.362 3.32698C19.7202 3 18.8802 3 17.2 3H6.8C5.11984 3 4.27976 3 3.63803 3.32698C3.07354 3.6146 2.6146 4.07354 2.32698 4.63803C2 5.27976 2 6.11984 2 7.8V12.2C2 13.8802 2 14.7202 2.32698 15.362C2.6146 15.9265 3.07354 16.3854 3.63803 16.673C4.27976 17 5.11984 17 6.8 17Z" stroke="#E0E2E6" stroke-width="1.5" stroke-linecap="round" stroke-linejoin="round"/>
<path d="M6.21504 12.792L4.41504 7.20801H5.64704L6.47904 9.88801L6.91904 11.64H6.94304L7.36704 9.88801L8.19904 7.20801H9.39104L7.57504 12.792H6.21504Z" fill="#D92D20"/>
<path d="M13.1325 12.792L12.7325 11.464H10.8685L10.4685 12.792H9.23648L11.0765 7.20801H12.5805L14.3965 12.792H13.1325ZM11.8125 8.31201H11.7725L11.1565 10.432H12.4365L11.8125 8.31201Z" fill="#D92D20"/>
<path d="M16.385 12.792H15.169V7.20801H17.817C18.073 7.20801 18.305 7.25067 18.513 7.33601C18.721 7.42134 18.897 7.54401 19.041 7.70401C19.1904 7.85867 19.305 8.04534 19.385 8.26401C19.465 8.48267 19.505 8.72534 19.505 8.99201C19.505 9.37067 19.4197 9.70134 19.249 9.98401C19.0837 10.2667 18.8304 10.472 18.489 10.6L19.585 12.792H18.233L17.257 10.744H16.385V12.792ZM17.665 9.72001C17.8464 9.72001 17.9877 9.67467 18.089 9.58401C18.1957 9.48801 18.249 9.34934 18.249 9.16801V8.81601C18.249 8.63467 18.1957 8.49867 18.089 8.40801C17.9877 8.31201 17.8464 8.26401 17.665 8.26401H16.385V9.72001H17.665Z" fill="#D92D20"/>
</svg>
