<svg width="24" height="24" viewBox="0 0 24 24" fill="none" xmlns="http://www.w3.org/2000/svg">
<path fill-rule="evenodd" clip-rule="evenodd" d="M6.7679 2.25H17.2321C18.0449 2.24999 18.7006 2.24999 19.2315 2.29336C19.7781 2.33803 20.2582 2.43239 20.7025 2.65873C21.4081 3.01825 21.9817 3.59193 22.3413 4.29754C22.5676 4.74175 22.662 5.2219 22.7066 5.76853C22.75 6.29944 22.75 6.95505 22.75 7.76788V12.2321C22.75 13.045 22.75 13.7006 22.7066 14.2315C22.662 14.7781 22.5676 15.2582 22.3413 15.7025C21.9817 16.4081 21.4081 16.9817 20.7025 17.3413C20.2582 17.5676 19.7781 17.662 19.2315 17.7066C18.7006 17.75 18.045 17.75 17.2321 17.75H12.75V20.25H16C16.4142 20.25 16.75 20.5858 16.75 21C16.75 21.4142 16.4142 21.75 16 21.75H8C7.58579 21.75 7.25 21.4142 7.25 21C7.25 20.5858 7.58579 20.25 8 20.25H11.25V17.75H6.76788C5.95505 17.75 5.29944 17.75 4.76853 17.7066C4.2219 17.662 3.74175 17.5676 3.29754 17.3413C2.59193 16.9817 2.01825 16.4081 1.65873 15.7025C1.43239 15.2582 1.33803 14.7781 1.29336 14.2315C1.24999 13.7006 1.24999 13.0449 1.25 12.2321V7.7679C1.24999 6.95506 1.24999 6.29944 1.29336 5.76853C1.33803 5.2219 1.43239 4.74175 1.65873 4.29754C2.01825 3.59193 2.59193 3.01825 3.29754 2.65873C3.74175 2.43239 4.2219 2.33803 4.76853 2.29336C5.29944 2.24999 5.95506 2.24999 6.7679 2.25ZM17.2 16.25C18.0525 16.25 18.6467 16.2494 19.1093 16.2116C19.5632 16.1745 19.824 16.1054 20.0215 16.0048C20.4448 15.789 20.789 15.4448 21.0048 15.0215C21.1054 14.824 21.1745 14.5632 21.2116 14.1093C21.2494 13.6467 21.25 13.0525 21.25 12.2V7.8C21.25 6.94755 21.2494 6.35331 21.2116 5.89068C21.1745 5.4368 21.1054 5.17604 21.0048 4.97852C20.789 4.55516 20.4448 4.21095 20.0215 3.99524C19.824 3.8946 19.5632 3.82547 19.1093 3.78838C18.6467 3.75058 18.0525 3.75 17.2 3.75H6.8C5.94755 3.75 5.35331 3.75058 4.89068 3.78838C4.4368 3.82547 4.17604 3.8946 3.97852 3.99524C3.55516 4.21095 3.21095 4.55516 2.99524 4.97852C2.8946 5.17604 2.82547 5.4368 2.78838 5.89068C2.75058 6.35331 2.75 6.94755 2.75 7.8V12.2C2.75 13.0525 2.75058 13.6467 2.78838 14.1093C2.82547 14.5632 2.8946 14.824 2.99524 15.0215C3.21095 15.4448 3.55516 15.789 3.97852 16.0048C4.17604 16.1054 4.4368 16.1745 4.89068 16.2116C5.35331 16.2494 5.94755 16.25 6.8 16.25H17.2Z" fill="#393D48"/>
<path d="M6.21504 12.792L4.41504 7.20801H5.64704L6.47904 9.88801L6.91904 11.64H6.94304L7.36704 9.88801L8.19904 7.20801H9.39104L7.57504 12.792H6.21504Z" fill="#B42318"/>
<path d="M13.1325 12.792L12.7325 11.464H10.8685L10.4685 12.792H9.23648L11.0765 7.20801H12.5805L14.3965 12.792H13.1325ZM11.8125 8.31201H11.7725L11.1565 10.432H12.4365L11.8125 8.31201Z" fill="#B42318"/>
<path d="M16.385 12.792H15.169V7.20801H17.817C18.073 7.20801 18.305 7.25067 18.513 7.33601C18.721 7.42134 18.897 7.54401 19.041 7.70401C19.1904 7.85867 19.305 8.04534 19.385 8.26401C19.465 8.48267 19.505 8.72534 19.505 8.99201C19.505 9.37067 19.4197 9.70134 19.249 9.98401C19.0837 10.2667 18.8304 10.472 18.489 10.6L19.585 12.792H18.233L17.257 10.744H16.385V12.792ZM17.665 9.72001C17.8464 9.72001 17.9877 9.67467 18.089 9.58401C18.1957 9.48801 18.249 9.34934 18.249 9.16801V8.81601C18.249 8.63467 18.1957 8.49867 18.089 8.40801C17.9877 8.31201 17.8464 8.26401 17.665 8.26401H16.385V9.72001H17.665Z" fill="#B42318"/>
</svg>
