<svg width="24" height="24" viewBox="0 0 24 24" fill="none" xmlns="http://www.w3.org/2000/svg">
<path d="M9 22V22.75C9.41421 22.75 9.75 22.4142 9.75 22H9ZM15 22H14.25C14.25 22.4142 14.5858 22.75 15 22.75V22ZM14.454 18.11L14.1135 18.7783L14.454 18.11ZM14.891 18.55L14.2228 18.8905L14.891 18.55ZM9.10899 18.55L9.77725 18.8905L9.10899 18.55ZM9.54601 18.11L9.8865 18.7783L9.54601 18.11ZM2 2.75L2.3975 2.114C2.1663 1.9695 1.87489 1.96185 1.63642 2.09402C1.39796 2.22619 1.25 2.47736 1.25 2.75H2ZM4 4L4.3975 4.636C4.61679 4.49895 4.75 4.25859 4.75 4C4.75 3.74141 4.61679 3.50106 4.3975 3.364L4 4ZM2 5.25H1.25C1.25 5.52264 1.39796 5.77381 1.63642 5.90598C1.87489 6.03815 2.1663 6.0305 2.3975 5.886L2 5.25ZM20 2.75L20.3975 2.114C20.1663 1.9695 19.8749 1.96185 19.6364 2.09402C19.398 2.22619 19.25 2.47736 19.25 2.75H20ZM22 4L22.3975 4.636C22.6168 4.49895 22.75 4.25859 22.75 4C22.75 3.74141 22.6168 3.50106 22.3975 3.364L22 4ZM20 5.25H19.25C19.25 5.52264 19.398 5.77381 19.6364 5.90598C19.8749 6.03815 20.1663 6.0305 20.3975 5.886L20 5.25ZM11 1.5L11.3975 0.864001C11.1663 0.7195 10.8749 0.711849 10.6364 0.844018C10.398 0.976187 10.25 1.22736 10.25 1.5L11 1.5ZM13 2.75L13.3975 3.386C13.6168 3.24895 13.75 3.00859 13.75 2.75C13.75 2.49141 13.6168 2.25106 13.3975 2.114L13 2.75ZM11 4H10.25C10.25 4.27264 10.398 4.52381 10.6364 4.65598C10.8749 4.78815 11.1663 4.7805 11.3975 4.636L11 4ZM15.25 11.75C15.25 11.5105 15.3823 11.3754 15.4121 11.3482C15.4432 11.3196 15.4467 11.3275 15.3817 11.3563C15.2568 11.4117 15.0293 11.4796 14.6902 11.5432C14.0243 11.668 13.0728 11.75 12 11.75V13.25C13.1364 13.25 14.1848 13.1641 14.9666 13.0175C15.3514 12.9453 15.7097 12.8517 15.9896 12.7276C16.127 12.6667 16.2877 12.5803 16.4254 12.4541C16.5617 12.3292 16.75 12.0931 16.75 11.75H15.25ZM12 11.75C10.9272 11.75 9.97568 11.668 9.30979 11.5432C8.97068 11.4796 8.74318 11.4117 8.61829 11.3563C8.55326 11.3275 8.55677 11.3196 8.58795 11.3482C8.6177 11.3754 8.75 11.5105 8.75 11.75H7.25C7.25 12.0931 7.43826 12.3292 7.57459 12.4541C7.71233 12.5803 7.87301 12.6667 8.01039 12.7276C8.29032 12.8517 8.64861 12.9453 9.03336 13.0175C9.81518 13.1641 10.8636 13.25 12 13.25V11.75ZM8.75 11.75C8.75 11.9895 8.6177 12.1246 8.58795 12.1518C8.55677 12.1804 8.55326 12.1725 8.61829 12.1437C8.74318 12.0883 8.97068 12.0204 9.30979 11.9568C9.97568 11.832 10.9272 11.75 12 11.75V10.25C10.8636 10.25 9.81518 10.3359 9.03336 10.4825C8.64861 10.5547 8.29032 10.6483 8.01039 10.7724C7.87301 10.8333 7.71233 10.9197 7.57459 11.0459C7.43826 11.1708 7.25 11.4069 7.25 11.75H8.75ZM12 11.75C13.0728 11.75 14.0243 11.832 14.6902 11.9568C15.0293 12.0204 15.2568 12.0883 15.3817 12.1437C15.4467 12.1725 15.4432 12.1804 15.4121 12.1518C15.3823 12.1246 15.25 11.9895 15.25 11.75H16.75C16.75 11.4069 16.5617 11.1708 16.4254 11.0459C16.2877 10.9197 16.127 10.8333 15.9896 10.7724C15.7097 10.6483 15.3514 10.5547 14.9666 10.4825C14.1848 10.3359 13.1364 10.25 12 10.25V11.75ZM21.25 10C21.25 9.95626 21.2561 10.1357 20.7351 10.4707C20.2707 10.7692 19.5633 11.073 18.6595 11.3441C16.8607 11.8838 14.4339 12.25 12 12.25V13.75C14.5661 13.75 17.1393 13.3662 19.0905 12.7809C20.0617 12.4895 20.9168 12.137 21.5462 11.7324C22.1189 11.3643 22.75 10.7937 22.75 10H21.25ZM12 12.25C9.56614 12.25 7.13932 11.8838 5.34051 11.3441C4.43667 11.073 3.72933 10.7692 3.26494 10.4707C2.74389 10.1357 2.75 9.95626 2.75 10H1.25C1.25 10.7937 1.88111 11.3643 2.45381 11.7324C3.08317 12.137 3.93833 12.4895 4.90949 12.7809C6.86068 13.3662 9.43386 13.75 12 13.75V12.25ZM2.75 10C2.75 10.0437 2.74389 9.86429 3.26494 9.52932C3.72933 9.23079 4.43667 8.92702 5.34051 8.65587C7.13932 8.11623 9.56614 7.75 12 7.75V6.25C9.43386 6.25 6.86068 6.63377 4.90949 7.21913C3.93833 7.51048 3.08317 7.86296 2.45381 8.26755C1.88111 8.63572 1.25 9.20626 1.25 10H2.75ZM12 7.75C14.4339 7.75 16.8607 8.11623 18.6595 8.65587C19.5633 8.92702 20.2707 9.23079 20.7351 9.52932C21.2561 9.86429 21.25 10.0437 21.25 10H22.75C22.75 9.20626 22.1189 8.63572 21.5462 8.26755C20.9168 7.86296 20.0617 7.51048 19.0905 7.21913C17.1393 6.63377 14.5661 6.25 12 6.25V7.75ZM2.75 19V10H1.25V19H2.75ZM22.75 19V10H21.25V19H22.75ZM9.75 22V19.6H8.25V22H9.75ZM10.6 18.75H13.4V17.25H10.6V18.75ZM14.25 19.6V22H15.75V19.6H14.25ZM13.4 18.75C13.6917 18.75 13.8659 18.7508 13.9946 18.7615C14.1146 18.7715 14.1291 18.7862 14.1135 18.7783L14.7945 17.4417C14.565 17.3248 14.3325 17.2845 14.119 17.2667C13.9142 17.2497 13.6684 17.25 13.4 17.25V18.75ZM15.75 19.6C15.75 19.3325 15.7506 19.0874 15.7339 18.8838C15.7163 18.6705 15.6762 18.439 15.5593 18.2095L14.2228 18.8905C14.2148 18.8749 14.2292 18.8884 14.2389 19.0066C14.2494 19.1345 14.25 19.3075 14.25 19.6H15.75ZM14.1135 18.7783C14.1559 18.7998 14.1964 18.8387 14.2228 18.8905L15.5593 18.2095C15.3939 17.885 15.1284 17.6119 14.7945 17.4417L14.1135 18.7783ZM9.75 19.6C9.75 19.3075 9.75059 19.1345 9.7611 19.0066C9.77082 18.8884 9.78517 18.8749 9.77725 18.8905L8.44074 18.2095C8.32383 18.439 8.28368 18.6705 8.26614 18.8838C8.24941 19.0874 8.25 19.3325 8.25 19.6H9.75ZM10.6 17.25C10.3316 17.25 10.0858 17.2497 9.88101 17.2667C9.66749 17.2845 9.43503 17.3248 9.20552 17.4417L9.8865 18.7783C9.87091 18.7862 9.88541 18.7715 10.0054 18.7615C10.1341 18.7508 10.3083 18.75 10.6 18.75V17.25ZM9.77725 18.8905C9.80364 18.8387 9.84414 18.7998 9.8865 18.7783L9.20552 17.4417C8.87156 17.6119 8.6061 17.885 8.44074 18.2095L9.77725 18.8905ZM21.25 19C21.25 18.9505 21.2726 18.9735 21.1838 19.0803C21.0963 19.1857 20.9428 19.3199 20.7075 19.4734C20.2384 19.7793 19.5656 20.0843 18.8085 20.3568C18.0587 20.6268 17.2604 20.8528 16.5614 21.0106C15.8462 21.1721 15.2881 21.25 15 21.25V22.75C15.4619 22.75 16.1538 22.6404 16.8918 22.4738C17.6459 22.3035 18.5038 22.0607 19.3165 21.7682C20.1219 21.4782 20.9178 21.127 21.5269 20.7298C21.8307 20.5317 22.1186 20.3026 22.3377 20.0388C22.5556 19.7765 22.75 19.4245 22.75 19H21.25ZM1.25 19C1.25 19.4245 1.44445 19.7765 1.66234 20.0388C1.88145 20.3026 2.16934 20.5317 2.47311 20.7298C3.08216 21.127 3.87813 21.4782 4.68346 21.7682C5.49615 22.0607 6.35414 22.3035 7.10824 22.4738C7.84621 22.6404 8.53814 22.75 9 22.75V21.25C8.71186 21.25 8.15379 21.1721 7.43863 21.0106C6.73961 20.8528 5.94135 20.6268 5.19154 20.3568C4.43437 20.0843 3.76159 19.7793 3.29251 19.4734C3.05722 19.3199 2.90371 19.1857 2.81617 19.0803C2.72743 18.9735 2.75 18.9505 2.75 19H1.25ZM1.6025 3.386L3.6025 4.636L4.3975 3.364L2.3975 2.114L1.6025 3.386ZM3.6025 3.364L1.6025 4.614L2.3975 5.886L4.3975 4.636L3.6025 3.364ZM2.75 5.25L2.75 2.75H1.25L1.25 5.25H2.75ZM19.6025 3.386L21.6025 4.636L22.3975 3.364L20.3975 2.114L19.6025 3.386ZM21.6025 3.364L19.6025 4.614L20.3975 5.886L22.3975 4.636L21.6025 3.364ZM20.75 5.25V2.75H19.25V5.25H20.75ZM10.6025 2.136L12.6025 3.386L13.3975 2.114L11.3975 0.864001L10.6025 2.136ZM12.6025 2.114L10.6025 3.364L11.3975 4.636L13.3975 3.386L12.6025 2.114ZM11.75 4V1.5H10.25V4H11.75Z" fill="#393D48"/>
</svg>
