<svg width="24" height="24" viewBox="0 0 24 24" fill="none" xmlns="http://www.w3.org/2000/svg">
<path fill-rule="evenodd" clip-rule="evenodd" d="M10.6364 0.844018C10.8749 0.711849 11.1663 0.719501 11.3975 0.864002L13.3975 2.114C13.6168 2.25106 13.75 2.49141 13.75 2.75C13.75 3.00859 13.6168 3.24895 13.3975 3.386L11.3975 4.636C11.1663 4.7805 10.8749 4.78815 10.6364 4.65598C10.398 4.52381 10.25 4.27264 10.25 4V1.5C10.25 1.22736 10.398 0.976188 10.6364 0.844018ZM1.63642 2.09402C1.87489 1.96185 2.1663 1.9695 2.3975 2.114L4.3975 3.364C4.61679 3.50106 4.75 3.74141 4.75 4C4.75 4.25859 4.61679 4.49895 4.3975 4.636L2.3975 5.886C2.1663 6.0305 1.87489 6.03815 1.63642 5.90598C1.39796 5.77381 1.25 5.52264 1.25 5.25L1.25 2.75C1.25 2.47736 1.39796 2.22619 1.63642 2.09402ZM19.6364 2.09402C19.8749 1.96185 20.1663 1.9695 20.3975 2.114L22.3975 3.364C22.6168 3.50106 22.75 3.74141 22.75 4C22.75 4.25859 22.6168 4.49895 22.3975 4.636L20.3975 5.886C20.1663 6.0305 19.8749 6.03815 19.6364 5.90598C19.398 5.77381 19.25 5.52264 19.25 5.25V2.75C19.25 2.47736 19.398 2.22619 19.6364 2.09402ZM2.75 11.9099V18.982C2.75564 18.9952 2.77231 19.0275 2.81617 19.0803C2.90371 19.1857 3.05722 19.3199 3.29251 19.4734C3.76159 19.7793 4.43437 20.0843 5.19154 20.3568C5.94135 20.6268 6.73961 20.8528 7.43863 21.0106C7.73974 21.0786 8.01301 21.1318 8.25 21.1706L8.25 19.5735C8.24998 19.3163 8.24996 19.0806 8.26614 18.8838C8.28368 18.6705 8.32383 18.439 8.44074 18.2095C8.6061 17.885 8.87156 17.6119 9.20552 17.4417C9.43503 17.3248 9.66749 17.2845 9.88101 17.2667C10.082 17.25 10.3224 17.25 10.5848 17.25H13.4152C13.6776 17.25 13.918 17.25 14.119 17.2667C14.3325 17.2845 14.565 17.3248 14.7945 17.4417C15.1284 17.6119 15.3939 17.885 15.5593 18.2095C15.6762 18.439 15.7163 18.6705 15.7339 18.8838C15.75 19.0806 15.75 19.3163 15.75 19.5735L15.75 21.1706C15.987 21.1318 16.2603 21.0786 16.5614 21.0106C17.2604 20.8528 18.0587 20.6268 18.8085 20.3568C19.5656 20.0843 20.2384 19.7793 20.7075 19.4734C20.9428 19.3199 21.0963 19.1857 21.1838 19.0803C21.2277 19.0275 21.2444 18.9952 21.25 18.982V11.9099C20.6593 12.2408 19.9169 12.533 19.0905 12.7809C17.1393 13.3662 14.5661 13.75 12 13.75C9.43386 13.75 6.86068 13.3662 4.90949 12.7809C4.08312 12.533 3.34074 12.2408 2.75 11.9099ZM22.75 10V19C22.75 19.4245 22.5556 19.7765 22.3377 20.0388C22.1186 20.3026 21.8307 20.5317 21.5269 20.7298C20.9178 21.127 20.1219 21.4782 19.3165 21.7682C18.5038 22.0607 17.6459 22.3035 16.8918 22.4738C16.1538 22.6404 15.4619 22.75 15 22.75C14.5858 22.75 14.25 22.4142 14.25 22V19.6C14.25 19.3075 14.2494 19.1345 14.2389 19.0066C14.2325 18.9292 14.2242 18.8967 14.2214 18.8879C14.1956 18.8385 14.1568 18.8011 14.1162 18.7796C14.1075 18.7769 14.0743 18.7682 13.9946 18.7615C13.8659 18.7508 13.6917 18.75 13.4 18.75H10.6C10.3083 18.75 10.1341 18.7508 10.0054 18.7615C9.92568 18.7682 9.89253 18.7769 9.88382 18.7796C9.84315 18.8011 9.80444 18.8385 9.7786 18.8879C9.77582 18.8967 9.76747 18.9292 9.7611 19.0066C9.75059 19.1345 9.75 19.3075 9.75 19.6V22C9.75 22.4142 9.41421 22.75 9 22.75C8.53814 22.75 7.84621 22.6404 7.10824 22.4738C6.35414 22.3035 5.49615 22.0607 4.68346 21.7682C3.87813 21.4782 3.08216 21.127 2.47311 20.7298C2.16934 20.5317 1.88145 20.3026 1.66234 20.0388C1.44445 19.7765 1.25 19.4245 1.25 19V10C1.25 9.20626 1.88111 8.63572 2.45381 8.26755C3.08317 7.86296 3.93833 7.51048 4.90949 7.21913C6.86068 6.63377 9.43386 6.25 12 6.25C14.5661 6.25 17.1393 6.63377 19.0905 7.21913C20.0617 7.51048 20.9168 7.86296 21.5462 8.26755C22.1189 8.63572 22.75 9.20626 22.75 10ZM9.77954 18.8852C9.77956 18.8853 9.77907 18.8868 9.7786 18.8879L9.77954 18.8852ZM9.88136 18.7805C9.88133 18.7805 9.88276 18.78 9.88382 18.7796L9.88136 18.7805ZM14.1186 18.7805C14.1186 18.7805 14.1171 18.7801 14.1162 18.7796L14.1186 18.7805ZM14.2205 18.8852C14.2205 18.8852 14.221 18.8865 14.2214 18.8879L14.2205 18.8852ZM21.2465 10C21.2314 10.0343 21.1519 10.2027 20.7351 10.4707C20.2707 10.7692 19.5633 11.073 18.6595 11.3441C18.0806 11.5178 17.4367 11.6735 16.7484 11.8048C16.7494 11.7869 16.75 11.7686 16.75 11.75C16.75 11.4069 16.5617 11.1708 16.4254 11.0459C16.2877 10.9197 16.127 10.8333 15.9896 10.7724C15.7097 10.6483 15.3514 10.5547 14.9666 10.4825C14.1848 10.3359 13.1364 10.25 12 10.25C10.8636 10.25 9.81518 10.3359 9.03336 10.4825C8.64861 10.5547 8.29032 10.6483 8.01039 10.7724C7.87301 10.8333 7.71233 10.9197 7.57459 11.0459C7.43826 11.1708 7.25 11.4069 7.25 11.75C7.25 11.7686 7.25056 11.7869 7.25162 11.8048C6.56334 11.6735 5.9194 11.5178 5.34051 11.3441C4.43667 11.073 3.72933 10.7692 3.26494 10.4707C2.8481 10.2027 2.76864 10.0343 2.75353 10C2.76864 9.96573 2.8481 9.79729 3.26494 9.52932C3.72933 9.23079 4.43667 8.92702 5.34051 8.65587C7.13932 8.11623 9.56614 7.75 12 7.75C14.4339 7.75 16.8607 8.11623 18.6595 8.65587C19.5633 8.92702 20.2707 9.23079 20.7351 9.52932C21.1519 9.79728 21.2314 9.96572 21.2465 10Z" fill="#393D48"/>
</svg>
