<svg width="24" height="24" viewBox="0 0 24 24" fill="none" xmlns="http://www.w3.org/2000/svg">
<path d="M5.5 2.25C3.70507 2.25 2.25 3.70507 2.25 5.5V8C2.25 9.79493 3.70507 11.25 5.5 11.25H8C9.79493 11.25 11.25 9.79493 11.25 8V5.5C11.25 3.70507 9.79493 2.25 8 2.25H5.5Z" fill="#0075F4"/>
<path d="M12.75 4.5C12.75 4.08579 13.0858 3.75 13.5 3.75H21C21.4142 3.75 21.75 4.08579 21.75 4.5C21.75 4.91421 21.4142 5.25 21 5.25H13.5C13.0858 5.25 12.75 4.91421 12.75 4.5Z" fill="#0075F4"/>
<path d="M13.5 8.25C13.0858 8.25 12.75 8.58579 12.75 9C12.75 9.41421 13.0858 9.75 13.5 9.75H21C21.4142 9.75 21.75 9.41421 21.75 9C21.75 8.58579 21.4142 8.25 21 8.25H13.5Z" fill="#0075F4"/>
<path d="M5.5 12.75C3.70507 12.75 2.25 14.2051 2.25 16V18.5C2.25 20.2949 3.70507 21.75 5.5 21.75H8C9.79493 21.75 11.25 20.2949 11.25 18.5V16C11.25 14.2051 9.79493 12.75 8 12.75H5.5Z" fill="#0075F4"/>
<path d="M12.75 15C12.75 14.5858 13.0858 14.25 13.5 14.25H21C21.4142 14.25 21.75 14.5858 21.75 15C21.75 15.4142 21.4142 15.75 21 15.75H13.5C13.0858 15.75 12.75 15.4142 12.75 15Z" fill="#0075F4"/>
<path d="M13.5 18.75C13.0858 18.75 12.75 19.0858 12.75 19.5C12.75 19.9142 13.0858 20.25 13.5 20.25H21C21.4142 20.25 21.75 19.9142 21.75 19.5C21.75 19.0858 21.4142 18.75 21 18.75H13.5Z" fill="#0075F4"/>
</svg>
