<svg width="24" height="24" viewBox="0 0 24 24" fill="none" xmlns="http://www.w3.org/2000/svg">
<path d="M3 5.5C3 4.11929 4.11929 3 5.5 3H8C9.38071 3 10.5 4.11929 10.5 5.5V8C10.5 9.38071 9.38071 10.5 8 10.5H5.5C4.11929 10.5 3 9.38071 3 8V5.5Z" stroke="#7B7D8A" stroke-width="1.5"/>
<path d="M3 16C3 14.6193 4.11929 13.5 5.5 13.5H8C9.38071 13.5 10.5 14.6193 10.5 16V18.5C10.5 19.8807 9.38071 21 8 21H5.5C4.11929 21 3 19.8807 3 18.5V16Z" stroke="#7B7D8A" stroke-width="1.5"/>
<path d="M13.5 5.5C13.5 4.11929 14.6193 3 16 3H18.5C19.8807 3 21 4.11929 21 5.5V8C21 9.38071 19.8807 10.5 18.5 10.5H16C14.6193 10.5 13.5 9.38071 13.5 8V5.5Z" stroke="#7B7D8A" stroke-width="1.5"/>
<path d="M13.5 16C13.5 14.6193 14.6193 13.5 16 13.5H18.5C19.8807 13.5 21 14.6193 21 16V18.5C21 19.8807 19.8807 21 18.5 21H16C14.6193 21 13.5 19.8807 13.5 18.5V16Z" stroke="#7B7D8A" stroke-width="1.5"/>
</svg>
