<svg width="24" height="24" viewBox="0 0 24 24" fill="none" xmlns="http://www.w3.org/2000/svg">
<path fill-rule="evenodd" clip-rule="evenodd" d="M2.25 5.5C2.25 3.70507 3.70507 2.25 5.5 2.25H8C9.79493 2.25 11.25 3.70507 11.25 5.5V8C11.25 9.79493 9.79493 11.25 8 11.25H5.5C3.70507 11.25 2.25 9.79493 2.25 8V5.5ZM5.5 3.75C4.5335 3.75 3.75 4.5335 3.75 5.5V8C3.75 8.9665 4.5335 9.75 5.5 9.75H8C8.9665 9.75 9.75 8.9665 9.75 8V5.5C9.75 4.5335 8.9665 3.75 8 3.75H5.5ZM12.75 5.5C12.75 3.70507 14.2051 2.25 16 2.25H18.5C20.2949 2.25 21.75 3.70507 21.75 5.5V8C21.75 9.79493 20.2949 11.25 18.5 11.25H16C14.2051 11.25 12.75 9.79493 12.75 8V5.5ZM16 3.75C15.0335 3.75 14.25 4.5335 14.25 5.5V8C14.25 8.9665 15.0335 9.75 16 9.75H18.5C19.4665 9.75 20.25 8.9665 20.25 8V5.5C20.25 4.5335 19.4665 3.75 18.5 3.75H16ZM2.25 16C2.25 14.2051 3.70507 12.75 5.5 12.75H8C9.79493 12.75 11.25 14.2051 11.25 16V18.5C11.25 20.2949 9.79493 21.75 8 21.75H5.5C3.70507 21.75 2.25 20.2949 2.25 18.5V16ZM5.5 14.25C4.5335 14.25 3.75 15.0335 3.75 16V18.5C3.75 19.4665 4.5335 20.25 5.5 20.25H8C8.9665 20.25 9.75 19.4665 9.75 18.5V16C9.75 15.0335 8.9665 14.25 8 14.25H5.5ZM12.75 16C12.75 14.2051 14.2051 12.75 16 12.75H18.5C20.2949 12.75 21.75 14.2051 21.75 16V18.5C21.75 20.2949 20.2949 21.75 18.5 21.75H16C14.2051 21.75 12.75 20.2949 12.75 18.5V16ZM16 14.25C15.0335 14.25 14.25 15.0335 14.25 16V18.5C14.25 19.4665 15.0335 20.25 16 20.25H18.5C19.4665 20.25 20.25 19.4665 20.25 18.5V16C20.25 15.0335 19.4665 14.25 18.5 14.25H16Z" fill="#B1B3BB"/>
</svg>
