<svg width="24" height="24" viewBox="0 0 24 24" fill="none" xmlns="http://www.w3.org/2000/svg">
<path d="M5.5 2.25C3.70507 2.25 2.25 3.70507 2.25 5.5V8C2.25 9.79493 3.70507 11.25 5.5 11.25H8C9.79493 11.25 11.25 9.79493 11.25 8V5.5C11.25 3.70507 9.79493 2.25 8 2.25H5.5Z" fill="#0059C2"/>
<path d="M5.5 12.75C3.70507 12.75 2.25 14.2051 2.25 16V18.5C2.25 20.2949 3.70507 21.75 5.5 21.75H8C9.79493 21.75 11.25 20.2949 11.25 18.5V16C11.25 14.2051 9.79493 12.75 8 12.75H5.5Z" fill="#0059C2"/>
<path d="M16 2.25C14.2051 2.25 12.75 3.70507 12.75 5.5V8C12.75 9.79493 14.2051 11.25 16 11.25H18.5C20.2949 11.25 21.75 9.79493 21.75 8V5.5C21.75 3.70507 20.2949 2.25 18.5 2.25H16Z" fill="#0059C2"/>
<path d="M16 12.75C14.2051 12.75 12.75 14.2051 12.75 16V18.5C12.75 20.2949 14.2051 21.75 16 21.75H18.5C20.2949 21.75 21.75 20.2949 21.75 18.5V16C21.75 14.2051 20.2949 12.75 18.5 12.75H16Z" fill="#0059C2"/>
</svg>
