<svg width="24" height="24" viewBox="0 0 24 24" fill="none" xmlns="http://www.w3.org/2000/svg">
<path fill-rule="evenodd" clip-rule="evenodd" d="M2.25 5.5C2.25 3.70507 3.70507 2.25 5.5 2.25H8C9.79493 2.25 11.25 3.70507 11.25 5.5V8C11.25 9.79493 9.79493 11.25 8 11.25H5.5C3.70507 11.25 2.25 9.79493 2.25 8V5.5ZM5.5 3.75C4.5335 3.75 3.75 4.5335 3.75 5.5V8C3.75 8.9665 4.5335 9.75 5.5 9.75H8C8.9665 9.75 9.75 8.9665 9.75 8V5.5C9.75 4.5335 8.9665 3.75 8 3.75H5.5ZM12.75 4.5C12.75 4.08579 13.0858 3.75 13.5 3.75H21C21.4142 3.75 21.75 4.08579 21.75 4.5C21.75 4.91421 21.4142 5.25 21 5.25H13.5C13.0858 5.25 12.75 4.91421 12.75 4.5ZM12.75 9C12.75 8.58579 13.0858 8.25 13.5 8.25H21C21.4142 8.25 21.75 8.58579 21.75 9C21.75 9.41421 21.4142 9.75 21 9.75H13.5C13.0858 9.75 12.75 9.41421 12.75 9ZM2.25 16C2.25 14.2051 3.70507 12.75 5.5 12.75H8C9.79493 12.75 11.25 14.2051 11.25 16V18.5C11.25 20.2949 9.79493 21.75 8 21.75H5.5C3.70507 21.75 2.25 20.2949 2.25 18.5V16ZM5.5 14.25C4.5335 14.25 3.75 15.0335 3.75 16V18.5C3.75 19.4665 4.5335 20.25 5.5 20.25H8C8.9665 20.25 9.75 19.4665 9.75 18.5V16C9.75 15.0335 8.9665 14.25 8 14.25H5.5ZM12.75 15C12.75 14.5858 13.0858 14.25 13.5 14.25H21C21.4142 14.25 21.75 14.5858 21.75 15C21.75 15.4142 21.4142 15.75 21 15.75H13.5C13.0858 15.75 12.75 15.4142 12.75 15ZM12.75 19.5C12.75 19.0858 13.0858 18.75 13.5 18.75H21C21.4142 18.75 21.75 19.0858 21.75 19.5C21.75 19.9142 21.4142 20.25 21 20.25H13.5C13.0858 20.25 12.75 19.9142 12.75 19.5Z" fill="#B1B3BB"/>
</svg>
