<svg width="24" height="24" viewBox="0 0 24 24" fill="none" xmlns="http://www.w3.org/2000/svg">
<path d="M21 4.5H13.5M21 9H13.5M21 15H13.5M21 19.5H13.5M5.5 10.5H8C9.38071 10.5 10.5 9.38071 10.5 8V5.5C10.5 4.11929 9.38071 3 8 3H5.5C4.11929 3 3 4.11929 3 5.5V8C3 9.38071 4.11929 10.5 5.5 10.5ZM5.5 21H8C9.38071 21 10.5 19.8807 10.5 18.5V16C10.5 14.6193 9.38071 13.5 8 13.5H5.5C4.11929 13.5 3 14.6193 3 16V18.5C3 19.8807 4.11929 21 5.5 21Z" stroke="#B1B3BB" stroke-width="1.5" stroke-linecap="round" stroke-linejoin="round"/>
</svg>
