<svg width="24" height="24" viewBox="0 0 24 24" fill="none" xmlns="http://www.w3.org/2000/svg">
<path fill-rule="evenodd" clip-rule="evenodd" d="M12 4.25L12.072 4.25009L12.2745 4.25075C12.4495 4.2515 12.7009 4.253 13.0073 4.25599C13.9264 4.26495 15.3468 4.28741 16.6874 4.34383C17.9948 4.39884 19.3223 4.48878 19.9957 4.65321C20.0045 4.65535 20.0132 4.65766 20.022 4.66012C20.5769 4.81713 21.0806 5.11779 21.4821 5.53176C21.8837 5.94572 22.1688 6.45832 22.3089 7.01778C22.3129 7.03398 22.3164 7.05031 22.3194 7.06675C22.6158 8.70977 22.7597 10.3766 22.7495 12.0461C22.7552 13.6906 22.6112 15.3322 22.3194 16.9506C22.3165 16.9671 22.3129 16.9835 22.3089 16.9997C22.1688 17.5591 21.8837 18.0717 21.4821 18.4857C21.0806 18.8997 20.5769 19.2003 20.022 19.3573L20.0116 19.3603C19.3309 19.5423 17.996 19.6408 16.6904 19.701C15.3486 19.7628 13.9273 19.7874 13.008 19.7973C12.7014 19.8005 12.4499 19.8022 12.2748 19.803L12.0721 19.8037L12.0001 19.8038L11.9278 19.8037L11.7252 19.803C11.5501 19.8022 11.2986 19.8005 10.992 19.7973C10.0726 19.7874 8.65136 19.7628 7.30959 19.701C6.00394 19.6408 4.6691 19.5422 3.98845 19.3602L3.98429 19.3591C3.44064 19.2103 2.94454 18.9239 2.54393 18.5274C2.14332 18.1309 1.85174 17.6378 1.69736 17.0957C1.69058 17.0719 1.68498 17.0478 1.68059 17.0234C1.38426 15.3806 1.24029 13.7139 1.25051 12.0446C1.24258 10.3878 1.38654 8.73369 1.68059 7.10314C1.68355 7.0867 1.68707 7.07035 1.69112 7.05414C1.83116 6.49468 2.11635 5.98208 2.51789 5.56812C2.91944 5.15416 3.42311 4.85349 3.97805 4.69649L3.98843 4.69355C4.66908 4.51152 6.00394 4.41301 7.30959 4.35283C8.65136 4.29099 10.0726 4.26638 10.992 4.25656C11.2986 4.25328 11.5501 4.25164 11.7252 4.25082L11.9278 4.2501L12 4.25ZM12.996 18.2973H11.004C10.0916 18.2875 8.69269 18.2631 7.37866 18.2026C6.02849 18.1403 4.87163 18.0431 4.37808 17.9117C4.08408 17.8308 3.81581 17.6757 3.59908 17.4612C3.38993 17.2542 3.23559 16.9987 3.14967 16.7176C2.8743 15.1772 2.74068 13.6147 2.7505 12.0498L2.75051 12.0414C2.74282 10.4839 2.8772 8.92903 3.15198 7.39602C3.22981 7.10133 3.38218 6.83147 3.59458 6.61251C3.81108 6.3893 4.08234 6.22684 4.38124 6.1413C4.87655 6.01033 6.03136 5.91334 7.37866 5.85124C8.69275 5.79067 10.0917 5.76629 11.0041 5.75651L12.9964 5.75595C13.9091 5.76488 15.3091 5.78715 16.6243 5.8425C17.9628 5.89883 19.1196 5.98681 19.6265 6.10717C19.9223 6.19329 20.1908 6.35487 20.4054 6.57614C20.6178 6.79512 20.7702 7.06498 20.848 7.35968C21.125 8.9043 21.2593 10.4711 21.2495 12.0404L21.2495 12.0478C21.255 13.5934 21.1207 15.1364 20.848 16.6578C20.7702 16.9525 20.6178 17.2223 20.4054 17.4413C20.1889 17.6645 19.9176 17.827 19.6187 17.9125C19.1234 18.0435 17.9686 18.1405 16.6213 18.2026C15.3073 18.2631 13.9084 18.2875 12.996 18.2973ZM11.3643 8.14617L15.3532 10.7104C15.508 10.8099 15.664 10.9101 15.7861 11.0054C15.9144 11.1054 16.0941 11.2652 16.199 11.5135C16.3305 11.8245 16.3305 12.1755 16.199 12.4865C16.0941 12.7348 15.9144 12.8946 15.7861 12.9946C15.664 13.0899 15.508 13.1901 15.3532 13.2896L11.3643 15.8538C11.1844 15.9696 11.0086 16.0826 10.8565 16.1618C10.7034 16.2414 10.4577 16.3522 10.1609 16.331C9.79928 16.3052 9.46666 16.1236 9.24935 15.8333C9.07107 15.5952 9.03136 15.3286 9.0156 15.1567C8.99994 14.9859 8.99997 14.777 9 14.563L9 9.46533C9 9.45587 9 9.44641 9 9.43696C8.99997 9.22304 8.99994 9.01408 9.0156 8.84325C9.03136 8.67143 9.07107 8.40484 9.24935 8.16669C9.46666 7.87644 9.79928 7.69484 10.1609 7.66901C10.4577 7.64782 10.7034 7.75857 10.8565 7.83823C11.0086 7.91744 11.1844 8.03046 11.3643 8.14617ZM10.5 9.37381C10.5 9.40277 10.5 9.43322 10.5 9.46533V14.5347C10.5 14.5668 10.5 14.5972 10.5 14.6262C10.5244 14.6106 10.55 14.5941 10.577 14.5767L14.5199 12.0421C14.5428 12.0273 14.5646 12.0133 14.5852 12C14.5646 11.9867 14.5428 11.9727 14.5199 11.9579L10.577 9.42327C10.55 9.40591 10.5244 9.38945 10.5 9.37381Z" fill="#E0E2E6"/>
</svg>
